<?xml version="1.0" encoding="UTF-8" standalone="no"?>
<svg
   xmlns:dc="http://purl.org/dc/elements/1.1/"
   xmlns:cc="http://creativecommons.org/ns#"
   xmlns:rdf="http://www.w3.org/1999/02/22-rdf-syntax-ns#"
   xmlns:svg="http://www.w3.org/2000/svg"
   xmlns="http://www.w3.org/2000/svg"
   xmlns:xlink="http://www.w3.org/1999/xlink"
   xmlns:sodipodi="http://sodipodi.sourceforge.net/DTD/sodipodi-0.dtd"
   xmlns:inkscape="http://www.inkscape.org/namespaces/inkscape"
   width="100%"
   height="100%"
   viewBox="0 0 1024 768"
   style="background: #3c4747;"
   id="svg13813"
   version="1.1"
   inkscape:version="0.91+devel+osxmenu r12898"
   sodipodi:docname="4.svg">
  <sodipodi:namedview
     pagecolor="#3c4747"
     bordercolor="#ffffff"
     borderopacity="1"
     inkscape:pageopacity="0"
     inkscape:pageshadow="2"
     inkscape:zoom="1"
     inkscape:document-units="px"
     inkscape:current-layer="g15203"
     showgrid="true"
     inkscape:window-maximized="0"
     inkscape:showpageshadow="false"
     borderlayer="true"
     id="namedview13815"
     inkscape:cx="537.12354"
     inkscape:cy="305.88247"
     inkscape:window-width="1440"
     inkscape:window-height="851"
     inkscape:window-x="0"
     inkscape:window-y="23"
     inkscape:snap-global="false">
    <inkscape:grid
       type="xygrid"
       color="#b5357b"
       opacity="0.1254902"
       empcolor="#5d6e79"
       empopacity="0.25098039"
       enabled="true"
       empspacing="15"
       id="grid13817" />
  </sodipodi:namedview>
  <defs
     id="defs13819">
    <symbol
       id="two">
      <path
         id="path10995"
         d="m 368.90027,305.59872 c 0.41424,-1.56545 1.01405,-3.31867 2.04852,-4.60144 0.39816,-0.49372 0.8766,-0.939 1.41917,-1.26751 9.50787,-5.75664 6.17494,-5.28813 11.54976,-5.63037 0.57833,0.12312 1.193,0.133 1.73501,0.36936 3.77018,1.64409 4.18748,6.32832 4.56888,9.80766 0.39643,6.59243 -2.16864,11.94276 -5.88192,17.17566 -2.13422,3.01235 -4.79646,5.53523 -7.72073,7.75697 -1.03217,0.75873 -2.06533,1.51907 -3.14077,2.21609 -0.42928,0.1988 -0.62818,0.53962 -0.82282,0.95743 -0.14228,0.33558 -0.24864,0.68425 -0.32482,1.04013 -0.0146,0.0234 -0.004,0.0692 -0.006,0.09 -2.77177,1.40443 -5.47044,2.96355 -8.31532,4.21327 -0.27374,0.12026 0.29543,-0.52097 0.46722,-0.76569 0.59464,-0.84707 1.34069,-1.61634 2.24115,-2.14113 3.08504,-1.79796 6.20146,-3.54153 9.30218,-5.31229 2.62853,-1.22722 4.31508,1.80984 5.62185,3.62004 1.67514,2.51405 3.36199,4.44935 6.5119,4.61782 0.40043,-0.11357 0.81939,-0.17521 1.20129,-0.34071 0.44689,-0.19366 1.70091,-0.94884 1.26645,-0.72872 -2.36619,1.19885 -4.59232,2.70066 -7.06312,3.66564 -0.58513,0.22853 0.85329,-0.92254 1.26166,-1.39985 0.8026,-0.93807 1.2431,-1.55201 1.96818,-2.51613 0.64899,-0.93421 1.34737,-1.84702 1.88539,-2.85316 0.0842,-0.14407 0.01,-0.17593 -0.009,-0.34262 0.29619,-0.86071 0.86011,-1.55339 1.46103,-2.2204 0.16755,-0.18614 0.34701,-0.36023 0.53914,-0.52012 0,0 8.65179,-4.99511 8.65179,-4.99511 l 0,0 c -0.22242,0.1748 -0.43258,0.36412 -0.62678,0.57071 -0.60463,0.6423 -1.19338,1.30462 -1.40148,2.18602 0.048,0.20249 0.13948,0.16763 0.001,0.34732 -0.6975,1.05051 -1.47251,2.0476 -2.23192,3.05323 -0.74063,0.94492 -2.36522,3.3254 -3.26265,3.93493 -2.63026,1.78642 -7.86331,5.69403 -11.98295,6.97529 -3.24433,-0.18409 -4.66958,-2.13231 -6.36816,-4.7008 -1.36778,-1.76263 -3.23061,-4.67294 -5.8151,-3.50848 2.4925,-1.45849 4.98501,-2.91697 7.47751,-4.37546 -0.28249,0.20097 -0.58094,0.38122 -0.84749,0.60292 -0.48024,0.39944 -1.72588,2.21845 -1.78995,2.26295 -2.86683,1.9913 -5.86907,3.78023 -8.8036,5.67034 0.007,-0.0275 0.0105,-0.0725 0.0244,-0.1008 0.11595,-0.3664 0.24557,-0.72848 0.39711,-1.08187 0.18846,-0.4147 0.36391,-0.74656 0.79116,-0.93915 1.18396,-0.75411 2.3259,-1.57249 3.45923,-2.39995 3.02976,-2.29082 5.82254,-4.87931 8.07388,-7.96087 3.84355,-5.23434 6.35332,-10.52265 5.90667,-17.18995 -0.45961,-3.42603 -1.18089,-8.06022 -4.85973,-9.63973 -0.54445,-0.23377 -1.15951,-0.24461 -1.73926,-0.36691 -4.00419,0.24255 -3.51747,0.48261 4.81129,-3.81568 0.56403,-0.29108 -1.02448,0.77207 -1.42035,1.26819 -0.97791,1.22556 -1.51984,2.92253 -1.77031,4.44082 0,0 -8.4387,4.87208 -8.4387,4.87208 z"
         inkscape:connector-curvature="0" />
    </symbol>
    <symbol
       id="n">
      <path
         id="path11127"
         d="m 906.35931,185.08841 c 2.96713,-1.95891 5.59009,-4.38122 8.41039,-6.5409 0.94411,-0.69033 1.86845,-1.41375 2.85493,-2.04426 2.78875,-1.33665 5.42354,-3.05904 8.36624,-4.00995 0.48821,-0.15775 -0.31636,0.97618 -0.48128,1.46201 -0.34693,1.02197 -0.71372,2.03719 -1.05426,3.06131 -1.29565,3.89648 -2.56946,7.80149 -3.81086,11.71561 -1.38794,4.26883 -2.75045,8.54624 -4.05253,12.84212 -1.20844,4.1093 -0.20949,1.0328 -8.85652,5.8057 0.82064,-3.48364 8.65239,-8.11759 8.58776,-4.162 0.0809,3.65066 -5.98823,5.02792 -9.54219,5.31332 17.94934,-9.90234 7.95879,-7.47089 8.49944,-4.01998 -1.12417,1.89904 -9.5971,7.84438 -8.42606,3.5961 0.87943,-2.87858 2.53509,-5.48549 4.04648,-8.06779 2.7508,-5.12718 6.09274,-9.88838 9.72037,-14.42566 2.38607,-2.22222 4.23855,-5.39494 7.11343,-7.09155 3.08677,-1.82165 6.22407,-3.55626 9.33611,-5.33439 4.43328,-1.80595 2.2034,5.69526 1.83819,7.38755 -1.62787,6.64576 -3.95065,13.0874 -6.01491,19.6029 -0.48368,1.82154 -1.21125,3.5894 -1.59733,5.43784 -0.0438,0.28538 -0.0621,0.57574 -10e-4,0.85885 0.0791,0.10144 0.28496,0.0546 0.39966,0.0589 1.36566,-0.32548 2.65607,-0.90268 3.96597,-1.40146 0.54284,-0.20648 1.08578,-0.4127 1.6291,-0.6179 0.32475,-0.0458 0.6825,-0.001 1.01346,0.009 0.14908,0.001 0.29815,0.002 0.44722,0.004 0,0 -8.54238,4.93195 -8.54238,4.93195 l 0,0 c -0.15094,-1.7e-4 -0.30188,-3.3e-4 -0.45282,-5e-4 -0.36582,0.007 -0.74436,-0.007 -1.10576,0.0441 -0.49146,0.16783 -0.97943,0.34565 -1.46703,0.52433 -1.35331,0.50141 -2.67682,1.09223 -4.07297,1.46323 -0.0877,0.004 -0.40547,0.0956 -0.46282,-0.0224 -0.0181,-0.30432 0.0213,-0.60774 0.0831,-0.90596 0.49441,-1.98794 1.67326,-3.79167 2.18658,-5.77805 2.36904,-6.45863 4.71434,-12.95572 6.17081,-19.69291 0.24998,-1.80888 1.7511,-8.68647 -2.38617,-7.07117 12.7186,-7.43944 8.87544,-5.5831 6.32856,-3.52231 -2.40116,1.94288 -4.46424,4.26986 -6.52038,6.56184 -3.58301,4.51173 -6.95864,9.1963 -9.58045,14.34488 -1.33872,2.49479 -2.90013,4.98974 -3.54077,7.77582 -0.93031,3.72068 -0.25561,5.57341 -8.7583,6.3253 -0.22143,-3.53898 12.39787,-7.75221 8.78195,-5.95744 4.29152,-0.005 -8.28546,7.95422 -7.70637,4.64514 0.34583,-3.48905 10.01927,-9.27096 8.61793,-5.77171 -10.64203,6.40921 -9.85065,8.11618 -8.15298,4.01474 1.79469,-4.38313 3.40905,-8.83928 4.90322,-13.33326 1.24024,-3.82623 2.52189,-7.65131 3.5233,-11.54959 0.23996,-0.93412 0.42138,-1.88234 0.63944,-2.82181 0.10687,-0.46041 -0.0338,-1.08248 0.33531,-1.37774 2.71854,-2.17473 5.77914,-3.88345 8.66871,-5.82518 -1.11186,0.69774 -2.1622,1.48938 -3.22498,2.2579 -2.76643,2.08703 -5.33267,4.4318 -8.17849,6.40702 0,0 -8.47756,4.89452 -8.47756,4.89452 z"
         inkscape:connector-curvature="0" />
    </symbol>
    <symbol
       id="three">
      <path
         id="path12120"
         d="m 405.52139,306.70504 c 4.93046,-3.7004 10.66016,-8.42593 16.65275,-9.4361 0.72756,-0.12264 1.47327,-0.0836 2.20991,-0.12547 2.38429,0.18342 6.23133,0.77699 6.43338,3.85065 0.0294,0.44724 -0.10214,0.89058 -0.15322,1.33587 -0.52362,1.91723 -2.03675,3.06798 -3.68866,4.01048 -9.41369,5.37104 -6.05639,3.96572 -10.23748,5.66073 -0.66197,0.23798 -1.33471,0.47407 -2.03732,0.54768 -1.21039,-2.45282 7.03143,-4.91384 10.46382,-5.41155 2.30181,-0.27392 4.713,-0.10125 6.50481,1.54403 0.57151,0.52477 1.17026,1.08027 1.49282,1.78594 0.4457,0.97506 0.5019,2.08462 0.75285,3.12693 0.0806,1.24753 0.30704,2.49415 0.2419,3.74258 -0.2778,5.32414 -2.51639,11.43819 -7.17884,14.48857 -3.57528,2.33911 -7.43144,4.21782 -11.14715,6.32672 -4.56613,1.63586 -9.88776,2.57515 -14.38068,0.2354 0,0 8.36683,-4.83059 8.36683,-4.83059 l 0,0 c 4.00421,2.74804 9.32557,1.69038 13.59575,0.21778 -1.32372,0.80061 -2.64967,3.20614 -3.97115,2.40184 -1.21064,-0.73685 2.15858,-1.86057 3.04949,-2.9628 2.56102,-3.16846 3.89758,-7.39067 3.9851,-11.4425 0.0265,-1.22683 -0.25496,-2.44095 -0.38245,-3.66143 -0.32549,-0.99927 -0.48217,-2.07037 -0.97646,-2.99782 -1.63096,-3.06017 -5.2644,-3.62977 -8.33603,-3.13461 -5.12494,0.96047 0.18504,0.0324 6.55767,-4.4158 0.62682,-0.0107 1.22908,-0.22656 1.8188,-0.42152 3.44356,-1.35291 1.1463,-0.50026 -6.49267,3.99843 -0.38491,0.22668 0.78445,-0.43167 1.14827,-0.69083 1.20426,-0.85783 2.17813,-1.85265 2.5457,-3.32271 0.0533,-0.44659 0.18711,-0.89083 0.15996,-1.33977 -0.18229,-3.01428 -3.82266,-3.77493 -6.20937,-3.97998 -0.74223,0.0451 -1.49349,0.0112 -2.22669,0.13515 -0.70727,0.11957 -2.63174,1.03608 -2.06916,0.59107 1.87693,-1.4847 4.05875,-2.537 6.10274,-3.78172 1.06369,-0.64775 -2.07319,1.38583 -3.04706,2.16212 -0.38954,0.31051 -0.77036,0.63183 -1.15554,0.94775 0,0 -8.39262,4.84548 -8.39262,4.84548 z"
         inkscape:connector-curvature="0" />
    </symbol>
    <symbol
       id="four">
      <path
         inkscape:connector-curvature="0"
         d="m 279.91093,294.82494 c -7.24673,7.39195 -10.24968,17.44577 -12.7023,27.22509 -1.04562,5.34385 -1.84283,10.86735 -0.67071,16.25314 0.1615,0.32393 0.2329,1.32509 0.73275,1.39812 6.79022,-6.70934 -8.32339,7.57383 -8.60267,4.37617 0.0142,-0.46141 0.007,-0.92493 0.0292,-1.38654 0.36662,-1.10725 1.29937,-2.02654 2.28978,-2.60938 9.48978,-5.58455 6.21178,-4.40594 11.36988,-6.04955 3.30226,-0.88019 6.70658,-1.23005 10.10925,-1.41004 1.52551,-0.1236 3.0681,0.0517 4.49755,0.60602 0.17113,0.0494 0.30878,0.15464 0.41736,0.26963 -0.002,0.002 -0.005,0.004 -0.007,0.007 0,0 -8.65754,4.99843 -8.65754,4.99843 l 0,0 c 0.003,-0.002 0.005,-0.005 0.008,-0.007 -0.0756,-0.13162 -0.17435,-0.24656 -0.33875,-0.31502 -1.29985,-0.67583 -2.77727,-0.86427 -4.22778,-0.76177 -3.35348,0.13017 -6.71416,0.42466 -9.96136,1.32466 -4.17607,1.39146 -3.37998,1.26842 5.11668,-3.46898 0.35459,-0.1977 -0.66812,0.46557 -0.9676,0.73967 -0.38563,0.35295 -0.74102,0.84428 -0.95842,1.32473 -0.0561,0.12404 -0.0693,0.26333 -0.10397,0.395 0.0102,0.45442 -0.0326,0.9091 0.0116,1.36296 0.51097,2.92792 4.495,-3.15771 -8.67297,5.59794 -0.37447,-0.34523 -0.36447,-1.05847 -0.45249,-1.55994 -0.46545,-5.69661 0.53954,-11.3653 1.79982,-16.90503 2.55266,-9.36004 5.20044,-19.19468 11.72772,-26.66242 0,0 8.2142,-4.74247 8.2142,-4.74247 z"
         id="path12122" />
      <path
         inkscape:connector-curvature="0"
         d="m 280.49902,323.33517 c -1.82301,7.74784 -2.3834,15.69472 -2.44995,23.63012 0.0352,1.06678 0.14681,2.06694 0.60619,3.02517 0,0 -8.52373,4.92118 -8.52373,4.92118 l 0,0 c -0.20034,-1.10218 -0.13756,-2.21521 -0.0758,-3.33138 0.70266,-7.89831 1.51116,-15.7833 2.48834,-23.65228 0,0 7.95498,-4.59281 7.95498,-4.59281 z"
         id="path12124" />
    </symbol>
    <symbol
       id="eight">
      <path
         id="path12202"
         d="m 613.94294,299.43626 c -0.50802,0.0984 -1.01896,0.18285 -1.52408,0.29523 -1.9464,0.43301 -2.09633,0.46929 -3.99868,1.31145 -0.66675,0.29516 -2.595,1.32694 -1.96887,0.95326 8.5398,-5.09659 7.89464,-4.70984 4.94092,-2.52696 -2.8915,4.15864 -0.56506,7.54878 1.1281,11.72004 2.41134,6.13478 3.83243,12.08617 1.77127,18.5601 -0.33841,1.06292 -0.85602,2.06022 -1.28403,3.09033 -3.4302,5.62343 -6.5609,7.09902 -13.5146,10.20584 -0.55834,0.24946 -1.27944,0.002 -1.80926,-0.30379 -1.2619,-0.72732 -1.92131,-2.59976 -2.48727,-3.759 -2.02979,-7.37632 -0.43278,-11.1818 3.95735,-17.10039 4.15396,-4.46112 9.2122,-7.89929 13.67295,-12.02917 2.57291,-2.64795 5.17007,-5.48293 5.76569,-9.24082 -0.75244,-2.0848 -2.41519,-2.63639 -4.42564,-2.96613 0,0 8.26052,-4.76922 8.26052,-4.76922 l 0,0 c 2.00561,0.32356 3.74124,0.83319 4.47407,2.93818 -0.82636,3.82076 -3.38009,6.75735 -6.11179,9.44063 -4.51497,4.13769 -9.62259,7.59237 -13.79433,12.09925 -4.30604,5.74671 -6.07909,9.84781 -3.78552,17.00119 0.69964,1.28941 1.29023,2.85923 2.6621,3.65806 0.5033,0.29306 2.13563,-0.0355 1.70942,0.36143 -1.72798,1.60923 -3.8482,2.83317 -6.05152,3.68225 -1.87058,0.72085 6.45618,-5.33526 3.70982,-4.73345 0.45508,-1.04573 1.00234,-2.05602 1.36523,-3.13721 2.15365,-6.41646 0.76096,-12.47073 -1.91484,-18.4772 -0.58113,-1.20768 -1.84104,-3.74603 -2.36398,-5.1028 -1.03557,-2.68676 -0.74225,-4.07216 0.87848,-6.4109 5.79375,-4.23447 12.1157,-8.10011 19.17796,-9.63272 0,0 -8.43947,4.87252 -8.43947,4.87252 z"
         inkscape:connector-curvature="0" />
    </symbol>
    <symbol
       id="r">
      <g
         id="g11213_transform"
         transform="matrix(0.97111895,0,0,0.97111895,131.9868,-58.835254)">
        <path
           inkscape:connector-curvature="0"
           d="m 529.83742,315.53422 c -2.94771,8.02706 -3.60283,16.54111 -3.30517,25.01572 0.11318,2.32983 0.26101,4.54496 1.37172,6.60565 0,0 -8.30771,4.79646 -8.30771,4.79646 l 0,0 c -0.63456,-2.29122 -0.70044,-4.6299 -0.67791,-7.00622 0.0322,-8.26959 0.72448,-16.47893 2.52652,-24.56617 0,0 8.39255,-4.84544 8.39255,-4.84544 z"
           id="path11203" />
        <path
           inkscape:connector-curvature="0"
           d="m 520.27465,331.58976 c 1.55173,-2.43432 3.15221,-4.84737 5.21954,-6.88127 0.54638,-0.53755 1.05921,-1.13387 1.71291,-1.53408 3.3274,-2.03707 6.79474,-3.83621 10.19211,-5.75431 4.45925,-1.45744 9.05006,-0.16897 13.25543,1.51457 0.89701,0.48163 1.98501,0.78663 2.74379,1.50481 0.047,0.0184 0.0941,0.0367 0.14107,0.0551 0,0 -8.61954,4.9765 -8.61954,4.9765 l 0,0 c -0.0506,-0.0163 -0.10124,-0.0326 -0.15185,-0.0489 -0.53914,-0.81844 -1.61683,-1.18898 -2.38583,-1.71148 -4.06451,-1.96826 -8.58272,-3.14376 -13.00848,-1.65715 1.96203,-1.17615 3.82146,-2.54347 5.8861,-3.52844 0.70362,-0.33567 -1.19187,1.00749 -1.74768,1.55414 -1.97419,1.94167 -3.5074,4.23571 -4.82993,6.65633 0,0 -8.40764,4.85416 -8.40764,4.85416 z"
           id="path11211" />
      </g>
    </symbol>
    <symbol
       id="b">
      <path
         inkscape:connector-curvature="0"
         d="m 537.57075,292.66968 c -4.6148,8.60853 -6.62653,19.11751 -7.57562,28.76425 -0.23257,2.3639 -0.2808,4.74233 -0.4212,7.1135 -0.0954,6.93461 0.0307,13.93542 1.25662,20.7809 1.03399,4.62944 2.59492,0.31552 -8.11143,6.16822 0.008,-0.12668 -0.0203,-0.21012 -0.0378,-0.33215 0,0 8.62341,-4.97873 8.62341,-4.97873 l 0,0 c 0.0708,0.15857 0.0481,0.17461 -3.7e-4,0.35417 -8.59066,5.22132 -8.53227,8.53983 -8.79857,3.59477 -0.24526,-7.22187 -0.0461,-14.45338 0.28192,-21.66918 0.17039,-2.38848 0.26067,-4.78403 0.51117,-7.16545 0.40517,-3.85166 1.55335,-10.97755 2.28991,-14.78456 0.66766,-3.45083 1.5199,-7.32201 2.65409,-10.70116 0.26861,-0.80027 0.66011,-1.55388 0.99016,-2.33083 0,0 8.33767,-4.81375 8.33767,-4.81375 z"
         id="path11620" />
      <path
         inkscape:connector-curvature="0"
         d="m 532.94875,331.31797 c 2.4122,-0.75973 4.88693,-1.21681 7.39518,-1.49789 1.88451,-0.29369 3.77368,-0.16521 5.57782,0.45029 1.22065,0.39204 2.18448,1.01016 3.10187,1.88328 0.86101,0.73216 1.4557,1.64301 2.02589,2.60145 0.68029,1.09536 1.1007,2.35524 1.54179,3.56735 0.33876,0.89423 0.51637,1.84163 0.68497,2.78059 0.0396,0.69378 -0.52342,1.27552 -0.99872,1.72274 -3.02787,2.35411 -6.23155,5.28739 -10.09293,5.64121 -1.2781,0.40764 -2.60103,0.61536 -3.92313,0.81904 -1.11362,0.22641 -2.27904,0.0104 -3.37275,0.30124 -3.79376,1.74941 10.58599,-6.02354 7.89244,-4.60242 -4.85277,2.56033 -6.14317,4.62405 -10.09699,5.37716 -0.78521,0.0994 -1.57776,0.10158 -2.3678,0.12274 0.15117,-0.26494 -0.84246,0.22685 -0.65196,0.11542 2.75659,-1.61242 11.1085,-6.30535 8.29956,-4.78596 -3.01121,1.6288 -5.93212,3.41933 -8.90658,5.11431 -0.10517,0.0599 -0.4355,0.21047 -0.33087,0.14961 2.70932,-1.57605 5.43103,-3.13072 8.14654,-4.69608 -3.09878,2.10539 -6.24544,3.67884 -9.67154,5.62281 -0.11871,0.0674 -0.4965,0.2249 -0.37838,0.15652 9.18103,-5.3152 10.84118,-6.41742 7.85822,-4.4572 -0.8779,0.70946 -1.4545,1.64115 -1.94997,2.63645 0,0 -8.51672,4.91713 -8.51672,4.91713 l 0,0 c 0.5203,-0.96439 1.07702,-1.90039 1.92322,-2.621 4.47426,-2.95329 19.19021,-11.04806 1.45479,-0.82694 -0.25862,0.14904 1.05067,-0.69523 0.74352,-0.49901 29.75557,-17.20375 -19.28573,10.99817 9.89883,-5.65888 0.27582,-0.15743 0.36081,-0.11973 0.66542,-0.1232 0.78294,0.009 1.56866,-0.003 2.34557,-0.1099 0.50235,-0.0881 1.65437,-0.54754 1.21233,-0.28344 -17.04008,10.18043 -4.68484,2.30031 0.96071,-0.47312 1.08232,-0.27409 2.23646,-0.0705 3.33743,-0.28084 1.34991,-0.17921 2.68943,-0.41596 3.98309,-0.85366 4.3017,-0.44932 -11.40103,7.28117 -7.01839,4.23802 0.46385,-0.43429 1.02113,-1.02675 0.96166,-1.70135 -0.072,-0.96929 -0.23945,-1.93107 -0.56495,-2.84988 -0.44651,-1.21043 -0.90139,-2.44721 -1.57718,-3.54692 -0.60568,-0.93256 -1.15502,-1.87094 -2.01737,-2.60637 -0.88961,-0.8657 -1.89194,-1.45876 -3.04822,-1.91425 -1.7694,-0.60777 -3.60473,-0.77739 -5.46215,-0.51707 -2.55669,0.27582 -5.08675,0.73759 -7.52634,1.57361 0,0 8.46209,-4.88559 8.46209,-4.88559 z"
         id="path11622" />
    </symbol>
    <symbol
       id="g">
      <path
         inkscape:connector-curvature="0"
         d="m 534.04746,319.5646 c -3.03822,0.87778 -8.90575,2.56558 4.58483,-2.99581 0.60188,-0.24812 -0.95138,0.89461 -1.36185,1.39992 -1.04911,1.2915 -1.37588,2.09882 -2.1321,3.55552 -0.87679,2.21999 -2.43011,5.38433 -0.4636,7.52845 0.33368,0.36382 0.79203,0.58952 1.18805,0.88428 0.48913,0.17366 0.94956,0.48549 1.46739,0.52096 1.87385,0.12837 4.85569,-1.65431 3.84112,-1.21134 -1.98148,0.86514 -3.76341,2.57346 -5.92448,2.64065 -1.07347,0.0334 1.37993,-1.64846 2.00904,-2.51892 0.59799,-0.82739 1.11193,-1.7124 1.6679,-2.5686 0.86291,-1.85409 3.69635,-5.53037 1.2039,-7.41701 -0.3862,-0.29232 -0.86135,-0.50645 -1.34338,-0.55383 -0.64068,-0.063 -1.27811,0.15556 -1.91716,0.23333 -0.71215,0.28752 -1.42431,0.57504 -2.13646,0.86256 0,0 8.04303,-4.64365 8.04303,-4.64365 l 0,0 c 0.74269,-0.30515 1.48537,-0.61029 2.22806,-0.91544 0.68619,-0.10499 1.36577,-0.35857 2.05857,-0.31497 4.43956,0.27935 0.73429,6.6393 -0.28209,8.21423 -4.57144,6.97129 -4.11467,5.68175 -13.68408,11.64499 -1.72782,1.07671 -3.59176,1.71191 -5.50054,0.80126 -0.41313,-0.28488 -0.8969,-0.48786 -1.2394,-0.85464 -1.98299,-2.12357 -0.18361,-5.48655 0.66021,-7.64196 0.714,-1.36448 1.13236,-2.32164 2.0999,-3.53693 3.26266,-4.09814 8.40086,-6.63188 13.40281,-8.00302 0,0 -8.46967,4.88997 -8.46967,4.88997 z"
         id="path11560" />
      <path
         inkscape:connector-curvature="0"
         d="m 550.11522,315.27272 c -0.85981,4.44147 -0.9444,8.99308 -1.06604,13.50211 -0.3267,6.8423 0.0802,13.69889 -0.40414,20.53122 -0.42184,4.84135 -0.6914,8.99219 -4.37463,12.4862 -5.83963,3.37444 -9.44602,7.63517 -15.56849,4.89598 -1.26145,-0.76662 -2.78785,-1.26796 -3.58776,-2.57854 -0.24506,-0.57908 -0.37667,-1.12077 -0.72924,-1.62646 -0.40053,-0.44832 -0.55886,-0.89655 -0.61159,-1.48824 0.16256,-1.51314 1.31563,-3.11626 2.18165,-4.35508 5.27266,-4.52023 11.89381,-7.69645 17.82454,-11.10407 2.32419,-1.28713 4.66011,-2.55368 7.01891,-3.77638 0.17144,-0.0932 0.45476,-0.23195 0.61395,-0.3049 -16.11898,9.4537 -7.73574,4.24697 0.008,-0.003 3.5678,-2.04523 -10.87745,6.60868 -8.69651,4.96342 3.16352,-2.21438 7.04205,-4.09667 10.13123,-5.89051 2.62507,-1.52435 -5.26794,3.01786 -7.90766,4.51669 -0.21397,0.12149 0.42007,-0.25634 0.63011,-0.38451 3.5198,-2.03687 6.98208,-4.1821 10.58186,-6.07547 0.0556,-0.0336 0.14039,-0.0699 0.19463,-0.0952 -0.004,0.003 -0.008,0.005 -0.0125,0.008 0,0 -8.65898,4.99926 -8.65898,4.99926 l 0,0 c 0.004,-0.002 0.008,-0.005 0.0118,-0.007 -0.0367,0.0171 -0.11808,0.0459 -0.15614,0.073 -4.8195,2.49585 10.82091,-6.25011 6.50785,-3.79129 -5.54517,3.38698 -18.41798,10.71847 -1.75739,1.03929 0.93751,-0.54466 -2.03821,1.10898 -0.98147,0.65276 -1.56115,1.27086 -5.01774,3.41118 -8.50802,4.96962 -4.15764,2.24215 26.14763,-15.01543 -0.0454,0.0247 -0.11149,0.0453 -0.36869,0.16551 -0.49007,0.23338 -2.19052,1.11481 -4.35022,2.28934 -6.50153,3.47767 13.03316,-7.58724 1.02701,-0.97149 -1.4488,1.64954 -0.81854,1.21162 -1.89188,2.74706 -1.97421,4.23531 0.0895,0.56347 0.24744,1.0398 0.63239,1.47623 0.41107,0.49715 0.40832,1.06203 0.66655,1.66264 0.77113,1.30547 2.17253,1.89669 3.41589,2.67778 1.11359,0.51498 2.16379,0.88125 3.40716,0.93365 0.42922,0.0181 0.86329,0.0284 1.28836,-0.0338 0.41538,-0.0608 1.56482,-0.56434 1.2147,-0.3327 -2.24112,1.48273 -4.62139,2.74356 -6.93208,4.11535 3.83327,-3.56263 4.28496,-7.74403 4.83061,-12.74947 0.50146,-6.81024 0.20332,-13.65362 0.31262,-20.47838 0.0823,-4.38586 0.0518,-8.78874 0.46972,-13.15782 0,0 8.46967,-4.88997 8.46967,-4.88997 z"
         id="path11562" />
    </symbol>
  </defs>
  <metadata
     id="metadata13821">
    <rdf:RDF>
      <cc:Work>
        <dc:format>image/svg+xml</dc:format>
        <dc:type
           rdf:resource="http://purl.org/dc/dcmitype/StillImage" />
        <dc:title />
      </cc:Work>
    </rdf:RDF>
  </metadata>
  <g
     inkscape:groupmode="layer"
     id="layer0"
     inkscape:label="Background Fill"
     sodipodi:insensitive="true">
    <rect
       style="fill:#3c4747"
       width="1050"
       height="800"
       x="-10"
       y="-22"
       id="rect13824" />
  </g>
  <g
     id="layer1"
     inkscape:groupmode="layer"
     inkscape:label="Layer 1">
    <text
       xml:space="preserve"
       style="font-size:42.66666794px;line-height:125%;font-family:'KG Miss Speechy IPA';text-align:start;letter-spacing:0px;word-spacing:0px;text-anchor:start;fill:#f5f3f2;stroke:none;stroke-width:1px;stroke-linecap:butt;stroke-linejoin:miter;stroke-opacity:1"
       x="27.415985"
       y="63"
       id="text18727"
       sodipodi:linespacing="125%"><tspan
         sodipodi:role="line"
         x="27.415985"
         y="63"
         id="tspan18733"
         style="font-style:normal;font-variant:normal;font-weight:normal;font-stretch:normal;font-size:42.66666794px;font-family:'Sansita One';-inkscape-font-specification:'Sansita One';text-align:start;text-anchor:start">Question</tspan></text>
    <text
       sodipodi:linespacing="125%"
       id="text9831"
       y="65"
       x="235.07159"
       style="font-size:32px;line-height:125%;font-family:'KG Miss Speechy IPA';text-align:start;letter-spacing:0px;word-spacing:0px;text-anchor:start;fill:#cccccc;stroke:none;stroke-width:1px;stroke-linecap:butt;stroke-linejoin:miter;stroke-opacity:1"
       xml:space="preserve"><tspan
         style="font-size:32px;text-align:start;text-anchor:start;fill:#cccccc;stroke:none"
         y="65"
         x="235.07159"
         sodipodi:role="line"
         id="tspan9019">Can we avoid the schlep?! </tspan></text>
    <text
       xml:space="preserve"
       style="font-size:64px;line-height:125%;font-family:'KG Miss Speechy IPA';letter-spacing:0px;word-spacing:0px;fill:#90969b;stroke:#000000;stroke-width:1px;stroke-linecap:butt;stroke-linejoin:miter;stroke-opacity:1"
       x="810"
       y="288"
       id="text9648"
       sodipodi:linespacing="125%"><tspan
         sodipodi:role="line"
         x="810"
         y="288"
         id="tspan9656" /></text>
    <text
       sodipodi:linespacing="125%"
       id="text8969"
       y="121.83755"
       x="27.489819"
       style="font-size:42.78157425px;line-height:125%;font-family:'KG Miss Speechy IPA';text-align:start;letter-spacing:0px;word-spacing:0px;text-anchor:start;fill:#f5f3f2;stroke:none;stroke-width:1.00269306px;stroke-linecap:butt;stroke-linejoin:miter;stroke-opacity:1"
       xml:space="preserve"
       transform="scale(0.99731414,1.0026931)"><tspan
         style="font-style:normal;font-variant:normal;font-weight:normal;font-stretch:normal;font-size:42.78157425px;font-family:'Sansita One';-inkscape-font-specification:'Sansita One';text-align:start;text-anchor:start;stroke-width:1.00269306px"
         id="tspan8971"
         y="121.83755"
         x="27.489819"
         sodipodi:role="line">Idea</tspan></text>
    <text
       xml:space="preserve"
       style="font-size:32.08617783px;line-height:125%;font-family:'KG Miss Speechy IPA';text-align:start;letter-spacing:0px;word-spacing:0px;text-anchor:start;fill:#cccccc;stroke:none;stroke-width:1.00269306px;stroke-linecap:butt;stroke-linejoin:miter;stroke-opacity:1"
       x="28.147186"
       y="169.07169"
       id="text8973"
       sodipodi:linespacing="125%"
       transform="scale(0.99731414,1.0026931)"><tspan
         id="tspan8975"
         sodipodi:role="line"
         x="28.147186"
         y="169.07169"
         style="font-size:32.08617783px;text-align:start;text-anchor:start;fill:#cccccc;stroke:none;stroke-width:1.00269306px">Make combinatorial structure explicit using algebra:</tspan><tspan
         sodipodi:role="line"
         x="28.147186"
         y="209.17941"
         style="font-size:32.08617783px;text-align:start;text-anchor:start;fill:#cccccc;stroke:none;stroke-width:1.00269306px"
         id="tspan8977">study combination process instead of enumerating</tspan><tspan
         sodipodi:role="line"
         x="28.147186"
         y="249.28714"
         style="font-size:32.08617783px;text-align:start;text-anchor:start;fill:#cccccc;stroke:none;stroke-width:1.00269306px"
         id="tspan8979">combinations; focus on maps rather than objects... </tspan></text>
    <g
       id="g15203"
       transform="matrix(0.93048799,0,0,0.93048799,47.636866,-78.300929)">
      <ellipse
         style="opacity:1;fill:#20b6ea;fill-opacity:1;stroke:none;stroke-width:0.26633418px;stroke-linecap:butt;stroke-linejoin:miter;stroke-miterlimit:4;stroke-dasharray:none;stroke-dashoffset:0;stroke-opacity:1"
         id="ellipse14398"
         cx="235.94989"
         cy="479.18079"
         rx="6.525187"
         ry="6.6583543" />
      <ellipse
         ry="6.6583543"
         rx="6.525187"
         cy="479.18079"
         cx="262.58331"
         id="ellipse14400"
         style="opacity:1;fill:#20b6ea;fill-opacity:1;stroke:none;stroke-width:0.26633418px;stroke-linecap:butt;stroke-linejoin:miter;stroke-miterlimit:4;stroke-dasharray:none;stroke-dashoffset:0;stroke-opacity:1" />
      <ellipse
         ry="6.6583543"
         rx="6.525187"
         cy="505.81421"
         cx="235.94989"
         id="ellipse14402"
         style="opacity:1;fill:#20b6ea;fill-opacity:1;stroke:none;stroke-width:0.26633418px;stroke-linecap:butt;stroke-linejoin:miter;stroke-miterlimit:4;stroke-dasharray:none;stroke-dashoffset:0;stroke-opacity:1" />
      <ellipse
         style="opacity:1;fill:#20b6ea;fill-opacity:1;stroke:none;stroke-width:0.26633418px;stroke-linecap:butt;stroke-linejoin:miter;stroke-miterlimit:4;stroke-dasharray:none;stroke-dashoffset:0;stroke-opacity:1"
         id="ellipse14404"
         cx="262.58331"
         cy="505.81421"
         rx="6.525187"
         ry="6.6583543" />
      <ellipse
         ry="6.6583543"
         rx="6.525187"
         cy="534.22321"
         cx="235.94989"
         id="ellipse14406"
         style="opacity:1;fill:#20b6ea;fill-opacity:1;stroke:none;stroke-width:0.26633418px;stroke-linecap:butt;stroke-linejoin:miter;stroke-miterlimit:4;stroke-dasharray:none;stroke-dashoffset:0;stroke-opacity:1" />
      <ellipse
         style="opacity:1;fill:#20b6ea;fill-opacity:1;stroke:none;stroke-width:0.26633418px;stroke-linecap:butt;stroke-linejoin:miter;stroke-miterlimit:4;stroke-dasharray:none;stroke-dashoffset:0;stroke-opacity:1"
         id="ellipse14408"
         cx="262.58331"
         cy="534.22321"
         rx="6.525187"
         ry="6.6583543" />
      <ellipse
         style="opacity:1;fill:#20b6ea;fill-opacity:1;stroke:none;stroke-width:0.26633418px;stroke-linecap:butt;stroke-linejoin:miter;stroke-miterlimit:4;stroke-dasharray:none;stroke-dashoffset:0;stroke-opacity:1"
         id="ellipse14410"
         cx="235.94989"
         cy="560.85663"
         rx="6.525187"
         ry="6.6583543" />
      <ellipse
         ry="6.6583543"
         rx="6.525187"
         cy="560.85663"
         cx="262.58331"
         id="ellipse14412"
         style="opacity:1;fill:#20b6ea;fill-opacity:1;stroke:none;stroke-width:0.26633418px;stroke-linecap:butt;stroke-linejoin:miter;stroke-miterlimit:4;stroke-dasharray:none;stroke-dashoffset:0;stroke-opacity:1" />
      <rect
         style="fill:none;fill-rule:evenodd;stroke:#cccccc;stroke-width:0.88778055;stroke-linecap:butt;stroke-linejoin:miter;stroke-opacity:1"
         id="rect14414"
         width="93.216957"
         height="119.85037"
         x="203.41272"
         y="459.20575"
         ry="13.316709" />
      <ellipse
         ry="6.6583543"
         rx="6.525187"
         cy="619.18079"
         cx="415.75037"
         id="ellipse14428"
         style="opacity:1;fill:#20b6ea;fill-opacity:1;stroke:none;stroke-width:0.26633418px;stroke-linecap:butt;stroke-linejoin:miter;stroke-miterlimit:4;stroke-dasharray:none;stroke-dashoffset:0;stroke-opacity:1" />
      <ellipse
         style="opacity:1;fill:#20b6ea;fill-opacity:1;stroke:none;stroke-width:0.26633418px;stroke-linecap:butt;stroke-linejoin:miter;stroke-miterlimit:4;stroke-dasharray:none;stroke-dashoffset:0;stroke-opacity:1"
         id="ellipse14430"
         cx="442.38379"
         cy="619.18079"
         rx="6.525187"
         ry="6.6583543" />
      <ellipse
         style="opacity:1;fill:#20b6ea;fill-opacity:1;stroke:none;stroke-width:0.26633418px;stroke-linecap:butt;stroke-linejoin:miter;stroke-miterlimit:4;stroke-dasharray:none;stroke-dashoffset:0;stroke-opacity:1"
         id="ellipse14432"
         cx="415.75037"
         cy="645.81421"
         rx="6.525187"
         ry="6.6583543" />
      <ellipse
         ry="6.6583543"
         rx="6.525187"
         cy="645.81421"
         cx="442.38379"
         id="ellipse14434"
         style="opacity:1;fill:#20b6ea;fill-opacity:1;stroke:none;stroke-width:0.26633418px;stroke-linecap:butt;stroke-linejoin:miter;stroke-miterlimit:4;stroke-dasharray:none;stroke-dashoffset:0;stroke-opacity:1" />
      <ellipse
         style="opacity:1;fill:#20b6ea;fill-opacity:1;stroke:none;stroke-width:0.26633418px;stroke-linecap:butt;stroke-linejoin:miter;stroke-miterlimit:4;stroke-dasharray:none;stroke-dashoffset:0;stroke-opacity:1"
         id="ellipse14436"
         cx="415.75037"
         cy="674.22321"
         rx="6.525187"
         ry="6.6583543" />
      <ellipse
         ry="6.6583543"
         rx="6.525187"
         cy="674.22321"
         cx="442.38379"
         id="ellipse14438"
         style="opacity:1;fill:#20b6ea;fill-opacity:1;stroke:none;stroke-width:0.26633418px;stroke-linecap:butt;stroke-linejoin:miter;stroke-miterlimit:4;stroke-dasharray:none;stroke-dashoffset:0;stroke-opacity:1" />
      <ellipse
         ry="6.6583543"
         rx="6.525187"
         cy="700.85663"
         cx="415.75037"
         id="ellipse14440"
         style="opacity:1;fill:#20b6ea;fill-opacity:1;stroke:none;stroke-width:0.26633418px;stroke-linecap:butt;stroke-linejoin:miter;stroke-miterlimit:4;stroke-dasharray:none;stroke-dashoffset:0;stroke-opacity:1" />
      <ellipse
         style="opacity:1;fill:#20b6ea;fill-opacity:1;stroke:none;stroke-width:0.26633418px;stroke-linecap:butt;stroke-linejoin:miter;stroke-miterlimit:4;stroke-dasharray:none;stroke-dashoffset:0;stroke-opacity:1"
         id="ellipse14442"
         cx="442.38379"
         cy="700.85663"
         rx="6.525187"
         ry="6.6583543" />
      <rect
         ry="13.316709"
         y="599.20575"
         x="383.2132"
         height="119.85037"
         width="93.216957"
         id="rect14444"
         style="fill:none;fill-rule:evenodd;stroke:#cccccc;stroke-width:0.88778055;stroke-linecap:butt;stroke-linejoin:miter;stroke-opacity:1" />
      <ellipse
         style="opacity:1;fill:#f37962;fill-opacity:1;stroke:none;stroke-width:0.26633418px;stroke-linecap:butt;stroke-linejoin:miter;stroke-miterlimit:4;stroke-dasharray:none;stroke-dashoffset:0;stroke-opacity:1"
         id="ellipse14452"
         cx="408.64813"
         cy="619.18079"
         rx="6.525187"
         ry="6.6583543" />
      <ellipse
         ry="6.6583543"
         rx="6.525187"
         cy="645.81421"
         cx="408.64813"
         id="ellipse14454"
         style="opacity:1;fill:#f37962;fill-opacity:1;stroke:none;stroke-width:0.26633418px;stroke-linecap:butt;stroke-linejoin:miter;stroke-miterlimit:4;stroke-dasharray:none;stroke-dashoffset:0;stroke-opacity:1" />
      <ellipse
         ry="6.6583543"
         rx="6.525187"
         cy="674.22321"
         cx="408.64813"
         id="ellipse14456"
         style="opacity:1;fill:#f37962;fill-opacity:1;stroke:none;stroke-width:0.26633418px;stroke-linecap:butt;stroke-linejoin:miter;stroke-miterlimit:4;stroke-dasharray:none;stroke-dashoffset:0;stroke-opacity:1" />
      <ellipse
         style="opacity:1;fill:#f37962;fill-opacity:1;stroke:none;stroke-width:0.26633418px;stroke-linecap:butt;stroke-linejoin:miter;stroke-miterlimit:4;stroke-dasharray:none;stroke-dashoffset:0;stroke-opacity:1"
         id="ellipse14458"
         cx="408.64813"
         cy="700.85663"
         rx="6.525187"
         ry="6.6583543" />
      <ellipse
         ry="6.6583543"
         rx="6.525187"
         cy="619.18079"
         cx="449.48608"
         id="ellipse14460"
         style="opacity:1;fill:#f37962;fill-opacity:1;stroke:none;stroke-width:0.26633418px;stroke-linecap:butt;stroke-linejoin:miter;stroke-miterlimit:4;stroke-dasharray:none;stroke-dashoffset:0;stroke-opacity:1" />
      <ellipse
         style="opacity:1;fill:#f37962;fill-opacity:1;stroke:none;stroke-width:0.26633418px;stroke-linecap:butt;stroke-linejoin:miter;stroke-miterlimit:4;stroke-dasharray:none;stroke-dashoffset:0;stroke-opacity:1"
         id="ellipse14462"
         cx="449.48608"
         cy="645.81421"
         rx="6.525187"
         ry="6.6583543" />
      <ellipse
         style="opacity:1;fill:#f37962;fill-opacity:1;stroke:none;stroke-width:0.26633418px;stroke-linecap:butt;stroke-linejoin:miter;stroke-miterlimit:4;stroke-dasharray:none;stroke-dashoffset:0;stroke-opacity:1"
         id="ellipse14464"
         cx="449.48608"
         cy="674.22321"
         rx="6.525187"
         ry="6.6583543" />
      <ellipse
         ry="6.6583543"
         rx="6.525187"
         cy="700.85663"
         cx="449.48608"
         id="ellipse14466"
         style="opacity:1;fill:#f37962;fill-opacity:1;stroke:none;stroke-width:0.26633418px;stroke-linecap:butt;stroke-linejoin:miter;stroke-miterlimit:4;stroke-dasharray:none;stroke-dashoffset:0;stroke-opacity:1" />
      <ellipse
         style="opacity:1;fill:#20b6ea;fill-opacity:1;stroke:none;stroke-width:0.26633418px;stroke-linecap:butt;stroke-linejoin:miter;stroke-miterlimit:4;stroke-dasharray:none;stroke-dashoffset:0;stroke-opacity:1"
         id="ellipse14468"
         cx="595.5509"
         cy="479.18079"
         rx="6.525187"
         ry="6.6583543" />
      <ellipse
         ry="6.6583543"
         rx="6.525187"
         cy="479.18079"
         cx="622.18433"
         id="ellipse14470"
         style="opacity:1;fill:#20b6ea;fill-opacity:1;stroke:none;stroke-width:0.26633418px;stroke-linecap:butt;stroke-linejoin:miter;stroke-miterlimit:4;stroke-dasharray:none;stroke-dashoffset:0;stroke-opacity:1" />
      <ellipse
         ry="6.6583543"
         rx="6.525187"
         cy="505.81421"
         cx="595.5509"
         id="ellipse14472"
         style="opacity:1;fill:#20b6ea;fill-opacity:1;stroke:none;stroke-width:0.26633418px;stroke-linecap:butt;stroke-linejoin:miter;stroke-miterlimit:4;stroke-dasharray:none;stroke-dashoffset:0;stroke-opacity:1" />
      <ellipse
         style="opacity:1;fill:#20b6ea;fill-opacity:1;stroke:none;stroke-width:0.26633418px;stroke-linecap:butt;stroke-linejoin:miter;stroke-miterlimit:4;stroke-dasharray:none;stroke-dashoffset:0;stroke-opacity:1"
         id="ellipse14474"
         cx="622.18433"
         cy="505.81421"
         rx="6.525187"
         ry="6.6583543" />
      <ellipse
         ry="6.6583543"
         rx="6.525187"
         cy="534.22321"
         cx="595.5509"
         id="ellipse14476"
         style="opacity:1;fill:#20b6ea;fill-opacity:1;stroke:none;stroke-width:0.26633418px;stroke-linecap:butt;stroke-linejoin:miter;stroke-miterlimit:4;stroke-dasharray:none;stroke-dashoffset:0;stroke-opacity:1" />
      <ellipse
         style="opacity:1;fill:#20b6ea;fill-opacity:1;stroke:none;stroke-width:0.26633418px;stroke-linecap:butt;stroke-linejoin:miter;stroke-miterlimit:4;stroke-dasharray:none;stroke-dashoffset:0;stroke-opacity:1"
         id="ellipse14478"
         cx="622.18433"
         cy="534.22321"
         rx="6.525187"
         ry="6.6583543" />
      <ellipse
         style="opacity:1;fill:#20b6ea;fill-opacity:1;stroke:none;stroke-width:0.26633418px;stroke-linecap:butt;stroke-linejoin:miter;stroke-miterlimit:4;stroke-dasharray:none;stroke-dashoffset:0;stroke-opacity:1"
         id="ellipse14480"
         cx="595.5509"
         cy="560.85663"
         rx="6.525187"
         ry="6.6583543" />
      <ellipse
         ry="6.6583543"
         rx="6.525187"
         cy="560.85663"
         cx="622.18433"
         id="ellipse14482"
         style="opacity:1;fill:#20b6ea;fill-opacity:1;stroke:none;stroke-width:0.26633418px;stroke-linecap:butt;stroke-linejoin:miter;stroke-miterlimit:4;stroke-dasharray:none;stroke-dashoffset:0;stroke-opacity:1" />
      <rect
         style="fill:none;fill-rule:evenodd;stroke:#cccccc;stroke-width:0.88778055;stroke-linecap:butt;stroke-linejoin:miter;stroke-opacity:1"
         id="rect14484"
         width="93.216957"
         height="119.85037"
         x="563.01373"
         y="459.20575"
         ry="13.316709" />
      <ellipse
         ry="6.6583543"
         rx="6.525187"
         cy="479.18079"
         cx="588.44867"
         id="ellipse14492"
         style="opacity:1;fill:#f37962;fill-opacity:1;stroke:none;stroke-width:0.26633418px;stroke-linecap:butt;stroke-linejoin:miter;stroke-miterlimit:4;stroke-dasharray:none;stroke-dashoffset:0;stroke-opacity:1" />
      <ellipse
         style="opacity:1;fill:#f37962;fill-opacity:1;stroke:none;stroke-width:0.26633418px;stroke-linecap:butt;stroke-linejoin:miter;stroke-miterlimit:4;stroke-dasharray:none;stroke-dashoffset:0;stroke-opacity:1"
         id="ellipse14494"
         cx="588.44867"
         cy="505.81421"
         rx="6.525187"
         ry="6.6583543" />
      <ellipse
         style="opacity:1;fill:#f37962;fill-opacity:1;stroke:none;stroke-width:0.26633418px;stroke-linecap:butt;stroke-linejoin:miter;stroke-miterlimit:4;stroke-dasharray:none;stroke-dashoffset:0;stroke-opacity:1"
         id="ellipse14496"
         cx="588.44867"
         cy="534.22321"
         rx="6.525187"
         ry="6.6583543" />
      <ellipse
         ry="6.6583543"
         rx="6.525187"
         cy="560.85663"
         cx="588.44867"
         id="ellipse14498"
         style="opacity:1;fill:#f37962;fill-opacity:1;stroke:none;stroke-width:0.26633418px;stroke-linecap:butt;stroke-linejoin:miter;stroke-miterlimit:4;stroke-dasharray:none;stroke-dashoffset:0;stroke-opacity:1" />
      <ellipse
         style="opacity:1;fill:#f37962;fill-opacity:1;stroke:none;stroke-width:0.26633418px;stroke-linecap:butt;stroke-linejoin:miter;stroke-miterlimit:4;stroke-dasharray:none;stroke-dashoffset:0;stroke-opacity:1"
         id="ellipse14500"
         cx="629.28656"
         cy="479.18079"
         rx="6.525187"
         ry="6.6583543" />
      <ellipse
         ry="6.6583543"
         rx="6.525187"
         cy="505.81421"
         cx="629.28656"
         id="ellipse14502"
         style="opacity:1;fill:#f37962;fill-opacity:1;stroke:none;stroke-width:0.26633418px;stroke-linecap:butt;stroke-linejoin:miter;stroke-miterlimit:4;stroke-dasharray:none;stroke-dashoffset:0;stroke-opacity:1" />
      <ellipse
         ry="6.6583543"
         rx="6.525187"
         cy="534.22321"
         cx="629.28656"
         id="ellipse14504"
         style="opacity:1;fill:#f37962;fill-opacity:1;stroke:none;stroke-width:0.26633418px;stroke-linecap:butt;stroke-linejoin:miter;stroke-miterlimit:4;stroke-dasharray:none;stroke-dashoffset:0;stroke-opacity:1" />
      <ellipse
         style="opacity:1;fill:#f37962;fill-opacity:1;stroke:none;stroke-width:0.26633418px;stroke-linecap:butt;stroke-linejoin:miter;stroke-miterlimit:4;stroke-dasharray:none;stroke-dashoffset:0;stroke-opacity:1"
         id="ellipse14506"
         cx="629.28656"
         cy="560.85663"
         rx="6.525187"
         ry="6.6583543" />
      <ellipse
         style="opacity:1;fill:#89be5e;fill-opacity:1;stroke:none;stroke-width:0.26633418px;stroke-linecap:butt;stroke-linejoin:miter;stroke-miterlimit:4;stroke-dasharray:none;stroke-dashoffset:0;stroke-opacity:1"
         id="ellipse14508"
         cx="591.99976"
         cy="472.07855"
         rx="6.525187"
         ry="6.6583543" />
      <ellipse
         ry="6.6583543"
         rx="6.525187"
         cy="498.71198"
         cx="591.99976"
         id="ellipse14510"
         style="opacity:1;fill:#89be5e;fill-opacity:1;stroke:none;stroke-width:0.26633418px;stroke-linecap:butt;stroke-linejoin:miter;stroke-miterlimit:4;stroke-dasharray:none;stroke-dashoffset:0;stroke-opacity:1" />
      <ellipse
         ry="6.6583543"
         rx="6.525187"
         cy="527.12097"
         cx="591.99976"
         id="ellipse14512"
         style="opacity:1;fill:#89be5e;fill-opacity:1;stroke:none;stroke-width:0.26633418px;stroke-linecap:butt;stroke-linejoin:miter;stroke-miterlimit:4;stroke-dasharray:none;stroke-dashoffset:0;stroke-opacity:1" />
      <ellipse
         style="opacity:1;fill:#89be5e;fill-opacity:1;stroke:none;stroke-width:0.26633418px;stroke-linecap:butt;stroke-linejoin:miter;stroke-miterlimit:4;stroke-dasharray:none;stroke-dashoffset:0;stroke-opacity:1"
         id="ellipse14514"
         cx="591.99976"
         cy="553.75439"
         rx="6.525187"
         ry="6.6583543" />
      <ellipse
         ry="6.6583543"
         rx="6.525187"
         cy="472.07855"
         cx="623.9599"
         id="ellipse14516"
         style="opacity:1;fill:#89be5e;fill-opacity:1;stroke:none;stroke-width:0.26633418px;stroke-linecap:butt;stroke-linejoin:miter;stroke-miterlimit:4;stroke-dasharray:none;stroke-dashoffset:0;stroke-opacity:1" />
      <ellipse
         style="opacity:1;fill:#89be5e;fill-opacity:1;stroke:none;stroke-width:0.26633418px;stroke-linecap:butt;stroke-linejoin:miter;stroke-miterlimit:4;stroke-dasharray:none;stroke-dashoffset:0;stroke-opacity:1"
         id="ellipse14518"
         cx="623.9599"
         cy="498.71198"
         rx="6.525187"
         ry="6.6583543" />
      <ellipse
         style="opacity:1;fill:#89be5e;fill-opacity:1;stroke:none;stroke-width:0.26633418px;stroke-linecap:butt;stroke-linejoin:miter;stroke-miterlimit:4;stroke-dasharray:none;stroke-dashoffset:0;stroke-opacity:1"
         id="ellipse14520"
         cx="623.9599"
         cy="527.12097"
         rx="6.525187"
         ry="6.6583543" />
      <ellipse
         ry="6.6583543"
         rx="6.525187"
         cy="553.75439"
         cx="623.9599"
         id="ellipse14522"
         style="opacity:1;fill:#89be5e;fill-opacity:1;stroke:none;stroke-width:0.26633418px;stroke-linecap:butt;stroke-linejoin:miter;stroke-miterlimit:4;stroke-dasharray:none;stroke-dashoffset:0;stroke-opacity:1" />
      <ellipse
         style="opacity:1;fill:#f37962;fill-opacity:1;stroke:none;stroke-width:0.26633418px;stroke-linecap:butt;stroke-linejoin:miter;stroke-miterlimit:4;stroke-dasharray:none;stroke-dashoffset:0;stroke-opacity:1"
         id="ellipse14682"
         cx="422.44867"
         cy="457.18079"
         rx="6.525187"
         ry="6.6583543" />
      <ellipse
         ry="6.6583543"
         rx="6.525187"
         cy="450.07855"
         cx="425.99976"
         id="ellipse14684"
         style="opacity:1;fill:#89be5e;fill-opacity:1;stroke:none;stroke-width:0.26633418px;stroke-linecap:butt;stroke-linejoin:miter;stroke-miterlimit:4;stroke-dasharray:none;stroke-dashoffset:0;stroke-opacity:1" />
      <ellipse
         style="opacity:1;fill:#f37962;fill-opacity:1;stroke:none;stroke-width:0.26633418px;stroke-linecap:butt;stroke-linejoin:miter;stroke-miterlimit:4;stroke-dasharray:none;stroke-dashoffset:0;stroke-opacity:1"
         id="ellipse14686"
         cx="298.58331"
         cy="634.85663"
         rx="6.525187"
         ry="6.6583543" />
      <ellipse
         style="opacity:1;fill:#89be5e;fill-opacity:1;stroke:none;stroke-width:0.26633418px;stroke-linecap:butt;stroke-linejoin:miter;stroke-miterlimit:4;stroke-dasharray:none;stroke-dashoffset:0;stroke-opacity:1"
         id="ellipse14688"
         cx="551.99976"
         cy="640.07855"
         rx="6.525187"
         ry="6.6583543" />
      <path
         inkscape:connector-curvature="0"
         d="m 324.10955,471.51638 c 27.47719,1.2143 54.9571,2.10322 82.45781,2.56686 37.09191,0.41041 74.18119,-0.24845 111.26311,-1.03654 5.99925,-0.14896 11.99992,-0.2644 17.99709,-0.48802 0.91437,-0.0341 2.06554,-0.009 3.00747,-0.185 -2.53784,3.66394 -1.67166,3.11672 -3.90645,3.23902 -0.17683,0.0401 -0.37705,0.005 -0.57596,0.005 -0.3568,7e-4 -0.71359,9e-5 -1.07038,5e-5 -2.35539,-0.62934 -4.5228,-1.8019 -6.72337,-2.82684 -1.6888,-0.82483 -3.44303,-1.51398 -5.22969,-2.09539 0.0899,0.0165 -0.58201,-0.12506 -0.45806,-0.24626 3.3344,-3.26054 1.91514,-3.28394 3.98132,-2.28287 0.96921,0.46959 1.42776,0.6353 2.47387,1.06362 3.4102,1.54049 7.09352,2.34503 10.55443,3.73072 0.88348,0.4433 1.87439,0.82137 2.58097,1.54337 0.95175,1.16723 0.0357,0.74942 -3.02035,2.24774 -0.0696,0.0341 -0.0503,-0.36976 -0.0796,-1.05362 0.1242,-0.28623 -0.6708,-0.0928 -1.13581,-0.0981 -3.20386,-0.0907 -5.70014,2.06546 -8.00306,4.00372 -4.83226,4.45559 -4.49415,4.26 -6.35763,6.22982 -0.46485,0.28246 -0.73066,1.03446 -1.21469,1.26064 -3.47475,1.54275 -3.68212,2.54815 -2.98449,0.75983 0,0 3.44427,-2.03395 3.44427,-2.03395 l 0,0 c -1.1936,1.77768 -0.18783,0.40524 -3.94087,3.2444 0.16576,-0.55409 0.84999,-0.91129 1.14314,-1.39278 3.76133,-4.03098 7.67862,-7.93059 11.7996,-11.59364 2.50127,-1.95908 5.13831,-3.91542 8.48452,-3.69974 0.63184,0.0306 1.96645,0.0426 1.99102,0.95486 -0.003,2.29704 0.25884,0.61468 -3.04991,3.92794 -0.25413,0.25448 0.0823,0.0591 0.0857,0.0616 -0.67026,-0.59402 -1.52617,-0.93754 -2.32896,-1.31051 -3.48618,-1.33597 -7.14618,-2.21039 -10.56566,-3.74027 -0.20041,-0.0836 -3.41019,-1.43845 -3.36741,-1.54344 1.00042,-2.455 1.44749,-3.46317 2.52101,-3.11205 1.8081,0.6102 3.58514,1.31658 5.30019,2.15525 2.08821,0.97184 4.17347,2.17451 6.45063,2.60991 0.35569,-5e-5 0.71138,1.7e-4 1.06707,-0.002 0.19277,-0.002 0.37068,-0.0289 0.55829,-0.0182 2.05737,0.014 1.88049,-0.34942 -0.69616,3.30399 -7.01168,0.451 -14.05258,0.33484 -21.06949,0.62724 -37.09018,0.78527 -74.18782,1.43874 -111.28785,1.01859 -27.5102,-0.47116 -55.00079,-1.35569 -82.48703,-2.58845 0,0 2.39135,-3.20647 2.39135,-3.20647 z"
         id="path14692"
         style="fill:#cccccc;stroke:none;stroke-width:1px;stroke-linecap:butt;stroke-linejoin:miter;stroke-opacity:1" />
      <path
         inkscape:connector-curvature="0"
         d="m 498.66377,671.6609 c 9.70147,0.90558 19.37561,-0.99479 28.548,-4.10389 3.11092,-1.05449 6.1339,-2.35251 9.20085,-3.52877 16.14765,-6.64194 29.81981,-16.29406 41.66181,-29.11113 1.51995,-1.6451 2.81905,-3.48131 4.22857,-5.22196 7.20705,-8.72613 13.75648,-18.03982 19.07803,-28.03946 0.74424,-0.6622 0.67008,-2.00197 1.25922,-2.75824 0.10138,-0.13014 0.24725,0.21972 0.35623,0.34357 1.09125,1.05937 -0.71632,1.22355 2.71538,-2.16925 0.0378,-0.0374 -0.0634,0.0856 -0.0918,0.13058 -0.23963,0.38026 0.009,0.0666 -0.39652,0.51012 -3.35935,3.62992 -7.16066,6.78099 -10.997,9.88416 -3.26471,2.63876 -6.85652,4.82144 -10.66513,6.57296 -2.91577,1.27887 -0.83392,-0.9568 1.37909,-3.377 0.25262,-0.27627 2.69841,-1.6155 2.7497,-1.64449 4.89787,-3.01003 9.64852,-6.32122 13.73661,-10.37899 3.59476,-3.57247 -0.17066,0.18144 -0.25924,0.26895 -0.26147,0.2583 0.51817,-0.52139 0.77644,-0.7829 0.37761,-0.38235 0.75245,-0.76735 1.12587,-1.15378 0.2793,-0.60717 1.056,0.46177 0.54212,0.48732 -0.10421,10e-4 -0.20841,0.003 -0.31262,0.005 -0.54418,0.008 -0.88123,0.13688 -1.29345,0.52757 -0.15962,0.15129 -0.59116,0.64942 -0.42746,0.50257 0.76804,-0.68902 1.49599,-1.42145 2.24398,-2.13218 -1.41293,3.1464 -0.6946,6.66586 0.0983,9.87581 0.63762,1.56791 0.72451,3.49437 1.80103,4.85049 0.4419,0.46622 0.9227,0.90652 1.47157,1.2446 0.0193,0.0146 0.0485,0.002 0.0727,0.003 0,0 -2.51357,3.11159 -2.51357,3.11159 l 0,0 c -0.0875,-0.0576 -0.17545,-0.11426 -0.26493,-0.16885 -0.60569,-0.40559 -1.15747,-0.88788 -1.65306,-1.42225 -1.18644,-1.44524 -1.39595,-3.38793 -2.02927,-5.11012 -0.89114,-3.43851 -1.52966,-6.96175 -0.48598,-10.45386 1.9913,-2.13749 2.82186,-4.04696 5.59407,-4.1048 0.54121,-0.0573 1.24824,0.56968 0.71123,0.95008 -2.26549,2.42693 -4.67345,4.7179 -7.02473,7.06041 -4.19932,3.97609 -8.95569,7.31229 -13.90901,10.28506 -0.53372,0.31599 -1.07404,0.6211 -1.60118,0.94797 -0.37269,0.23111 -1.2304,1.14337 -1.0975,0.72546 0.3421,-1.07576 1.27634,-1.87046 1.78249,-2.87948 0.0828,-0.16508 -0.78607,-0.0422 0.84408,-0.66731 3.74602,-1.8106 7.27646,-4.02491 10.49667,-6.66852 1.92351,-1.57226 3.837,-3.14972 5.69081,-4.80421 0.38093,-0.33999 0.76117,-0.68094 1.13246,-1.03143 0.2934,-0.27696 1.14489,-1.13745 0.8612,-0.85056 -0.71003,0.71805 -1.42682,1.42937 -2.14023,2.14405 1.23235,-1.12405 2.19073,-4.27078 3.85353,-3.39663 1.09083,1.03154 -0.29113,2.34002 -0.68374,3.4967 -5.24123,10.07428 -11.81533,19.41637 -18.98777,28.20148 -6.34451,7.04839 -10.42189,12.00339 -17.24934,18.20481 -10.07597,9.15208 -21.69487,16.25836 -34.28948,21.39167 -3.08598,1.16422 -6.12782,2.4529 -9.25792,3.49267 -9.27051,3.07953 -19.06151,4.92767 -28.83778,3.89836 0,0 2.45673,-3.15666 2.45673,-3.15666 z"
         id="path14694"
         style="fill:#cccccc;stroke:none;stroke-width:1px;stroke-linecap:butt;stroke-linejoin:miter;stroke-opacity:1" />
      <path
         inkscape:connector-curvature="0"
         d="m 269.52715,591.82197 c -0.49606,4.8005 -0.58533,9.63989 -0.51406,14.46244 0.03,2.03065 0.003,4.06703 0.18315,6.08985 0.19927,2.23204 0.63643,4.43642 0.95464,6.65463 0.68767,2.3665 1.16703,4.80377 2.06302,7.09951 3.42151,8.76679 9.13933,16.07225 16.40052,22.00901 7.7536,6.33935 11.41139,7.69844 20.27903,12.3929 3.67999,1.50305 7.29222,3.18411 11.03999,4.50916 11.34005,4.00937 24.09425,6.65623 36.13796,7.34278 1.61148,-0.0628 3.3359,0.13218 4.91605,-0.34028 0.20739,-0.062 0.65535,-0.56419 0.50412,-0.40933 -0.89916,0.92069 -1.75826,1.87968 -2.63739,2.81951 -0.67418,-0.49166 1.31096,1.11364 -0.62732,-0.26037 -1.55736,-1.56617 -2.87649,-3.3772 -4.11583,-5.20328 -1.96821,-3.13751 -2.29161,-1.82336 1.69996,-4.83349 1.41318,2.01785 3.32279,3.45002 5.38544,4.74228 0.97061,0.55126 1.93036,1.14747 2.97004,1.56452 5.69057,2.97521 -3.68164,3.17218 -4.21772,3.16787 -2.80475,0.2252 -5.12556,2.80082 -7.12819,4.55622 -3.4426,3.23569 0.17463,-0.24835 0.29231,-0.34083 0.32713,-0.25709 -0.5579,0.61754 -0.82837,0.9337 -0.45646,0.53356 -0.87797,1.09102 -1.28504,1.66229 -0.44869,0.66815 -0.30739,0.58034 -0.96588,-0.13639 0.0462,-0.0183 -0.003,-0.0343 -0.004,-0.0515 0,0 -1.97752,3.47698 -1.97752,3.47698 l 0,0 c -0.0307,-0.002 -0.0601,-0.0281 -0.092,-0.005 -0.72059,-0.57373 -0.8871,-0.58783 -0.45057,-1.33002 1.88385,-2.99742 4.56893,-5.39373 7.17957,-7.7461 2.16916,-1.84147 4.57417,-4.26326 7.61714,-4.25098 1.27705,0.0136 -0.10785,-0.002 1.01833,0.012 0.13798,0.002 0.47544,-0.11902 0.41395,0.005 -1.73741,3.49067 -0.87678,3.64275 -2.17543,3.08389 -1.06013,-0.47452 -2.06973,-1.05475 -3.06593,-1.64944 -2.11767,-1.34318 -4.09264,-2.83235 -5.55395,-4.90574 3.44614,-3.96215 2.08072,-3.68554 4.10235,-0.67323 1.17772,1.74742 2.43456,3.47586 3.90174,4.98908 -0.23219,-0.20345 0.78712,0.13659 0.82276,0.45458 -0.73082,1.14373 -1.40729,2.32407 -2.19248,3.43119 -0.34284,0.48341 -5.59135,0.48403 -5.89582,0.44493 -12.18527,-0.77431 -24.86148,-3.41526 -36.34346,-7.50666 -3.76806,-1.34268 -7.39986,-3.0408 -11.09979,-4.5612 -8.94409,-4.75836 -12.61672,-6.13184 -20.44074,-12.54464 -7.3583,-6.03109 -13.16629,-13.44238 -16.68012,-22.31679 -0.91997,-2.32345 -1.42176,-4.79142 -2.13264,-7.18713 -0.33659,-2.24259 -0.79736,-4.47003 -1.00978,-6.72777 -0.1909,-2.02889 -0.16286,-4.07279 -0.19814,-6.11034 -0.084,-4.84939 0.002,-9.71235 0.45682,-14.54333 0,0 3.29354,-2.26994 3.29354,-2.26994 z"
         id="path14696"
         style="fill:#cccccc;stroke:none;stroke-width:1px;stroke-linecap:butt;stroke-linejoin:miter;stroke-opacity:1" />
      <path
         inkscape:connector-curvature="0"
         d="m 210.46888,451.29186 c 0.0678,-4.76667 -2.82714,-8.75913 -5.74848,-12.25784 -4.34075,-4.51296 -8.96387,-6.15025 -15.04986,-6.80261 -3.16544,-0.31604 -5.8389,0.66486 -8.50586,2.28828 -0.074,0.0451 -0.0149,0.1801 -0.0628,0.25237 -4.01838,6.06482 -1.6265,1.6815 -4.86307,8.41692 -1.70369,5.03138 -3.38272,10.78394 -0.13198,15.61274 1.6003,2.37716 2.7406,2.74046 5.08523,4.18746 3.61915,1.73808 7.62384,2.38108 11.59866,1.89091 1.97093,-0.37005 2.82008,-2.28735 -1.37447,2.31205 -1.33025,-1.44431 -2.82165,-2.71867 -4.25043,-4.05979 -1.22219,-0.95825 -2.38135,-1.96303 -3.32552,-3.20138 -0.99849,-1.42606 -0.47828,-0.82537 2.89313,-2.95018 0.0812,-0.0512 1.65724,1.0595 1.77408,1.12724 1.685,1.46871 3.40366,2.75885 5.45794,3.65527 1.05146,0.48478 2.18456,0.61515 3.3263,0.65448 2.45996,-0.48951 -0.71754,3.21487 -2.45999,3.20223 -1.65734,-0.0703 -3.01813,1.07757 -4.14462,2.16655 0.62643,-0.588 1.1047,-1.39229 1.87929,-1.76398 0.441,-0.21161 -0.54307,0.81463 -0.78584,1.23928 -0.88634,1.55045 -1.59991,3.21087 -2.32456,4.84111 -0.27892,0.60908 -0.51724,1.23593 -0.78544,1.84942 -0.0279,0.0451 -0.0415,-0.0246 -0.0622,-0.037 -1.05816,0.60207 -2.11632,1.20415 -3.17447,1.80622 0,0 3.56213,-1.81967 3.56213,-1.81967 l 0,0 c -3.38909,2.12929 -3.23796,3.63426 -3.70914,2.18366 0.19204,-0.65577 0.49737,-1.27369 0.7496,-1.90735 0.72043,-1.65708 1.47213,-3.2968 2.28237,-4.91228 0.23202,-0.4626 0.37314,-0.98678 0.70688,-1.38232 1.08879,-1.29041 2.35126,-2.42365 3.52688,-3.63548 1.37392,-1.07689 2.81159,-2.01619 4.63917,-1.85777 2.16773,0.0438 -0.71667,3.83419 -2.28565,3.2381 -1.22646,-0.0877 -2.43186,-0.31117 -3.5547,-0.83751 -2.06146,-0.93768 -3.81301,-2.24428 -5.52591,-3.71531 -0.0618,-0.037 -1.88423,-1.15636 -1.85557,-1.20298 2.53254,-4.12112 1.87493,-4.02678 2.77644,-2.6903 0.90396,1.21359 2.05464,2.16067 3.22971,3.10348 1.45166,1.36106 2.96329,2.65834 4.31448,4.12449 -2.00759,3.2756 -1.19283,3.4199 -3.7841,3.75334 -4.14521,0.34697 -8.27354,-0.34137 -12.01225,-2.22129 -2.49426,-1.58354 -3.66543,-1.97925 -5.40017,-4.5095 -3.43101,-5.00436 -2.02408,-10.86094 -0.28464,-16.18497 0.69967,-1.53296 1.29118,-3.12006 2.099,-4.5989 3.739,-6.84476 9.10573,-12.1496 17.1875,-11.59846 6.37554,0.7976 10.92979,2.50297 15.50264,7.20562 3.07936,3.67446 6.00193,7.80509 6.17176,12.77724 0,0 -3.30148,2.25837 -3.30148,2.25837 z"
         id="path14704"
         style="fill:#cccccc;stroke:none;stroke-width:1px;stroke-linecap:butt;stroke-linejoin:miter;stroke-opacity:1" />
      <path
         inkscape:connector-curvature="0"
         d="m 649.13892,460.60264 c -1.63172,-2.96894 -1.7609,-5.97426 -0.90618,-9.19154 1.55961,-3.83019 4.33692,-7.48039 8.16193,-9.29026 0.68785,-0.32546 1.42186,-0.5427 2.1328,-0.81405 5.69564,-1.62082 11.66885,-1.07121 17.05372,1.40894 1.34991,0.62174 2.59931,1.44183 3.89897,2.16274 4.78053,3.47042 8.74058,7.98662 8.50869,14.25978 -0.13168,3.56238 -1.05157,4.96421 -2.38721,8.1557 -3.19842,4.69943 -7.24263,9.65526 -13.01566,11.02019 -1.68417,0.3982 -2.65024,0.33935 -4.31496,0.37256 -1.51582,-0.13302 -3.20814,-0.15975 -4.55348,-0.97848 -0.37751,-0.4046 -0.45924,-0.88294 -0.44106,-1.41052 0.022,-0.13713 2e-4,-0.24696 -0.0501,-0.37167 0.96757,1.2409 0.008,0.42984 -1.15115,0.86273 -0.93298,0.24917 -1.86361,0.50723 -2.78976,0.78071 -1.57112,0.46458 -1.90503,1.09602 2.35339,-3.17997 0.17322,-0.17395 0.48,-0.1032 0.72001,-0.1548 1.65164,-0.71739 3.25817,-1.62419 4.65852,-2.76584 0.41408,-0.33759 1.56252,-1.45749 1.18224,-1.08223 -0.5363,0.52921 -1.10034,1.02954 -1.65051,1.54431 1.16557,-1.25836 2.05671,-2.72733 2.68801,-4.31634 0.19066,-0.49174 0.11932,-0.58751 0.48828,-0.0442 -0.0534,0.005 -0.13658,-0.0343 -0.16024,0.0138 -0.44763,0.90992 1.56236,-1.29341 2.3556,-1.92516 0.25437,-0.20259 -0.3895,0.52093 -0.57756,0.78623 -1.62637,2.29433 0.21594,-0.21958 -1.53488,2.14513 -1.42741,1.84818 -2.97514,3.48744 -4.7582,5.0484 -0.20136,0.17628 -2.46993,1.18365 -2.85758,1.41032 -1.87298,0.88546 -3.68003,1.85393 -5.37378,3.05158 -2.15208,2.07882 0.54298,-2.74877 2.38967,-2.67529 1.35225,-0.71506 2.67098,-0.80466 4.0751,-0.23876 2.81329,1.47264 3.81444,4.33204 4.60832,7.20936 0.33423,1.38355 0.61166,2.78471 0.74675,4.20282 -10e-4,0.17243 0.0334,0.30483 0.1111,0.45508 0,0 -3.45131,2.02199 -3.45131,2.02199 l 0,0 c 0.13536,0.17472 0.12136,0.0802 0.13543,-0.0835 -0.047,-1.37848 -0.37339,-2.73479 -0.65054,-4.07915 -0.68068,-2.62015 -1.44877,-5.36067 -4.06574,-6.65814 -1.38546,-0.40377 -2.52668,0.21218 -3.89816,0.37843 -2.14025,-0.16482 0.72885,-3.38392 1.94673,-4.02686 1.73669,-1.14606 3.59016,-2.06327 5.43654,-3.01586 0.65586,-0.34927 1.33777,-0.65003 1.98174,-1.02077 0.24764,-0.14257 0.89041,-0.70223 0.70959,-0.48097 -3.94921,4.83257 -1.55391,1.27082 -0.60054,0.41062 1.3586,-1.71533 3.89777,-6.26891 5.80577,-6.14882 0.56577,0.40722 0.70616,0.47945 0.52459,1.13517 -0.51533,1.68564 -1.39063,3.25295 -2.5258,4.59944 -2.95474,3.01452 -5.77594,6.28765 -9.99202,7.45436 -3.23345,0.31024 -0.24796,-3.01455 1.34413,-3.33413 0.93877,-0.26782 1.87927,-0.53138 2.82982,-0.75459 1.16479,-0.13415 1.65585,-0.32679 2.4837,0.60726 -0.0768,-0.0979 -0.10459,-0.12322 -0.17211,8.3e-4 -0.0707,0.21922 -0.0786,0.50694 -0.20457,0.66996 1.28756,0.63664 2.8189,0.61985 4.21228,0.70484 2.2918,-0.11783 4.49293,-0.33835 6.56882,-1.45026 0.9164,-0.49085 1.68055,-1.23064 2.57885,-1.75387 0.0709,-0.0413 -0.0434,0.30853 0.01,0.24604 0.85169,-1.00025 1.61708,-2.07089 2.42562,-3.10633 1.39352,-3.02883 2.35317,-4.408 2.61193,-7.82417 0.45829,-6.05052 -3.38359,-10.36541 -7.97872,-13.68374 -1.26834,-0.6938 -2.48709,-1.48717 -3.80502,-2.08141 -5.25836,-2.37092 -11.08356,-2.80964 -16.57581,-1.06468 -0.67131,0.29475 -1.36875,0.53597 -2.01391,0.88425 -0.85605,0.46211 -3.46881,2.64433 -0.12889,-0.57567 0.37656,-0.36303 -0.69639,0.78312 -1.00185,1.20772 -0.82948,1.15299 -1.06016,1.75077 -1.68945,3.02109 -1.0742,3.16847 -1.01136,5.71112 0.54272,8.70888 0,0 -3.00446,2.64069 -3.00446,2.64069 z"
         id="path14706"
         style="fill:#cccccc;stroke:none;stroke-width:1px;stroke-linecap:butt;stroke-linejoin:miter;stroke-opacity:1" />
      <path
         inkscape:connector-curvature="0"
         d="m 438.01289,725.38197 c 4.34389,0.16187 8.35788,1.8502 11.57477,4.80159 0.83397,0.76514 1.52205,1.67545 2.28307,2.51317 0.50162,1.07465 1.1992,2.07805 1.50486,3.22394 1.83407,6.87576 -3.35764,12.44505 -8.58835,16.03598 -1.27471,0.87509 -2.87749,1.13256 -4.31623,1.69885 -9.4524,2.34893 -18.77939,-0.2646 -27.59582,-3.69622 -4.2732,-1.79292 -7.80768,-4.56303 -10.27717,-8.50073 -0.46742,-0.74532 -0.94136,-1.50079 -1.24914,-2.32496 -0.25873,-0.6928 -0.28786,-1.45079 -0.43179,-2.17618 0.12725,-0.62248 0.12445,-1.28651 0.38175,-1.86742 0.25173,-0.56831 0.6659,-1.06325 1.10929,-1.49883 3.60301,-3.5395 4.575,-4.24279 8.74803,-5.66705 0.9614,-0.21424 1.9566,-0.68542 2.96683,-0.61529 -0.0194,0.0191 0.25424,0.0376 0.20618,0.0963 -2.81159,3.43332 -1.89786,3.2387 -4.83732,3.23616 -3.0248,0.09 -6.02606,-0.0664 -8.99968,-0.63414 -1.97365,-0.43631 -3.94108,-0.89688 -5.92374,-1.29158 -2.19634,-0.42142 -0.19685,-1.40903 2.52404,-3.1821 0.15025,-0.0979 1.76913,0.47145 1.79364,0.47944 3.17255,1.07333 6.45972,1.83034 9.81153,1.92975 2.54157,-0.1928 5.05382,-0.68873 7.1012,-2.26676 2.10832,-1.88975 -3.81926,3.3578 -1.44388,1.45135 1.07172,0.81204 0.48537,0.58727 -0.0251,1.19951 -0.23471,0.4655 -0.7873,0.52161 -1.14536,0.83069 -0.1104,0.0953 -0.37214,0.44728 -0.26569,0.3476 2.4204,-2.26645 2.90922,-3.3649 2.14743,-1.85485 -0.71016,1.59737 -1.04565,3.29107 -1.25393,5.01546 -0.1697,2.18012 1.19601,2.57883 2.87795,3.53666 0.81424,0.43553 1.62719,0.88117 2.47844,1.24185 0.33224,0.062 -0.23885,-0.10084 0.40986,-0.0671 0,0 -2.33187,3.24998 -2.33187,3.24998 l 0,0 c -0.28104,0.0379 -0.45165,-0.0229 -0.68875,-0.15235 -0.86684,-0.39366 -1.71019,-0.83736 -2.54277,-1.29847 -1.88307,-1.0897 -3.49801,-1.79903 -3.48903,-4.22994 0.17079,-1.76511 0.40659,-3.54499 1.14826,-5.1758 0.57938,-2.28314 2.87558,-3.48944 4.52972,-4.97741 0.63747,-0.3912 1.15158,-0.84081 1.55043,0.22644 -0.0273,1.4405 -2.83159,3.24511 -3.89944,4.15241 -2.26551,1.40387 -4.89561,1.89786 -7.53728,1.98582 -3.40685,-0.19977 -6.74311,-0.95117 -9.97216,-2.05511 -0.29766,-0.0862 -0.59165,-0.18629 -0.893,-0.25856 -0.26783,-0.0642 -0.90778,0.10797 -0.81247,-0.15044 0.97388,-2.64043 1.20718,-3.36123 2.40596,-3.11822 1.97647,0.40172 3.93782,0.86997 5.91193,1.28231 2.94058,0.50641 5.90211,0.62701 8.88336,0.54642 2.70317,-0.0152 2.66873,-0.67517 -0.0393,3.16252 -0.93586,0.20109 -1.87042,0.40959 -2.7701,0.74684 -1.02845,0.38281 -1.6816,0.59772 -2.69055,1.10537 -0.54227,0.27285 -1.28912,1.41538 -1.58992,0.8881 -0.32654,-0.57241 1.35406,-0.92993 1.20048,-1.57077 -0.25962,-1.08326 -2.48287,3.17896 -1.87904,2.7635 0.0891,0.65949 0.0518,1.34887 0.26734,1.97847 0.27432,0.80113 0.73649,1.52838 1.1804,2.24948 2.35974,3.83321 5.79692,6.46523 9.93786,8.17776 8.67238,3.33316 17.8564,5.8854 27.10135,3.33887 1.37345,-0.60378 2.70838,-1.30413 4.12035,-1.81132 0.17583,-0.0632 0.41513,0.27143 0.54374,0.13592 2.55315,-2.68992 3.98389,-6.30528 3.1272,-10.03035 -0.24819,-1.07919 -0.89108,-2.02756 -1.33662,-3.04135 -0.72543,-0.80276 -1.37845,-1.67745 -2.1763,-2.40827 -3.10286,-2.84223 -6.99195,-4.3983 -11.17655,-4.47088 0,0 2.35114,-3.23606 2.35114,-3.23606 z"
         id="path14708"
         style="fill:#cccccc;stroke:none;stroke-width:1px;stroke-linecap:butt;stroke-linejoin:miter;stroke-opacity:1" />
      <ellipse
         ry="6.6583543"
         rx="6.525187"
         cy="436.85663"
         cx="160.58331"
         id="ellipse14710"
         style="opacity:1;fill:#20b6ea;fill-opacity:1;stroke:none;stroke-width:0.26633418px;stroke-linecap:butt;stroke-linejoin:miter;stroke-miterlimit:4;stroke-dasharray:none;stroke-dashoffset:0;stroke-opacity:1" />
      <ellipse
         ry="6.6583543"
         rx="6.525187"
         cy="452.18079"
         cx="707.5509"
         id="ellipse14712"
         style="opacity:1;fill:#20b6ea;fill-opacity:1;stroke:none;stroke-width:0.26633418px;stroke-linecap:butt;stroke-linejoin:miter;stroke-miterlimit:4;stroke-dasharray:none;stroke-dashoffset:0;stroke-opacity:1" />
      <ellipse
         style="opacity:1;fill:#f37962;fill-opacity:1;stroke:none;stroke-width:0.26633418px;stroke-linecap:butt;stroke-linejoin:miter;stroke-miterlimit:4;stroke-dasharray:none;stroke-dashoffset:0;stroke-opacity:1"
         id="ellipse14714"
         cx="700.44867"
         cy="452.18079"
         rx="6.525187"
         ry="6.6583543" />
      <ellipse
         ry="6.6583543"
         rx="6.525187"
         cy="445.07855"
         cx="703.99976"
         id="ellipse14716"
         style="opacity:1;fill:#89be5e;fill-opacity:1;stroke:none;stroke-width:0.26633418px;stroke-linecap:butt;stroke-linejoin:miter;stroke-miterlimit:4;stroke-dasharray:none;stroke-dashoffset:0;stroke-opacity:1" />
      <use
         style="fill:#f5f3f2"
         transform="matrix(0.76928169,0,0,0.76928169,-231.85052,468.56798)"
         height="100%"
         width="100%"
         y="0"
         x="0"
         xlink:href="#r"
         id="use15129" />
      <use
         style="fill:#f5f3f2"
         transform="matrix(0.76928169,0,0,0.76928169,-257.39609,231.9078)"
         height="100%"
         width="100%"
         y="0"
         x="0"
         xlink:href="#b"
         id="use15156" />
      <use
         style="fill:#f5f3f2"
         transform="matrix(0.76928169,0,0,0.76928169,152.29738,419.99892)"
         height="100%"
         width="100%"
         y="0"
         x="0"
         xlink:href="#g"
         id="use15181" />
      <use
         id="use15195"
         xlink:href="#g"
         x="0"
         y="0"
         width="100%"
         height="100%"
         transform="matrix(0.76928169,0,0,0.76928169,-7.70262,253.99892)"
         style="fill:#90969b" />
      <use
         id="use15197"
         xlink:href="#r"
         x="0"
         y="0"
         width="100%"
         height="100%"
         transform="matrix(0.76928169,0,0,0.76928169,-59.85052,308.56798)"
         style="fill:#90969b" />
      <ellipse
         ry="6.6583543"
         rx="6.525187"
         cy="765.85663"
         cx="422.38379"
         id="ellipse15199"
         style="opacity:1;fill:#20b6ea;fill-opacity:1;stroke:none;stroke-width:0.26633418px;stroke-linecap:butt;stroke-linejoin:miter;stroke-miterlimit:4;stroke-dasharray:none;stroke-dashoffset:0;stroke-opacity:1" />
      <ellipse
         style="opacity:1;fill:#f37962;fill-opacity:1;stroke:none;stroke-width:0.26633418px;stroke-linecap:butt;stroke-linejoin:miter;stroke-miterlimit:4;stroke-dasharray:none;stroke-dashoffset:0;stroke-opacity:1"
         id="ellipse15201"
         cx="429.48608"
         cy="765.85663"
         rx="6.525187"
         ry="6.6583543" />
    </g>
    <text
       transform="scale(0.99731414,1.0026931)"
       sodipodi:linespacing="125%"
       id="text15277"
       y="671.71802"
       x="608.70648"
       style="font-size:32.08617783px;line-height:125%;font-family:'KG Miss Speechy IPA';text-align:start;letter-spacing:0px;word-spacing:0px;text-anchor:start;fill:#cccccc;stroke:none;stroke-width:1.00269306px;stroke-linecap:butt;stroke-linejoin:miter;stroke-opacity:1"
       xml:space="preserve"><tspan
         id="tspan15283"
         style="font-size:32.08617783px;text-align:start;text-anchor:start;fill:#cccccc;stroke:none;stroke-width:1.00269306px"
         y="671.71802"
         x="608.70648"
         sodipodi:role="line">...only need to study red, </tspan><tspan
         style="font-size:32.08617783px;text-align:start;text-anchor:start;fill:#cccccc;stroke:none;stroke-width:1.00269306px"
         y="711.82574"
         x="608.70648"
         sodipodi:role="line"
         id="tspan15290">green, and blue &quot;actions&quot;! </tspan></text>
  </g>
</svg>
