<?xml version="1.0" encoding="UTF-8" standalone="no"?>
<svg
   xmlns:dc="http://purl.org/dc/elements/1.1/"
   xmlns:cc="http://creativecommons.org/ns#"
   xmlns:rdf="http://www.w3.org/1999/02/22-rdf-syntax-ns#"
   xmlns:svg="http://www.w3.org/2000/svg"
   xmlns="http://www.w3.org/2000/svg"
   xmlns:sodipodi="http://sodipodi.sourceforge.net/DTD/sodipodi-0.dtd"
   xmlns:inkscape="http://www.inkscape.org/namespaces/inkscape"
   width="100%"
   height="100%"
   viewBox="0 0 1024 768"
   style="background: #3c4747;"
   id="svg13813"
   version="1.1"
   inkscape:version="0.91+devel+osxmenu r12898"
   sodipodi:docname="5.svg">
  <sodipodi:namedview
     pagecolor="#3c4747"
     bordercolor="#ffffff"
     borderopacity="1"
     inkscape:pageopacity="0"
     inkscape:pageshadow="2"
     inkscape:zoom="1"
     inkscape:document-units="px"
     inkscape:current-layer="layer1"
     showgrid="true"
     inkscape:window-maximized="0"
     inkscape:showpageshadow="false"
     borderlayer="true"
     id="namedview13815"
     inkscape:cx="511.00903"
     inkscape:cy="465.51394"
     inkscape:window-width="1440"
     inkscape:window-height="851"
     inkscape:window-x="0"
     inkscape:window-y="23"
     inkscape:snap-global="false">
    <inkscape:grid
       type="xygrid"
       color="#b5357b"
       opacity="0.1254902"
       empcolor="#5d6e79"
       empopacity="0.25098039"
       enabled="true"
       empspacing="15"
       id="grid13817" />
  </sodipodi:namedview>
  <defs
     id="defs13819">
    <symbol
       id="two">
      <path
         id="path10995"
         d="m 368.90027,305.59872 c 0.41424,-1.56545 1.01405,-3.31867 2.04852,-4.60144 0.39816,-0.49372 0.8766,-0.939 1.41917,-1.26751 9.50787,-5.75664 6.17494,-5.28813 11.54976,-5.63037 0.57833,0.12312 1.193,0.133 1.73501,0.36936 3.77018,1.64409 4.18748,6.32832 4.56888,9.80766 0.39643,6.59243 -2.16864,11.94276 -5.88192,17.17566 -2.13422,3.01235 -4.79646,5.53523 -7.72073,7.75697 -1.03217,0.75873 -2.06533,1.51907 -3.14077,2.21609 -0.42928,0.1988 -0.62818,0.53962 -0.82282,0.95743 -0.14228,0.33558 -0.24864,0.68425 -0.32482,1.04013 -0.0146,0.0234 -0.004,0.0692 -0.006,0.09 -2.77177,1.40443 -5.47044,2.96355 -8.31532,4.21327 -0.27374,0.12026 0.29543,-0.52097 0.46722,-0.76569 0.59464,-0.84707 1.34069,-1.61634 2.24115,-2.14113 3.08504,-1.79796 6.20146,-3.54153 9.30218,-5.31229 2.62853,-1.22722 4.31508,1.80984 5.62185,3.62004 1.67514,2.51405 3.36199,4.44935 6.5119,4.61782 0.40043,-0.11357 0.81939,-0.17521 1.20129,-0.34071 0.44689,-0.19366 1.70091,-0.94884 1.26645,-0.72872 -2.36619,1.19885 -4.59232,2.70066 -7.06312,3.66564 -0.58513,0.22853 0.85329,-0.92254 1.26166,-1.39985 0.8026,-0.93807 1.2431,-1.55201 1.96818,-2.51613 0.64899,-0.93421 1.34737,-1.84702 1.88539,-2.85316 0.0842,-0.14407 0.01,-0.17593 -0.009,-0.34262 0.29619,-0.86071 0.86011,-1.55339 1.46103,-2.2204 0.16755,-0.18614 0.34701,-0.36023 0.53914,-0.52012 0,0 8.65179,-4.99511 8.65179,-4.99511 l 0,0 c -0.22242,0.1748 -0.43258,0.36412 -0.62678,0.57071 -0.60463,0.6423 -1.19338,1.30462 -1.40148,2.18602 0.048,0.20249 0.13948,0.16763 0.001,0.34732 -0.6975,1.05051 -1.47251,2.0476 -2.23192,3.05323 -0.74063,0.94492 -2.36522,3.3254 -3.26265,3.93493 -2.63026,1.78642 -7.86331,5.69403 -11.98295,6.97529 -3.24433,-0.18409 -4.66958,-2.13231 -6.36816,-4.7008 -1.36778,-1.76263 -3.23061,-4.67294 -5.8151,-3.50848 2.4925,-1.45849 4.98501,-2.91697 7.47751,-4.37546 -0.28249,0.20097 -0.58094,0.38122 -0.84749,0.60292 -0.48024,0.39944 -1.72588,2.21845 -1.78995,2.26295 -2.86683,1.9913 -5.86907,3.78023 -8.8036,5.67034 0.007,-0.0275 0.0105,-0.0725 0.0244,-0.1008 0.11595,-0.3664 0.24557,-0.72848 0.39711,-1.08187 0.18846,-0.4147 0.36391,-0.74656 0.79116,-0.93915 1.18396,-0.75411 2.3259,-1.57249 3.45923,-2.39995 3.02976,-2.29082 5.82254,-4.87931 8.07388,-7.96087 3.84355,-5.23434 6.35332,-10.52265 5.90667,-17.18995 -0.45961,-3.42603 -1.18089,-8.06022 -4.85973,-9.63973 -0.54445,-0.23377 -1.15951,-0.24461 -1.73926,-0.36691 -4.00419,0.24255 -3.51747,0.48261 4.81129,-3.81568 0.56403,-0.29108 -1.02448,0.77207 -1.42035,1.26819 -0.97791,1.22556 -1.51984,2.92253 -1.77031,4.44082 0,0 -8.4387,4.87208 -8.4387,4.87208 z"
         inkscape:connector-curvature="0" />
    </symbol>
    <symbol
       id="n">
      <path
         id="path11127"
         d="m 906.35931,185.08841 c 2.96713,-1.95891 5.59009,-4.38122 8.41039,-6.5409 0.94411,-0.69033 1.86845,-1.41375 2.85493,-2.04426 2.78875,-1.33665 5.42354,-3.05904 8.36624,-4.00995 0.48821,-0.15775 -0.31636,0.97618 -0.48128,1.46201 -0.34693,1.02197 -0.71372,2.03719 -1.05426,3.06131 -1.29565,3.89648 -2.56946,7.80149 -3.81086,11.71561 -1.38794,4.26883 -2.75045,8.54624 -4.05253,12.84212 -1.20844,4.1093 -0.20949,1.0328 -8.85652,5.8057 0.82064,-3.48364 8.65239,-8.11759 8.58776,-4.162 0.0809,3.65066 -5.98823,5.02792 -9.54219,5.31332 17.94934,-9.90234 7.95879,-7.47089 8.49944,-4.01998 -1.12417,1.89904 -9.5971,7.84438 -8.42606,3.5961 0.87943,-2.87858 2.53509,-5.48549 4.04648,-8.06779 2.7508,-5.12718 6.09274,-9.88838 9.72037,-14.42566 2.38607,-2.22222 4.23855,-5.39494 7.11343,-7.09155 3.08677,-1.82165 6.22407,-3.55626 9.33611,-5.33439 4.43328,-1.80595 2.2034,5.69526 1.83819,7.38755 -1.62787,6.64576 -3.95065,13.0874 -6.01491,19.6029 -0.48368,1.82154 -1.21125,3.5894 -1.59733,5.43784 -0.0438,0.28538 -0.0621,0.57574 -10e-4,0.85885 0.0791,0.10144 0.28496,0.0546 0.39966,0.0589 1.36566,-0.32548 2.65607,-0.90268 3.96597,-1.40146 0.54284,-0.20648 1.08578,-0.4127 1.6291,-0.6179 0.32475,-0.0458 0.6825,-0.001 1.01346,0.009 0.14908,0.001 0.29815,0.002 0.44722,0.004 0,0 -8.54238,4.93195 -8.54238,4.93195 l 0,0 c -0.15094,-1.7e-4 -0.30188,-3.3e-4 -0.45282,-5e-4 -0.36582,0.007 -0.74436,-0.007 -1.10576,0.0441 -0.49146,0.16783 -0.97943,0.34565 -1.46703,0.52433 -1.35331,0.50141 -2.67682,1.09223 -4.07297,1.46323 -0.0877,0.004 -0.40547,0.0956 -0.46282,-0.0224 -0.0181,-0.30432 0.0213,-0.60774 0.0831,-0.90596 0.49441,-1.98794 1.67326,-3.79167 2.18658,-5.77805 2.36904,-6.45863 4.71434,-12.95572 6.17081,-19.69291 0.24998,-1.80888 1.7511,-8.68647 -2.38617,-7.07117 12.7186,-7.43944 8.87544,-5.5831 6.32856,-3.52231 -2.40116,1.94288 -4.46424,4.26986 -6.52038,6.56184 -3.58301,4.51173 -6.95864,9.1963 -9.58045,14.34488 -1.33872,2.49479 -2.90013,4.98974 -3.54077,7.77582 -0.93031,3.72068 -0.25561,5.57341 -8.7583,6.3253 -0.22143,-3.53898 12.39787,-7.75221 8.78195,-5.95744 4.29152,-0.005 -8.28546,7.95422 -7.70637,4.64514 0.34583,-3.48905 10.01927,-9.27096 8.61793,-5.77171 -10.64203,6.40921 -9.85065,8.11618 -8.15298,4.01474 1.79469,-4.38313 3.40905,-8.83928 4.90322,-13.33326 1.24024,-3.82623 2.52189,-7.65131 3.5233,-11.54959 0.23996,-0.93412 0.42138,-1.88234 0.63944,-2.82181 0.10687,-0.46041 -0.0338,-1.08248 0.33531,-1.37774 2.71854,-2.17473 5.77914,-3.88345 8.66871,-5.82518 -1.11186,0.69774 -2.1622,1.48938 -3.22498,2.2579 -2.76643,2.08703 -5.33267,4.4318 -8.17849,6.40702 0,0 -8.47756,4.89452 -8.47756,4.89452 z"
         inkscape:connector-curvature="0" />
    </symbol>
    <symbol
       id="three">
      <path
         id="path12120"
         d="m 405.52139,306.70504 c 4.93046,-3.7004 10.66016,-8.42593 16.65275,-9.4361 0.72756,-0.12264 1.47327,-0.0836 2.20991,-0.12547 2.38429,0.18342 6.23133,0.77699 6.43338,3.85065 0.0294,0.44724 -0.10214,0.89058 -0.15322,1.33587 -0.52362,1.91723 -2.03675,3.06798 -3.68866,4.01048 -9.41369,5.37104 -6.05639,3.96572 -10.23748,5.66073 -0.66197,0.23798 -1.33471,0.47407 -2.03732,0.54768 -1.21039,-2.45282 7.03143,-4.91384 10.46382,-5.41155 2.30181,-0.27392 4.713,-0.10125 6.50481,1.54403 0.57151,0.52477 1.17026,1.08027 1.49282,1.78594 0.4457,0.97506 0.5019,2.08462 0.75285,3.12693 0.0806,1.24753 0.30704,2.49415 0.2419,3.74258 -0.2778,5.32414 -2.51639,11.43819 -7.17884,14.48857 -3.57528,2.33911 -7.43144,4.21782 -11.14715,6.32672 -4.56613,1.63586 -9.88776,2.57515 -14.38068,0.2354 0,0 8.36683,-4.83059 8.36683,-4.83059 l 0,0 c 4.00421,2.74804 9.32557,1.69038 13.59575,0.21778 -1.32372,0.80061 -2.64967,3.20614 -3.97115,2.40184 -1.21064,-0.73685 2.15858,-1.86057 3.04949,-2.9628 2.56102,-3.16846 3.89758,-7.39067 3.9851,-11.4425 0.0265,-1.22683 -0.25496,-2.44095 -0.38245,-3.66143 -0.32549,-0.99927 -0.48217,-2.07037 -0.97646,-2.99782 -1.63096,-3.06017 -5.2644,-3.62977 -8.33603,-3.13461 -5.12494,0.96047 0.18504,0.0324 6.55767,-4.4158 0.62682,-0.0107 1.22908,-0.22656 1.8188,-0.42152 3.44356,-1.35291 1.1463,-0.50026 -6.49267,3.99843 -0.38491,0.22668 0.78445,-0.43167 1.14827,-0.69083 1.20426,-0.85783 2.17813,-1.85265 2.5457,-3.32271 0.0533,-0.44659 0.18711,-0.89083 0.15996,-1.33977 -0.18229,-3.01428 -3.82266,-3.77493 -6.20937,-3.97998 -0.74223,0.0451 -1.49349,0.0112 -2.22669,0.13515 -0.70727,0.11957 -2.63174,1.03608 -2.06916,0.59107 1.87693,-1.4847 4.05875,-2.537 6.10274,-3.78172 1.06369,-0.64775 -2.07319,1.38583 -3.04706,2.16212 -0.38954,0.31051 -0.77036,0.63183 -1.15554,0.94775 0,0 -8.39262,4.84548 -8.39262,4.84548 z"
         inkscape:connector-curvature="0" />
    </symbol>
    <symbol
       id="four">
      <path
         inkscape:connector-curvature="0"
         d="m 279.91093,294.82494 c -7.24673,7.39195 -10.24968,17.44577 -12.7023,27.22509 -1.04562,5.34385 -1.84283,10.86735 -0.67071,16.25314 0.1615,0.32393 0.2329,1.32509 0.73275,1.39812 6.79022,-6.70934 -8.32339,7.57383 -8.60267,4.37617 0.0142,-0.46141 0.007,-0.92493 0.0292,-1.38654 0.36662,-1.10725 1.29937,-2.02654 2.28978,-2.60938 9.48978,-5.58455 6.21178,-4.40594 11.36988,-6.04955 3.30226,-0.88019 6.70658,-1.23005 10.10925,-1.41004 1.52551,-0.1236 3.0681,0.0517 4.49755,0.60602 0.17113,0.0494 0.30878,0.15464 0.41736,0.26963 -0.002,0.002 -0.005,0.004 -0.007,0.007 0,0 -8.65754,4.99843 -8.65754,4.99843 l 0,0 c 0.003,-0.002 0.005,-0.005 0.008,-0.007 -0.0756,-0.13162 -0.17435,-0.24656 -0.33875,-0.31502 -1.29985,-0.67583 -2.77727,-0.86427 -4.22778,-0.76177 -3.35348,0.13017 -6.71416,0.42466 -9.96136,1.32466 -4.17607,1.39146 -3.37998,1.26842 5.11668,-3.46898 0.35459,-0.1977 -0.66812,0.46557 -0.9676,0.73967 -0.38563,0.35295 -0.74102,0.84428 -0.95842,1.32473 -0.0561,0.12404 -0.0693,0.26333 -0.10397,0.395 0.0102,0.45442 -0.0326,0.9091 0.0116,1.36296 0.51097,2.92792 4.495,-3.15771 -8.67297,5.59794 -0.37447,-0.34523 -0.36447,-1.05847 -0.45249,-1.55994 -0.46545,-5.69661 0.53954,-11.3653 1.79982,-16.90503 2.55266,-9.36004 5.20044,-19.19468 11.72772,-26.66242 0,0 8.2142,-4.74247 8.2142,-4.74247 z"
         id="path12122" />
      <path
         inkscape:connector-curvature="0"
         d="m 280.49902,323.33517 c -1.82301,7.74784 -2.3834,15.69472 -2.44995,23.63012 0.0352,1.06678 0.14681,2.06694 0.60619,3.02517 0,0 -8.52373,4.92118 -8.52373,4.92118 l 0,0 c -0.20034,-1.10218 -0.13756,-2.21521 -0.0758,-3.33138 0.70266,-7.89831 1.51116,-15.7833 2.48834,-23.65228 0,0 7.95498,-4.59281 7.95498,-4.59281 z"
         id="path12124" />
    </symbol>
    <symbol
       id="eight">
      <path
         id="path12202"
         d="m 613.94294,299.43626 c -0.50802,0.0984 -1.01896,0.18285 -1.52408,0.29523 -1.9464,0.43301 -2.09633,0.46929 -3.99868,1.31145 -0.66675,0.29516 -2.595,1.32694 -1.96887,0.95326 8.5398,-5.09659 7.89464,-4.70984 4.94092,-2.52696 -2.8915,4.15864 -0.56506,7.54878 1.1281,11.72004 2.41134,6.13478 3.83243,12.08617 1.77127,18.5601 -0.33841,1.06292 -0.85602,2.06022 -1.28403,3.09033 -3.4302,5.62343 -6.5609,7.09902 -13.5146,10.20584 -0.55834,0.24946 -1.27944,0.002 -1.80926,-0.30379 -1.2619,-0.72732 -1.92131,-2.59976 -2.48727,-3.759 -2.02979,-7.37632 -0.43278,-11.1818 3.95735,-17.10039 4.15396,-4.46112 9.2122,-7.89929 13.67295,-12.02917 2.57291,-2.64795 5.17007,-5.48293 5.76569,-9.24082 -0.75244,-2.0848 -2.41519,-2.63639 -4.42564,-2.96613 0,0 8.26052,-4.76922 8.26052,-4.76922 l 0,0 c 2.00561,0.32356 3.74124,0.83319 4.47407,2.93818 -0.82636,3.82076 -3.38009,6.75735 -6.11179,9.44063 -4.51497,4.13769 -9.62259,7.59237 -13.79433,12.09925 -4.30604,5.74671 -6.07909,9.84781 -3.78552,17.00119 0.69964,1.28941 1.29023,2.85923 2.6621,3.65806 0.5033,0.29306 2.13563,-0.0355 1.70942,0.36143 -1.72798,1.60923 -3.8482,2.83317 -6.05152,3.68225 -1.87058,0.72085 6.45618,-5.33526 3.70982,-4.73345 0.45508,-1.04573 1.00234,-2.05602 1.36523,-3.13721 2.15365,-6.41646 0.76096,-12.47073 -1.91484,-18.4772 -0.58113,-1.20768 -1.84104,-3.74603 -2.36398,-5.1028 -1.03557,-2.68676 -0.74225,-4.07216 0.87848,-6.4109 5.79375,-4.23447 12.1157,-8.10011 19.17796,-9.63272 0,0 -8.43947,4.87252 -8.43947,4.87252 z"
         inkscape:connector-curvature="0" />
    </symbol>
    <symbol
       id="r">
      <g
         id="g11213_transform"
         transform="matrix(0.97111895,0,0,0.97111895,131.9868,-58.835254)">
        <path
           inkscape:connector-curvature="0"
           d="m 529.83742,315.53422 c -2.94771,8.02706 -3.60283,16.54111 -3.30517,25.01572 0.11318,2.32983 0.26101,4.54496 1.37172,6.60565 0,0 -8.30771,4.79646 -8.30771,4.79646 l 0,0 c -0.63456,-2.29122 -0.70044,-4.6299 -0.67791,-7.00622 0.0322,-8.26959 0.72448,-16.47893 2.52652,-24.56617 0,0 8.39255,-4.84544 8.39255,-4.84544 z"
           id="path11203" />
        <path
           inkscape:connector-curvature="0"
           d="m 520.27465,331.58976 c 1.55173,-2.43432 3.15221,-4.84737 5.21954,-6.88127 0.54638,-0.53755 1.05921,-1.13387 1.71291,-1.53408 3.3274,-2.03707 6.79474,-3.83621 10.19211,-5.75431 4.45925,-1.45744 9.05006,-0.16897 13.25543,1.51457 0.89701,0.48163 1.98501,0.78663 2.74379,1.50481 0.047,0.0184 0.0941,0.0367 0.14107,0.0551 0,0 -8.61954,4.9765 -8.61954,4.9765 l 0,0 c -0.0506,-0.0163 -0.10124,-0.0326 -0.15185,-0.0489 -0.53914,-0.81844 -1.61683,-1.18898 -2.38583,-1.71148 -4.06451,-1.96826 -8.58272,-3.14376 -13.00848,-1.65715 1.96203,-1.17615 3.82146,-2.54347 5.8861,-3.52844 0.70362,-0.33567 -1.19187,1.00749 -1.74768,1.55414 -1.97419,1.94167 -3.5074,4.23571 -4.82993,6.65633 0,0 -8.40764,4.85416 -8.40764,4.85416 z"
           id="path11211" />
      </g>
    </symbol>
    <symbol
       id="b">
      <path
         inkscape:connector-curvature="0"
         d="m 537.57075,292.66968 c -4.6148,8.60853 -6.62653,19.11751 -7.57562,28.76425 -0.23257,2.3639 -0.2808,4.74233 -0.4212,7.1135 -0.0954,6.93461 0.0307,13.93542 1.25662,20.7809 1.03399,4.62944 2.59492,0.31552 -8.11143,6.16822 0.008,-0.12668 -0.0203,-0.21012 -0.0378,-0.33215 0,0 8.62341,-4.97873 8.62341,-4.97873 l 0,0 c 0.0708,0.15857 0.0481,0.17461 -3.7e-4,0.35417 -8.59066,5.22132 -8.53227,8.53983 -8.79857,3.59477 -0.24526,-7.22187 -0.0461,-14.45338 0.28192,-21.66918 0.17039,-2.38848 0.26067,-4.78403 0.51117,-7.16545 0.40517,-3.85166 1.55335,-10.97755 2.28991,-14.78456 0.66766,-3.45083 1.5199,-7.32201 2.65409,-10.70116 0.26861,-0.80027 0.66011,-1.55388 0.99016,-2.33083 0,0 8.33767,-4.81375 8.33767,-4.81375 z"
         id="path11620" />
      <path
         inkscape:connector-curvature="0"
         d="m 532.94875,331.31797 c 2.4122,-0.75973 4.88693,-1.21681 7.39518,-1.49789 1.88451,-0.29369 3.77368,-0.16521 5.57782,0.45029 1.22065,0.39204 2.18448,1.01016 3.10187,1.88328 0.86101,0.73216 1.4557,1.64301 2.02589,2.60145 0.68029,1.09536 1.1007,2.35524 1.54179,3.56735 0.33876,0.89423 0.51637,1.84163 0.68497,2.78059 0.0396,0.69378 -0.52342,1.27552 -0.99872,1.72274 -3.02787,2.35411 -6.23155,5.28739 -10.09293,5.64121 -1.2781,0.40764 -2.60103,0.61536 -3.92313,0.81904 -1.11362,0.22641 -2.27904,0.0104 -3.37275,0.30124 -3.79376,1.74941 10.58599,-6.02354 7.89244,-4.60242 -4.85277,2.56033 -6.14317,4.62405 -10.09699,5.37716 -0.78521,0.0994 -1.57776,0.10158 -2.3678,0.12274 0.15117,-0.26494 -0.84246,0.22685 -0.65196,0.11542 2.75659,-1.61242 11.1085,-6.30535 8.29956,-4.78596 -3.01121,1.6288 -5.93212,3.41933 -8.90658,5.11431 -0.10517,0.0599 -0.4355,0.21047 -0.33087,0.14961 2.70932,-1.57605 5.43103,-3.13072 8.14654,-4.69608 -3.09878,2.10539 -6.24544,3.67884 -9.67154,5.62281 -0.11871,0.0674 -0.4965,0.2249 -0.37838,0.15652 9.18103,-5.3152 10.84118,-6.41742 7.85822,-4.4572 -0.8779,0.70946 -1.4545,1.64115 -1.94997,2.63645 0,0 -8.51672,4.91713 -8.51672,4.91713 l 0,0 c 0.5203,-0.96439 1.07702,-1.90039 1.92322,-2.621 4.47426,-2.95329 19.19021,-11.04806 1.45479,-0.82694 -0.25862,0.14904 1.05067,-0.69523 0.74352,-0.49901 29.75557,-17.20375 -19.28573,10.99817 9.89883,-5.65888 0.27582,-0.15743 0.36081,-0.11973 0.66542,-0.1232 0.78294,0.009 1.56866,-0.003 2.34557,-0.1099 0.50235,-0.0881 1.65437,-0.54754 1.21233,-0.28344 -17.04008,10.18043 -4.68484,2.30031 0.96071,-0.47312 1.08232,-0.27409 2.23646,-0.0705 3.33743,-0.28084 1.34991,-0.17921 2.68943,-0.41596 3.98309,-0.85366 4.3017,-0.44932 -11.40103,7.28117 -7.01839,4.23802 0.46385,-0.43429 1.02113,-1.02675 0.96166,-1.70135 -0.072,-0.96929 -0.23945,-1.93107 -0.56495,-2.84988 -0.44651,-1.21043 -0.90139,-2.44721 -1.57718,-3.54692 -0.60568,-0.93256 -1.15502,-1.87094 -2.01737,-2.60637 -0.88961,-0.8657 -1.89194,-1.45876 -3.04822,-1.91425 -1.7694,-0.60777 -3.60473,-0.77739 -5.46215,-0.51707 -2.55669,0.27582 -5.08675,0.73759 -7.52634,1.57361 0,0 8.46209,-4.88559 8.46209,-4.88559 z"
         id="path11622" />
    </symbol>
    <symbol
       id="g">
      <path
         inkscape:connector-curvature="0"
         d="m 534.04746,319.5646 c -3.03822,0.87778 -8.90575,2.56558 4.58483,-2.99581 0.60188,-0.24812 -0.95138,0.89461 -1.36185,1.39992 -1.04911,1.2915 -1.37588,2.09882 -2.1321,3.55552 -0.87679,2.21999 -2.43011,5.38433 -0.4636,7.52845 0.33368,0.36382 0.79203,0.58952 1.18805,0.88428 0.48913,0.17366 0.94956,0.48549 1.46739,0.52096 1.87385,0.12837 4.85569,-1.65431 3.84112,-1.21134 -1.98148,0.86514 -3.76341,2.57346 -5.92448,2.64065 -1.07347,0.0334 1.37993,-1.64846 2.00904,-2.51892 0.59799,-0.82739 1.11193,-1.7124 1.6679,-2.5686 0.86291,-1.85409 3.69635,-5.53037 1.2039,-7.41701 -0.3862,-0.29232 -0.86135,-0.50645 -1.34338,-0.55383 -0.64068,-0.063 -1.27811,0.15556 -1.91716,0.23333 -0.71215,0.28752 -1.42431,0.57504 -2.13646,0.86256 0,0 8.04303,-4.64365 8.04303,-4.64365 l 0,0 c 0.74269,-0.30515 1.48537,-0.61029 2.22806,-0.91544 0.68619,-0.10499 1.36577,-0.35857 2.05857,-0.31497 4.43956,0.27935 0.73429,6.6393 -0.28209,8.21423 -4.57144,6.97129 -4.11467,5.68175 -13.68408,11.64499 -1.72782,1.07671 -3.59176,1.71191 -5.50054,0.80126 -0.41313,-0.28488 -0.8969,-0.48786 -1.2394,-0.85464 -1.98299,-2.12357 -0.18361,-5.48655 0.66021,-7.64196 0.714,-1.36448 1.13236,-2.32164 2.0999,-3.53693 3.26266,-4.09814 8.40086,-6.63188 13.40281,-8.00302 0,0 -8.46967,4.88997 -8.46967,4.88997 z"
         id="path11560" />
      <path
         inkscape:connector-curvature="0"
         d="m 550.11522,315.27272 c -0.85981,4.44147 -0.9444,8.99308 -1.06604,13.50211 -0.3267,6.8423 0.0802,13.69889 -0.40414,20.53122 -0.42184,4.84135 -0.6914,8.99219 -4.37463,12.4862 -5.83963,3.37444 -9.44602,7.63517 -15.56849,4.89598 -1.26145,-0.76662 -2.78785,-1.26796 -3.58776,-2.57854 -0.24506,-0.57908 -0.37667,-1.12077 -0.72924,-1.62646 -0.40053,-0.44832 -0.55886,-0.89655 -0.61159,-1.48824 0.16256,-1.51314 1.31563,-3.11626 2.18165,-4.35508 5.27266,-4.52023 11.89381,-7.69645 17.82454,-11.10407 2.32419,-1.28713 4.66011,-2.55368 7.01891,-3.77638 0.17144,-0.0932 0.45476,-0.23195 0.61395,-0.3049 -16.11898,9.4537 -7.73574,4.24697 0.008,-0.003 3.5678,-2.04523 -10.87745,6.60868 -8.69651,4.96342 3.16352,-2.21438 7.04205,-4.09667 10.13123,-5.89051 2.62507,-1.52435 -5.26794,3.01786 -7.90766,4.51669 -0.21397,0.12149 0.42007,-0.25634 0.63011,-0.38451 3.5198,-2.03687 6.98208,-4.1821 10.58186,-6.07547 0.0556,-0.0336 0.14039,-0.0699 0.19463,-0.0952 -0.004,0.003 -0.008,0.005 -0.0125,0.008 0,0 -8.65898,4.99926 -8.65898,4.99926 l 0,0 c 0.004,-0.002 0.008,-0.005 0.0118,-0.007 -0.0367,0.0171 -0.11808,0.0459 -0.15614,0.073 -4.8195,2.49585 10.82091,-6.25011 6.50785,-3.79129 -5.54517,3.38698 -18.41798,10.71847 -1.75739,1.03929 0.93751,-0.54466 -2.03821,1.10898 -0.98147,0.65276 -1.56115,1.27086 -5.01774,3.41118 -8.50802,4.96962 -4.15764,2.24215 26.14763,-15.01543 -0.0454,0.0247 -0.11149,0.0453 -0.36869,0.16551 -0.49007,0.23338 -2.19052,1.11481 -4.35022,2.28934 -6.50153,3.47767 13.03316,-7.58724 1.02701,-0.97149 -1.4488,1.64954 -0.81854,1.21162 -1.89188,2.74706 -1.97421,4.23531 0.0895,0.56347 0.24744,1.0398 0.63239,1.47623 0.41107,0.49715 0.40832,1.06203 0.66655,1.66264 0.77113,1.30547 2.17253,1.89669 3.41589,2.67778 1.11359,0.51498 2.16379,0.88125 3.40716,0.93365 0.42922,0.0181 0.86329,0.0284 1.28836,-0.0338 0.41538,-0.0608 1.56482,-0.56434 1.2147,-0.3327 -2.24112,1.48273 -4.62139,2.74356 -6.93208,4.11535 3.83327,-3.56263 4.28496,-7.74403 4.83061,-12.74947 0.50146,-6.81024 0.20332,-13.65362 0.31262,-20.47838 0.0823,-4.38586 0.0518,-8.78874 0.46972,-13.15782 0,0 8.46967,-4.88997 8.46967,-4.88997 z"
         id="path11562" />
    </symbol>
  </defs>
  <metadata
     id="metadata13821">
    <rdf:RDF>
      <cc:Work>
        <dc:format>image/svg+xml</dc:format>
        <dc:type
           rdf:resource="http://purl.org/dc/dcmitype/StillImage" />
        <dc:title />
      </cc:Work>
    </rdf:RDF>
  </metadata>
  <g
     inkscape:groupmode="layer"
     id="layer0"
     inkscape:label="Background Fill"
     sodipodi:insensitive="true">
    <rect
       style="fill:#3c4747"
       width="1050"
       height="800"
       x="-10"
       y="-22"
       id="rect13824" />
  </g>
  <g
     id="layer1"
     inkscape:groupmode="layer"
     inkscape:label="Layer 1">
    <text
       xml:space="preserve"
       style="font-size:42.66666794px;line-height:125%;font-family:'KG Miss Speechy IPA';text-align:start;letter-spacing:0px;word-spacing:0px;text-anchor:start;fill:#f5f3f2;stroke:none;stroke-width:1px;stroke-linecap:butt;stroke-linejoin:miter;stroke-opacity:1"
       x="27.415985"
       y="63"
       id="text18727"
       sodipodi:linespacing="125%"><tspan
         sodipodi:role="line"
         x="27.415985"
         y="63"
         id="tspan18733"
         style="font-style:normal;font-variant:normal;font-weight:normal;font-stretch:normal;font-size:42.66666794px;font-family:'Sansita One';-inkscape-font-specification:'Sansita One';text-align:start;text-anchor:start">Algebraic Thinking</tspan></text>
    <text
       xml:space="preserve"
       style="font-size:64px;line-height:125%;font-family:'KG Miss Speechy IPA';letter-spacing:0px;word-spacing:0px;fill:#90969b;stroke:#000000;stroke-width:1px;stroke-linecap:butt;stroke-linejoin:miter;stroke-opacity:1"
       x="810"
       y="288"
       id="text9648"
       sodipodi:linespacing="125%"><tspan
         sodipodi:role="line"
         x="810"
         y="288"
         id="tspan9656" /></text>
    <text
       xml:space="preserve"
       style="font-size:32.08617783px;line-height:125%;font-family:'KG Miss Speechy IPA';text-align:start;letter-spacing:0px;word-spacing:0px;text-anchor:start;fill:#cccccc;stroke:none;stroke-width:1.00269306px;stroke-linecap:butt;stroke-linejoin:miter;stroke-opacity:1"
       x="68.254913"
       y="248.85684"
       id="text8973"
       sodipodi:linespacing="125%"
       transform="scale(0.99731414,1.0026931)"><tspan
         sodipodi:role="line"
         x="68.254913"
         y="248.85684"
         style="font-size:32.08617783px;text-align:start;text-anchor:start;fill:#cccccc;stroke:none;stroke-width:1.00269306px"
         id="tspan8979">What are the essential <tspan
   style="fill:#79d1ed"
   id="tspan9035">building blocks</tspan>?  </tspan></text>
    <text
       transform="scale(0.99731414,1.0026931)"
       sodipodi:linespacing="125%"
       id="text9041"
       y="328.642"
       x="68.254913"
       style="font-size:32.08617783px;line-height:125%;font-family:'KG Miss Speechy IPA';text-align:start;letter-spacing:0px;word-spacing:0px;text-anchor:start;fill:#cccccc;stroke:none;stroke-width:1.00269306px;stroke-linecap:butt;stroke-linejoin:miter;stroke-opacity:1"
       xml:space="preserve"><tspan
         id="tspan9043"
         style="font-size:32.08617783px;text-align:start;text-anchor:start;fill:#cccccc;stroke:none;stroke-width:1.00269306px"
         y="328.642"
         x="68.254913"
         sodipodi:role="line">How to <tspan
   style="fill:#79d1ed"
   id="tspan9047">combine</tspan> them to get larger structures?</tspan></text>
    <text
       xml:space="preserve"
       style="font-size:32.08617783px;line-height:125%;font-family:'KG Miss Speechy IPA';text-align:start;letter-spacing:0px;word-spacing:0px;text-anchor:start;fill:#cccccc;stroke:none;stroke-width:1.00269306px;stroke-linecap:butt;stroke-linejoin:miter;stroke-opacity:1"
       x="68.254913"
       y="408.42715"
       id="text9055"
       sodipodi:linespacing="125%"
       transform="scale(0.99731414,1.0026931)"><tspan
         sodipodi:role="line"
         x="68.254913"
         y="408.42715"
         style="font-size:32.08617783px;text-align:start;text-anchor:start;fill:#cccccc;stroke:none;stroke-width:1.00269306px"
         id="tspan9057">Are there things we can't build this way?</tspan></text>
    <text
       transform="scale(0.99731414,1.0026931)"
       sodipodi:linespacing="125%"
       id="text9061"
       y="488.21231"
       x="68.254913"
       style="font-size:32.08617783px;line-height:125%;font-family:'KG Miss Speechy IPA';text-align:start;letter-spacing:0px;word-spacing:0px;text-anchor:start;fill:#cccccc;stroke:none;stroke-width:1.00269306px;stroke-linecap:butt;stroke-linejoin:miter;stroke-opacity:1"
       xml:space="preserve"><tspan
         id="tspan9063"
         style="font-size:32.08617783px;text-align:start;text-anchor:start;fill:#cccccc;stroke:none;stroke-width:1.00269306px"
         y="488.21231"
         x="68.254913"
         sodipodi:role="line">Can we bring back those building blocks and ways of</tspan><tspan
         style="font-size:32.08617783px;text-align:start;text-anchor:start;fill:#cccccc;stroke:none;stroke-width:1.00269306px"
         y="528.32001"
         x="68.254913"
         sodipodi:role="line"
         id="tspan9065">combining them to well-known algebraic systems?</tspan></text>
    <g
       id="g9085"
       transform="matrix(0.81303281,0,0,0.81303281,71.597222,19.369646)">
      <path
         inkscape:connector-curvature="0"
         d="m -49.381966,248.66175 c 0,7.59489 0,15.18979 0,22.78468 0,4.20074 0,8.40148 0,12.60221 -3.416889,4.74993 -3.236068,2.84503 -3.236068,0.95006 0,0 3.236068,-2.35114 3.236068,-2.35114 l 0,0 c 0,0.94828 0.07607,8.0852 -3.236068,3.75223 0,-4.20074 0,-8.40148 0,-12.60222 0,-7.59489 0,-15.18979 0,-22.78468 0,0 3.236068,-2.35114 3.236068,-2.35114 z"
         id="path9077"
         style="fill:#cccccc;stroke:none;stroke-width:1px;stroke-linecap:butt;stroke-linejoin:miter;stroke-opacity:1" />
      <path
         inkscape:connector-curvature="0"
         d="m -52.925002,248.00954 c 5.698357,4.34262 11.229326,8.91576 16.815053,13.40648 3.593432,2.87797 7.191082,5.75075 10.80445,8.60367 0.216983,0.17461 0.617416,0.48642 0.813188,0.63256 0,0 -2.715843,2.9367 -2.715843,2.9367 l 0,0 c -0.284427,-0.22734 -0.57496,-0.4473 -0.858814,-0.67543 -3.614885,-2.85476 -7.214496,-5.72883 -10.809536,-8.60852 -5.566881,-4.47616 -11.077319,-9.03768 -16.763087,-13.3576 0,0 2.714589,-2.93786 2.714589,-2.93786 z"
         id="path9079"
         style="fill:#cccccc;stroke:none;stroke-width:1px;stroke-linecap:butt;stroke-linejoin:miter;stroke-opacity:1" />
      <path
         inkscape:connector-curvature="0"
         d="m -53.022367,285.80159 c 6.662275,-4.02917 12.956372,-8.61163 19.645924,-12.60419 2.986259,-1.67078 5.94016,-3.43451 9.068958,-4.83357 1.937654,-0.74267 -0.242388,0.9337 -1.989058,3.3218 0,0 2.154862,-3.36995 2.154862,-3.36995 l 0,0 c -1.38158,2.48477 -0.793056,2.81865 -2.228001,3.47559 -3.07755,1.47314 -6.042958,3.17024 -8.994849,4.87709 -6.673663,4.03193 -12.95675,8.66178 -19.699227,12.57311 0,0 2.041391,-3.43988 2.041391,-3.43988 z"
         id="path9081"
         style="fill:#cccccc;stroke:none;stroke-width:1px;stroke-linecap:butt;stroke-linejoin:miter;stroke-opacity:1" />
      <path
         inkscape:connector-curvature="0"
         d="m -47.227445,280.51443 c 4.626308,-3.5541 9.079991,-7.32649 13.51814,-11.11096 2.835671,-2.44412 3.71434,-1.96124 -0.688784,2.67664 -0.431161,0.45415 -1.065478,0.6583 -1.598467,0.98705 -0.701298,0.43255 -1.40293,0.86457 -2.104394,1.29685 -3.774908,2.13257 -7.533808,4.29336 -11.296173,6.44796 -0.602996,0.66857 -1.752781,-0.15612 -1.085022,-1.05869 1.762101,-2.38171 5.319453,-5.21409 7.689168,-7.26831 2.296868,-1.99247 4.835793,-3.67547 7.237322,-5.5309 1.243848,-0.961 0.43824,-0.46025 0.958057,-0.77631 -0.870447,1.35685 -1.610968,2.80644 -2.61134,4.07055 -0.431679,0.54548 -1.092478,0.86147 -1.635626,1.29608 -0.676712,0.54149 -1.341138,1.09839 -2.023922,1.63221 -1.918394,1.49984 -3.885149,2.94282 -5.831055,4.40681 -1.135747,0.85118 -1.344391,1.0087 -2.39842,1.79485 -0.245786,0.18333 -0.505871,0.3488 -0.737873,0.54928 -0.08925,0.0771 -0.284865,0.37579 -0.219224,0.27778 3.153405,-4.70824 1.515919,-3.23972 4.441423,-5.37582 1.905493,-1.39957 3.723726,-2.92927 5.496923,-4.49282 0.560108,-0.49388 1.053258,-1.06481 1.64287,-1.52307 0.530785,-0.41254 -0.928246,0.98146 -1.46565,1.38533 -0.270159,0.20304 0.435727,-0.51669 0.65359,-0.77504 0.197527,-0.68815 0.481481,0.23215 0.412946,0.41482 -0.10327,0.27526 -0.443009,0.38724 -0.676509,0.56587 -0.455049,0.34812 -0.924639,0.67681 -1.388135,1.0136 -2.929228,2.12845 -0.909438,0.63613 -3.94363,2.90114 -1.089524,0.92967 -2.331825,1.67057 -3.422778,2.59907 -0.296539,0.25238 -1.00303,1.17641 -0.818504,0.83351 2.188371,-4.06663 2.613281,-3.98103 5.390688,-6.6639 0.610753,-0.60889 1.226958,-1.21235 1.832259,-1.82666 0.313248,-0.31791 -1.256724,1.26721 -0.956032,0.9374 1.116747,-1.22489 2.267222,-2.35414 3.295186,-3.65673 -0.0229,0.31881 0.108789,0.6906 -0.06869,0.95642 -0.311878,0.46711 -0.865101,0.71662 -1.292024,1.08158 -0.583894,0.49915 -1.163503,1.00334 -1.74031,1.51066 -1.52457,1.34093 -3.022556,2.71095 -4.516974,4.0852 -0.238125,0.21359 -0.408066,0.54858 -0.714375,0.64076 -0.495157,0.14903 -0.677539,-0.97318 -0.513883,-1.4637 0.280595,-0.84101 2.187263,-2.64108 2.791294,-3.32106 0.887853,-0.94049 1.733714,-1.92101 2.510205,-2.95574 0.37887,-0.50487 0.476983,-0.72372 0.512694,-0.66903 0.168251,0.25766 0.232753,0.56974 0.349129,0.85461 -2.644887,2.5986 -5.395968,5.10599 -8.259763,7.46276 -2.550048,-0.22184 2.987695,-5.5355 3.389865,-5.99547 0.120924,0.0863 1.380011,-1.75385 1.381854,-1.7523 0.924706,0.7786 -0.762919,1.70075 -1.192096,2.07806 -0.773915,0.32599 -2.290448,2.47672 -2.990896,2.74348 -0.12971,0.0494 -0.320644,-0.0258 -0.389952,-0.14602 -0.181187,-0.31437 -0.198444,-0.69803 -0.297666,-1.04705 1.540824,-1.86576 3.097557,-3.74155 4.434327,-5.76268 0.102966,0.39192 0.414602,0.78456 0.308897,1.17575 -0.07188,0.26602 -3.822443,3.59596 -4.327986,3.87477 -0.211999,-0.3102 -0.593748,-0.55727 -0.635998,-0.93062 -0.09417,-0.83211 2.023094,-3.57861 2.486031,-4.51617 0.08362,0.23292 0.290263,0.45443 0.250853,0.69874 -0.03081,0.19101 -1.881361,1.69192 -2.191957,1.9844 -2.120197,0.24512 0.57084,-3.11119 0.860947,-3.58527 0.02008,0.037 0.973472,-1.8292 0.983692,-1.81202 0.169157,0.28426 0.402384,0.60182 0.350273,0.92848 -0.04659,0.29207 -0.401553,0.43435 -0.602329,0.65153 0.661107,-0.65459 1.322215,-1.30918 1.983323,-1.96377 -1.238354,1.3132 -1.882348,2.20304 -4.196962,2.37649 -0.394006,0.0295 0.376528,-0.69504 0.579669,-1.03392 0.572145,-0.95448 0.769579,-1.20016 1.398254,-2.09032 1.220535,-1.694 1.656256,-2.33778 4.197305,-2.82976 0.0084,-0.002 -1.060435,1.39507 -1.09352,1.43837 -1.144853,1.54273 -1.175982,1.37489 -3.931678,2.4781 -0.165793,0.0664 0.185364,-0.30901 0.309822,-0.43708 2.65294,-2.73002 1.997033,-2.18743 3.424141,-3.32234 0.309308,-0.23483 0.615878,-0.47887 0.962481,-0.65599 0.135258,-0.009 0.238931,0.0616 0.375301,0.11339 0,0 -2.385251,3.21101 -2.385251,3.21101 l 0,0 c 0.02225,0.0507 0.05159,0.11131 0.03781,0.15564 -0.284441,0.24042 -0.587006,0.45954 -0.862839,0.7106 -1.237063,1.13096 0.303759,-0.26769 1.99959,-2.05317 0.112101,-0.11803 -0.244412,0.21714 -0.3817,0.3046 -1.223467,0.77941 -2.433205,1.58394 -3.697979,2.29436 -0.317809,0.17851 1.292541,-1.51549 0.635238,-0.89011 0.36644,-0.47658 0.61483,-1.07271 1.09743,-1.43119 4.442532,-3.29987 4.980073,-3.76225 3.434023,-1.80662 -0.207365,0.2623 -0.410405,0.52798 -0.615607,0.79198 -0.220855,0.2976 -1.982378,3.01483 -2.021578,3.04693 -6.836493,5.59825 -4.126294,2.87019 -2.82237,1.45595 1.132877,-1.1411 2.254428,-2.29356 3.398629,-3.42331 0.217196,-0.21445 0.382041,-0.56716 0.684494,-0.60824 2.119942,-0.2879 0.518989,1.77722 0.225204,2.40173 -0.169528,0.30848 -1.541897,2.72311 -1.915425,2.61015 -0.262003,-0.0792 -0.485868,-0.26855 -0.677516,-0.46398 -0.03708,-0.0378 0.07646,-0.0733 0.114689,-0.10996 0.511047,-0.45433 1.768395,-1.89405 2.496526,-1.80836 0.351234,0.0413 0.629656,0.32222 0.944485,0.48334 -0.0697,0.73796 -1.93922,4.19432 -2.560546,4.40627 -0.232727,0.0794 -0.459345,-0.17567 -0.689017,-0.2635 0.671694,-0.56934 3.826602,-3.83225 4.254454,-3.91477 0.434204,-0.0837 0.852352,0.23597 1.278528,0.35396 -1.07197,2.18352 -2.938713,3.94489 -4.36351,5.89034 -0.349557,-0.1266 -1.210637,-0.17252 -1.005513,-0.48259 0.727817,-1.10017 2.214034,-1.69891 3.027717,-2.72416 0.162717,-0.13154 1.399571,-1.24048 1.812557,-1.2166 1.984916,0.11475 0.09629,2.10806 -0.340246,2.55806 -0.443426,0.51261 -3.704099,4.35887 -3.945681,4.4853 -1.426739,0.74664 -1.227541,0.25041 -1.103606,-0.15564 2.837968,-2.41292 5.527034,-4.99838 8.365022,-7.40471 0.341355,0.14808 0.728142,0.21866 1.024063,0.44423 0.264233,0.20141 -0.169505,0.65635 -0.357112,0.93056 -0.734635,1.07374 -1.575897,2.07933 -2.479208,3.01381 -0.460026,0.50843 -2.350913,2.94618 -2.839073,3.23249 -0.327324,0.19198 -1.315939,0.19253 -1.129978,-0.13825 0.156404,-0.27821 0.472561,-0.42911 0.708842,-0.64366 1.500789,-1.37154 3.000567,-2.74585 4.541815,-4.07215 0.112657,-0.0969 2.727106,-2.37073 3.192161,-2.50288 0.434845,-0.12357 0.891223,0.15217 1.336835,0.22826 0.102229,1.02606 -0.910535,1.8781 -1.559569,2.58623 -2.471099,2.69612 -5.167888,5.18334 -7.747294,7.77465 -0.544463,0.50423 -1.076585,1.02212 -1.633391,1.51268 -0.407522,0.35905 -1.234265,1.57766 -1.258375,1.03507 -0.141507,-3.1845 3.544832,-4.74052 5.49752,-6.3797 0.209923,-0.15539 7.731033,-6.55095 7.196584,-3.28476 -3.167374,4.2774 -7.639639,7.53534 -11.775296,10.80961 -0.529788,0.38317 -1.343281,1.75525 -1.589365,1.1495 -0.993991,-2.44677 3.113353,-4.34973 4.345407,-5.41265 2.636871,-1.98745 5.256784,-3.98877 7.83774,-6.04837 0.543796,-0.43394 1.462255,-1.96938 1.63622,-1.29576 0.266395,1.03152 -0.804348,1.97308 -1.206522,2.95962 -2.530346,2.3127 -5.680307,3.92757 -8.139806,6.33705 -0.71595,0.6299 -1.439646,1.2511 -2.147852,1.88969 -0.576623,0.51995 -0.989155,1.8832 -1.706283,1.58561 -0.696559,-0.28907 1.301392,-0.93877 1.545507,-1.65233 0.107462,-0.31411 -1.236837,-0.006 -0.973809,-0.20889 0.162834,-0.1254 0.36312,-0.19263 0.544679,-0.28894 3.758504,-2.15206 7.521709,-4.29597 11.272427,-6.46158 0.698229,-0.43412 1.401573,-0.86012 2.094688,-1.30236 0.519327,-0.33136 1.479983,-1.63109 1.542308,-1.01822 0.100731,0.99055 -1.009844,1.72523 -1.376264,2.651 -0.0388,0.098 0.305792,0.10296 0.250681,0.19283 -0.434505,0.70856 -1.759869,0.60826 -1.97125,1.52702 -4.443643,3.7785 -8.922735,7.51566 -13.515839,11.11218 0,0 1.870469,-3.53573 1.870469,-3.53573 z"
         id="path9083"
         style="fill:#cccccc;stroke:none;stroke-width:1px;stroke-linecap:butt;stroke-linejoin:miter;stroke-opacity:1" />
    </g>
    <g
       transform="matrix(0.81303281,0,0,0.81303281,71.597222,99.369646)"
       id="g9091">
      <path
         style="fill:#cccccc;stroke:none;stroke-width:1px;stroke-linecap:butt;stroke-linejoin:miter;stroke-opacity:1"
         id="path9093"
         d="m -49.381966,248.66175 c 0,7.59489 0,15.18979 0,22.78468 0,4.20074 0,8.40148 0,12.60221 -3.416889,4.74993 -3.236068,2.84503 -3.236068,0.95006 0,0 3.236068,-2.35114 3.236068,-2.35114 l 0,0 c 0,0.94828 0.07607,8.0852 -3.236068,3.75223 0,-4.20074 0,-8.40148 0,-12.60222 0,-7.59489 0,-15.18979 0,-22.78468 0,0 3.236068,-2.35114 3.236068,-2.35114 z"
         inkscape:connector-curvature="0" />
      <path
         style="fill:#cccccc;stroke:none;stroke-width:1px;stroke-linecap:butt;stroke-linejoin:miter;stroke-opacity:1"
         id="path9095"
         d="m -52.925002,248.00954 c 5.698357,4.34262 11.229326,8.91576 16.815053,13.40648 3.593432,2.87797 7.191082,5.75075 10.80445,8.60367 0.216983,0.17461 0.617416,0.48642 0.813188,0.63256 0,0 -2.715843,2.9367 -2.715843,2.9367 l 0,0 c -0.284427,-0.22734 -0.57496,-0.4473 -0.858814,-0.67543 -3.614885,-2.85476 -7.214496,-5.72883 -10.809536,-8.60852 -5.566881,-4.47616 -11.077319,-9.03768 -16.763087,-13.3576 0,0 2.714589,-2.93786 2.714589,-2.93786 z"
         inkscape:connector-curvature="0" />
      <path
         style="fill:#cccccc;stroke:none;stroke-width:1px;stroke-linecap:butt;stroke-linejoin:miter;stroke-opacity:1"
         id="path9097"
         d="m -53.022367,285.80159 c 6.662275,-4.02917 12.956372,-8.61163 19.645924,-12.60419 2.986259,-1.67078 5.94016,-3.43451 9.068958,-4.83357 1.937654,-0.74267 -0.242388,0.9337 -1.989058,3.3218 0,0 2.154862,-3.36995 2.154862,-3.36995 l 0,0 c -1.38158,2.48477 -0.793056,2.81865 -2.228001,3.47559 -3.07755,1.47314 -6.042958,3.17024 -8.994849,4.87709 -6.673663,4.03193 -12.95675,8.66178 -19.699227,12.57311 0,0 2.041391,-3.43988 2.041391,-3.43988 z"
         inkscape:connector-curvature="0" />
      <path
         style="fill:#cccccc;stroke:none;stroke-width:1px;stroke-linecap:butt;stroke-linejoin:miter;stroke-opacity:1"
         id="path9099"
         d="m -47.227445,280.51443 c 4.626308,-3.5541 9.079991,-7.32649 13.51814,-11.11096 2.835671,-2.44412 3.71434,-1.96124 -0.688784,2.67664 -0.431161,0.45415 -1.065478,0.6583 -1.598467,0.98705 -0.701298,0.43255 -1.40293,0.86457 -2.104394,1.29685 -3.774908,2.13257 -7.533808,4.29336 -11.296173,6.44796 -0.602996,0.66857 -1.752781,-0.15612 -1.085022,-1.05869 1.762101,-2.38171 5.319453,-5.21409 7.689168,-7.26831 2.296868,-1.99247 4.835793,-3.67547 7.237322,-5.5309 1.243848,-0.961 0.43824,-0.46025 0.958057,-0.77631 -0.870447,1.35685 -1.610968,2.80644 -2.61134,4.07055 -0.431679,0.54548 -1.092478,0.86147 -1.635626,1.29608 -0.676712,0.54149 -1.341138,1.09839 -2.023922,1.63221 -1.918394,1.49984 -3.885149,2.94282 -5.831055,4.40681 -1.135747,0.85118 -1.344391,1.0087 -2.39842,1.79485 -0.245786,0.18333 -0.505871,0.3488 -0.737873,0.54928 -0.08925,0.0771 -0.284865,0.37579 -0.219224,0.27778 3.153405,-4.70824 1.515919,-3.23972 4.441423,-5.37582 1.905493,-1.39957 3.723726,-2.92927 5.496923,-4.49282 0.560108,-0.49388 1.053258,-1.06481 1.64287,-1.52307 0.530785,-0.41254 -0.928246,0.98146 -1.46565,1.38533 -0.270159,0.20304 0.435727,-0.51669 0.65359,-0.77504 0.197527,-0.68815 0.481481,0.23215 0.412946,0.41482 -0.10327,0.27526 -0.443009,0.38724 -0.676509,0.56587 -0.455049,0.34812 -0.924639,0.67681 -1.388135,1.0136 -2.929228,2.12845 -0.909438,0.63613 -3.94363,2.90114 -1.089524,0.92967 -2.331825,1.67057 -3.422778,2.59907 -0.296539,0.25238 -1.00303,1.17641 -0.818504,0.83351 2.188371,-4.06663 2.613281,-3.98103 5.390688,-6.6639 0.610753,-0.60889 1.226958,-1.21235 1.832259,-1.82666 0.313248,-0.31791 -1.256724,1.26721 -0.956032,0.9374 1.116747,-1.22489 2.267222,-2.35414 3.295186,-3.65673 -0.0229,0.31881 0.108789,0.6906 -0.06869,0.95642 -0.311878,0.46711 -0.865101,0.71662 -1.292024,1.08158 -0.583894,0.49915 -1.163503,1.00334 -1.74031,1.51066 -1.52457,1.34093 -3.022556,2.71095 -4.516974,4.0852 -0.238125,0.21359 -0.408066,0.54858 -0.714375,0.64076 -0.495157,0.14903 -0.677539,-0.97318 -0.513883,-1.4637 0.280595,-0.84101 2.187263,-2.64108 2.791294,-3.32106 0.887853,-0.94049 1.733714,-1.92101 2.510205,-2.95574 0.37887,-0.50487 0.476983,-0.72372 0.512694,-0.66903 0.168251,0.25766 0.232753,0.56974 0.349129,0.85461 -2.644887,2.5986 -5.395968,5.10599 -8.259763,7.46276 -2.550048,-0.22184 2.987695,-5.5355 3.389865,-5.99547 0.120924,0.0863 1.380011,-1.75385 1.381854,-1.7523 0.924706,0.7786 -0.762919,1.70075 -1.192096,2.07806 -0.773915,0.32599 -2.290448,2.47672 -2.990896,2.74348 -0.12971,0.0494 -0.320644,-0.0258 -0.389952,-0.14602 -0.181187,-0.31437 -0.198444,-0.69803 -0.297666,-1.04705 1.540824,-1.86576 3.097557,-3.74155 4.434327,-5.76268 0.102966,0.39192 0.414602,0.78456 0.308897,1.17575 -0.07188,0.26602 -3.822443,3.59596 -4.327986,3.87477 -0.211999,-0.3102 -0.593748,-0.55727 -0.635998,-0.93062 -0.09417,-0.83211 2.023094,-3.57861 2.486031,-4.51617 0.08362,0.23292 0.290263,0.45443 0.250853,0.69874 -0.03081,0.19101 -1.881361,1.69192 -2.191957,1.9844 -2.120197,0.24512 0.57084,-3.11119 0.860947,-3.58527 0.02008,0.037 0.973472,-1.8292 0.983692,-1.81202 0.169157,0.28426 0.402384,0.60182 0.350273,0.92848 -0.04659,0.29207 -0.401553,0.43435 -0.602329,0.65153 0.661107,-0.65459 1.322215,-1.30918 1.983323,-1.96377 -1.238354,1.3132 -1.882348,2.20304 -4.196962,2.37649 -0.394006,0.0295 0.376528,-0.69504 0.579669,-1.03392 0.572145,-0.95448 0.769579,-1.20016 1.398254,-2.09032 1.220535,-1.694 1.656256,-2.33778 4.197305,-2.82976 0.0084,-0.002 -1.060435,1.39507 -1.09352,1.43837 -1.144853,1.54273 -1.175982,1.37489 -3.931678,2.4781 -0.165793,0.0664 0.185364,-0.30901 0.309822,-0.43708 2.65294,-2.73002 1.997033,-2.18743 3.424141,-3.32234 0.309308,-0.23483 0.615878,-0.47887 0.962481,-0.65599 0.135258,-0.009 0.238931,0.0616 0.375301,0.11339 0,0 -2.385251,3.21101 -2.385251,3.21101 l 0,0 c 0.02225,0.0507 0.05159,0.11131 0.03781,0.15564 -0.284441,0.24042 -0.587006,0.45954 -0.862839,0.7106 -1.237063,1.13096 0.303759,-0.26769 1.99959,-2.05317 0.112101,-0.11803 -0.244412,0.21714 -0.3817,0.3046 -1.223467,0.77941 -2.433205,1.58394 -3.697979,2.29436 -0.317809,0.17851 1.292541,-1.51549 0.635238,-0.89011 0.36644,-0.47658 0.61483,-1.07271 1.09743,-1.43119 4.442532,-3.29987 4.980073,-3.76225 3.434023,-1.80662 -0.207365,0.2623 -0.410405,0.52798 -0.615607,0.79198 -0.220855,0.2976 -1.982378,3.01483 -2.021578,3.04693 -6.836493,5.59825 -4.126294,2.87019 -2.82237,1.45595 1.132877,-1.1411 2.254428,-2.29356 3.398629,-3.42331 0.217196,-0.21445 0.382041,-0.56716 0.684494,-0.60824 2.119942,-0.2879 0.518989,1.77722 0.225204,2.40173 -0.169528,0.30848 -1.541897,2.72311 -1.915425,2.61015 -0.262003,-0.0792 -0.485868,-0.26855 -0.677516,-0.46398 -0.03708,-0.0378 0.07646,-0.0733 0.114689,-0.10996 0.511047,-0.45433 1.768395,-1.89405 2.496526,-1.80836 0.351234,0.0413 0.629656,0.32222 0.944485,0.48334 -0.0697,0.73796 -1.93922,4.19432 -2.560546,4.40627 -0.232727,0.0794 -0.459345,-0.17567 -0.689017,-0.2635 0.671694,-0.56934 3.826602,-3.83225 4.254454,-3.91477 0.434204,-0.0837 0.852352,0.23597 1.278528,0.35396 -1.07197,2.18352 -2.938713,3.94489 -4.36351,5.89034 -0.349557,-0.1266 -1.210637,-0.17252 -1.005513,-0.48259 0.727817,-1.10017 2.214034,-1.69891 3.027717,-2.72416 0.162717,-0.13154 1.399571,-1.24048 1.812557,-1.2166 1.984916,0.11475 0.09629,2.10806 -0.340246,2.55806 -0.443426,0.51261 -3.704099,4.35887 -3.945681,4.4853 -1.426739,0.74664 -1.227541,0.25041 -1.103606,-0.15564 2.837968,-2.41292 5.527034,-4.99838 8.365022,-7.40471 0.341355,0.14808 0.728142,0.21866 1.024063,0.44423 0.264233,0.20141 -0.169505,0.65635 -0.357112,0.93056 -0.734635,1.07374 -1.575897,2.07933 -2.479208,3.01381 -0.460026,0.50843 -2.350913,2.94618 -2.839073,3.23249 -0.327324,0.19198 -1.315939,0.19253 -1.129978,-0.13825 0.156404,-0.27821 0.472561,-0.42911 0.708842,-0.64366 1.500789,-1.37154 3.000567,-2.74585 4.541815,-4.07215 0.112657,-0.0969 2.727106,-2.37073 3.192161,-2.50288 0.434845,-0.12357 0.891223,0.15217 1.336835,0.22826 0.102229,1.02606 -0.910535,1.8781 -1.559569,2.58623 -2.471099,2.69612 -5.167888,5.18334 -7.747294,7.77465 -0.544463,0.50423 -1.076585,1.02212 -1.633391,1.51268 -0.407522,0.35905 -1.234265,1.57766 -1.258375,1.03507 -0.141507,-3.1845 3.544832,-4.74052 5.49752,-6.3797 0.209923,-0.15539 7.731033,-6.55095 7.196584,-3.28476 -3.167374,4.2774 -7.639639,7.53534 -11.775296,10.80961 -0.529788,0.38317 -1.343281,1.75525 -1.589365,1.1495 -0.993991,-2.44677 3.113353,-4.34973 4.345407,-5.41265 2.636871,-1.98745 5.256784,-3.98877 7.83774,-6.04837 0.543796,-0.43394 1.462255,-1.96938 1.63622,-1.29576 0.266395,1.03152 -0.804348,1.97308 -1.206522,2.95962 -2.530346,2.3127 -5.680307,3.92757 -8.139806,6.33705 -0.71595,0.6299 -1.439646,1.2511 -2.147852,1.88969 -0.576623,0.51995 -0.989155,1.8832 -1.706283,1.58561 -0.696559,-0.28907 1.301392,-0.93877 1.545507,-1.65233 0.107462,-0.31411 -1.236837,-0.006 -0.973809,-0.20889 0.162834,-0.1254 0.36312,-0.19263 0.544679,-0.28894 3.758504,-2.15206 7.521709,-4.29597 11.272427,-6.46158 0.698229,-0.43412 1.401573,-0.86012 2.094688,-1.30236 0.519327,-0.33136 1.479983,-1.63109 1.542308,-1.01822 0.100731,0.99055 -1.009844,1.72523 -1.376264,2.651 -0.0388,0.098 0.305792,0.10296 0.250681,0.19283 -0.434505,0.70856 -1.759869,0.60826 -1.97125,1.52702 -4.443643,3.7785 -8.922735,7.51566 -13.515839,11.11218 0,0 1.870469,-3.53573 1.870469,-3.53573 z"
         inkscape:connector-curvature="0" />
    </g>
    <g
       id="g9101"
       transform="matrix(0.81303281,0,0,0.81303281,71.597222,179.36965)">
      <path
         inkscape:connector-curvature="0"
         d="m -49.381966,248.66175 c 0,7.59489 0,15.18979 0,22.78468 0,4.20074 0,8.40148 0,12.60221 -3.416889,4.74993 -3.236068,2.84503 -3.236068,0.95006 0,0 3.236068,-2.35114 3.236068,-2.35114 l 0,0 c 0,0.94828 0.07607,8.0852 -3.236068,3.75223 0,-4.20074 0,-8.40148 0,-12.60222 0,-7.59489 0,-15.18979 0,-22.78468 0,0 3.236068,-2.35114 3.236068,-2.35114 z"
         id="path9103"
         style="fill:#cccccc;stroke:none;stroke-width:1px;stroke-linecap:butt;stroke-linejoin:miter;stroke-opacity:1" />
      <path
         inkscape:connector-curvature="0"
         d="m -52.925002,248.00954 c 5.698357,4.34262 11.229326,8.91576 16.815053,13.40648 3.593432,2.87797 7.191082,5.75075 10.80445,8.60367 0.216983,0.17461 0.617416,0.48642 0.813188,0.63256 0,0 -2.715843,2.9367 -2.715843,2.9367 l 0,0 c -0.284427,-0.22734 -0.57496,-0.4473 -0.858814,-0.67543 -3.614885,-2.85476 -7.214496,-5.72883 -10.809536,-8.60852 -5.566881,-4.47616 -11.077319,-9.03768 -16.763087,-13.3576 0,0 2.714589,-2.93786 2.714589,-2.93786 z"
         id="path9105"
         style="fill:#cccccc;stroke:none;stroke-width:1px;stroke-linecap:butt;stroke-linejoin:miter;stroke-opacity:1" />
      <path
         inkscape:connector-curvature="0"
         d="m -53.022367,285.80159 c 6.662275,-4.02917 12.956372,-8.61163 19.645924,-12.60419 2.986259,-1.67078 5.94016,-3.43451 9.068958,-4.83357 1.937654,-0.74267 -0.242388,0.9337 -1.989058,3.3218 0,0 2.154862,-3.36995 2.154862,-3.36995 l 0,0 c -1.38158,2.48477 -0.793056,2.81865 -2.228001,3.47559 -3.07755,1.47314 -6.042958,3.17024 -8.994849,4.87709 -6.673663,4.03193 -12.95675,8.66178 -19.699227,12.57311 0,0 2.041391,-3.43988 2.041391,-3.43988 z"
         id="path9107"
         style="fill:#cccccc;stroke:none;stroke-width:1px;stroke-linecap:butt;stroke-linejoin:miter;stroke-opacity:1" />
      <path
         inkscape:connector-curvature="0"
         d="m -47.227445,280.51443 c 4.626308,-3.5541 9.079991,-7.32649 13.51814,-11.11096 2.835671,-2.44412 3.71434,-1.96124 -0.688784,2.67664 -0.431161,0.45415 -1.065478,0.6583 -1.598467,0.98705 -0.701298,0.43255 -1.40293,0.86457 -2.104394,1.29685 -3.774908,2.13257 -7.533808,4.29336 -11.296173,6.44796 -0.602996,0.66857 -1.752781,-0.15612 -1.085022,-1.05869 1.762101,-2.38171 5.319453,-5.21409 7.689168,-7.26831 2.296868,-1.99247 4.835793,-3.67547 7.237322,-5.5309 1.243848,-0.961 0.43824,-0.46025 0.958057,-0.77631 -0.870447,1.35685 -1.610968,2.80644 -2.61134,4.07055 -0.431679,0.54548 -1.092478,0.86147 -1.635626,1.29608 -0.676712,0.54149 -1.341138,1.09839 -2.023922,1.63221 -1.918394,1.49984 -3.885149,2.94282 -5.831055,4.40681 -1.135747,0.85118 -1.344391,1.0087 -2.39842,1.79485 -0.245786,0.18333 -0.505871,0.3488 -0.737873,0.54928 -0.08925,0.0771 -0.284865,0.37579 -0.219224,0.27778 3.153405,-4.70824 1.515919,-3.23972 4.441423,-5.37582 1.905493,-1.39957 3.723726,-2.92927 5.496923,-4.49282 0.560108,-0.49388 1.053258,-1.06481 1.64287,-1.52307 0.530785,-0.41254 -0.928246,0.98146 -1.46565,1.38533 -0.270159,0.20304 0.435727,-0.51669 0.65359,-0.77504 0.197527,-0.68815 0.481481,0.23215 0.412946,0.41482 -0.10327,0.27526 -0.443009,0.38724 -0.676509,0.56587 -0.455049,0.34812 -0.924639,0.67681 -1.388135,1.0136 -2.929228,2.12845 -0.909438,0.63613 -3.94363,2.90114 -1.089524,0.92967 -2.331825,1.67057 -3.422778,2.59907 -0.296539,0.25238 -1.00303,1.17641 -0.818504,0.83351 2.188371,-4.06663 2.613281,-3.98103 5.390688,-6.6639 0.610753,-0.60889 1.226958,-1.21235 1.832259,-1.82666 0.313248,-0.31791 -1.256724,1.26721 -0.956032,0.9374 1.116747,-1.22489 2.267222,-2.35414 3.295186,-3.65673 -0.0229,0.31881 0.108789,0.6906 -0.06869,0.95642 -0.311878,0.46711 -0.865101,0.71662 -1.292024,1.08158 -0.583894,0.49915 -1.163503,1.00334 -1.74031,1.51066 -1.52457,1.34093 -3.022556,2.71095 -4.516974,4.0852 -0.238125,0.21359 -0.408066,0.54858 -0.714375,0.64076 -0.495157,0.14903 -0.677539,-0.97318 -0.513883,-1.4637 0.280595,-0.84101 2.187263,-2.64108 2.791294,-3.32106 0.887853,-0.94049 1.733714,-1.92101 2.510205,-2.95574 0.37887,-0.50487 0.476983,-0.72372 0.512694,-0.66903 0.168251,0.25766 0.232753,0.56974 0.349129,0.85461 -2.644887,2.5986 -5.395968,5.10599 -8.259763,7.46276 -2.550048,-0.22184 2.987695,-5.5355 3.389865,-5.99547 0.120924,0.0863 1.380011,-1.75385 1.381854,-1.7523 0.924706,0.7786 -0.762919,1.70075 -1.192096,2.07806 -0.773915,0.32599 -2.290448,2.47672 -2.990896,2.74348 -0.12971,0.0494 -0.320644,-0.0258 -0.389952,-0.14602 -0.181187,-0.31437 -0.198444,-0.69803 -0.297666,-1.04705 1.540824,-1.86576 3.097557,-3.74155 4.434327,-5.76268 0.102966,0.39192 0.414602,0.78456 0.308897,1.17575 -0.07188,0.26602 -3.822443,3.59596 -4.327986,3.87477 -0.211999,-0.3102 -0.593748,-0.55727 -0.635998,-0.93062 -0.09417,-0.83211 2.023094,-3.57861 2.486031,-4.51617 0.08362,0.23292 0.290263,0.45443 0.250853,0.69874 -0.03081,0.19101 -1.881361,1.69192 -2.191957,1.9844 -2.120197,0.24512 0.57084,-3.11119 0.860947,-3.58527 0.02008,0.037 0.973472,-1.8292 0.983692,-1.81202 0.169157,0.28426 0.402384,0.60182 0.350273,0.92848 -0.04659,0.29207 -0.401553,0.43435 -0.602329,0.65153 0.661107,-0.65459 1.322215,-1.30918 1.983323,-1.96377 -1.238354,1.3132 -1.882348,2.20304 -4.196962,2.37649 -0.394006,0.0295 0.376528,-0.69504 0.579669,-1.03392 0.572145,-0.95448 0.769579,-1.20016 1.398254,-2.09032 1.220535,-1.694 1.656256,-2.33778 4.197305,-2.82976 0.0084,-0.002 -1.060435,1.39507 -1.09352,1.43837 -1.144853,1.54273 -1.175982,1.37489 -3.931678,2.4781 -0.165793,0.0664 0.185364,-0.30901 0.309822,-0.43708 2.65294,-2.73002 1.997033,-2.18743 3.424141,-3.32234 0.309308,-0.23483 0.615878,-0.47887 0.962481,-0.65599 0.135258,-0.009 0.238931,0.0616 0.375301,0.11339 0,0 -2.385251,3.21101 -2.385251,3.21101 l 0,0 c 0.02225,0.0507 0.05159,0.11131 0.03781,0.15564 -0.284441,0.24042 -0.587006,0.45954 -0.862839,0.7106 -1.237063,1.13096 0.303759,-0.26769 1.99959,-2.05317 0.112101,-0.11803 -0.244412,0.21714 -0.3817,0.3046 -1.223467,0.77941 -2.433205,1.58394 -3.697979,2.29436 -0.317809,0.17851 1.292541,-1.51549 0.635238,-0.89011 0.36644,-0.47658 0.61483,-1.07271 1.09743,-1.43119 4.442532,-3.29987 4.980073,-3.76225 3.434023,-1.80662 -0.207365,0.2623 -0.410405,0.52798 -0.615607,0.79198 -0.220855,0.2976 -1.982378,3.01483 -2.021578,3.04693 -6.836493,5.59825 -4.126294,2.87019 -2.82237,1.45595 1.132877,-1.1411 2.254428,-2.29356 3.398629,-3.42331 0.217196,-0.21445 0.382041,-0.56716 0.684494,-0.60824 2.119942,-0.2879 0.518989,1.77722 0.225204,2.40173 -0.169528,0.30848 -1.541897,2.72311 -1.915425,2.61015 -0.262003,-0.0792 -0.485868,-0.26855 -0.677516,-0.46398 -0.03708,-0.0378 0.07646,-0.0733 0.114689,-0.10996 0.511047,-0.45433 1.768395,-1.89405 2.496526,-1.80836 0.351234,0.0413 0.629656,0.32222 0.944485,0.48334 -0.0697,0.73796 -1.93922,4.19432 -2.560546,4.40627 -0.232727,0.0794 -0.459345,-0.17567 -0.689017,-0.2635 0.671694,-0.56934 3.826602,-3.83225 4.254454,-3.91477 0.434204,-0.0837 0.852352,0.23597 1.278528,0.35396 -1.07197,2.18352 -2.938713,3.94489 -4.36351,5.89034 -0.349557,-0.1266 -1.210637,-0.17252 -1.005513,-0.48259 0.727817,-1.10017 2.214034,-1.69891 3.027717,-2.72416 0.162717,-0.13154 1.399571,-1.24048 1.812557,-1.2166 1.984916,0.11475 0.09629,2.10806 -0.340246,2.55806 -0.443426,0.51261 -3.704099,4.35887 -3.945681,4.4853 -1.426739,0.74664 -1.227541,0.25041 -1.103606,-0.15564 2.837968,-2.41292 5.527034,-4.99838 8.365022,-7.40471 0.341355,0.14808 0.728142,0.21866 1.024063,0.44423 0.264233,0.20141 -0.169505,0.65635 -0.357112,0.93056 -0.734635,1.07374 -1.575897,2.07933 -2.479208,3.01381 -0.460026,0.50843 -2.350913,2.94618 -2.839073,3.23249 -0.327324,0.19198 -1.315939,0.19253 -1.129978,-0.13825 0.156404,-0.27821 0.472561,-0.42911 0.708842,-0.64366 1.500789,-1.37154 3.000567,-2.74585 4.541815,-4.07215 0.112657,-0.0969 2.727106,-2.37073 3.192161,-2.50288 0.434845,-0.12357 0.891223,0.15217 1.336835,0.22826 0.102229,1.02606 -0.910535,1.8781 -1.559569,2.58623 -2.471099,2.69612 -5.167888,5.18334 -7.747294,7.77465 -0.544463,0.50423 -1.076585,1.02212 -1.633391,1.51268 -0.407522,0.35905 -1.234265,1.57766 -1.258375,1.03507 -0.141507,-3.1845 3.544832,-4.74052 5.49752,-6.3797 0.209923,-0.15539 7.731033,-6.55095 7.196584,-3.28476 -3.167374,4.2774 -7.639639,7.53534 -11.775296,10.80961 -0.529788,0.38317 -1.343281,1.75525 -1.589365,1.1495 -0.993991,-2.44677 3.113353,-4.34973 4.345407,-5.41265 2.636871,-1.98745 5.256784,-3.98877 7.83774,-6.04837 0.543796,-0.43394 1.462255,-1.96938 1.63622,-1.29576 0.266395,1.03152 -0.804348,1.97308 -1.206522,2.95962 -2.530346,2.3127 -5.680307,3.92757 -8.139806,6.33705 -0.71595,0.6299 -1.439646,1.2511 -2.147852,1.88969 -0.576623,0.51995 -0.989155,1.8832 -1.706283,1.58561 -0.696559,-0.28907 1.301392,-0.93877 1.545507,-1.65233 0.107462,-0.31411 -1.236837,-0.006 -0.973809,-0.20889 0.162834,-0.1254 0.36312,-0.19263 0.544679,-0.28894 3.758504,-2.15206 7.521709,-4.29597 11.272427,-6.46158 0.698229,-0.43412 1.401573,-0.86012 2.094688,-1.30236 0.519327,-0.33136 1.479983,-1.63109 1.542308,-1.01822 0.100731,0.99055 -1.009844,1.72523 -1.376264,2.651 -0.0388,0.098 0.305792,0.10296 0.250681,0.19283 -0.434505,0.70856 -1.759869,0.60826 -1.97125,1.52702 -4.443643,3.7785 -8.922735,7.51566 -13.515839,11.11218 0,0 1.870469,-3.53573 1.870469,-3.53573 z"
         id="path9109"
         style="fill:#cccccc;stroke:none;stroke-width:1px;stroke-linecap:butt;stroke-linejoin:miter;stroke-opacity:1" />
    </g>
    <g
       transform="matrix(0.81303281,0,0,0.81303281,71.597222,259.36965)"
       id="g9111">
      <path
         style="fill:#cccccc;stroke:none;stroke-width:1px;stroke-linecap:butt;stroke-linejoin:miter;stroke-opacity:1"
         id="path9113"
         d="m -49.381966,248.66175 c 0,7.59489 0,15.18979 0,22.78468 0,4.20074 0,8.40148 0,12.60221 -3.416889,4.74993 -3.236068,2.84503 -3.236068,0.95006 0,0 3.236068,-2.35114 3.236068,-2.35114 l 0,0 c 0,0.94828 0.07607,8.0852 -3.236068,3.75223 0,-4.20074 0,-8.40148 0,-12.60222 0,-7.59489 0,-15.18979 0,-22.78468 0,0 3.236068,-2.35114 3.236068,-2.35114 z"
         inkscape:connector-curvature="0" />
      <path
         style="fill:#cccccc;stroke:none;stroke-width:1px;stroke-linecap:butt;stroke-linejoin:miter;stroke-opacity:1"
         id="path9115"
         d="m -52.925002,248.00954 c 5.698357,4.34262 11.229326,8.91576 16.815053,13.40648 3.593432,2.87797 7.191082,5.75075 10.80445,8.60367 0.216983,0.17461 0.617416,0.48642 0.813188,0.63256 0,0 -2.715843,2.9367 -2.715843,2.9367 l 0,0 c -0.284427,-0.22734 -0.57496,-0.4473 -0.858814,-0.67543 -3.614885,-2.85476 -7.214496,-5.72883 -10.809536,-8.60852 -5.566881,-4.47616 -11.077319,-9.03768 -16.763087,-13.3576 0,0 2.714589,-2.93786 2.714589,-2.93786 z"
         inkscape:connector-curvature="0" />
      <path
         style="fill:#cccccc;stroke:none;stroke-width:1px;stroke-linecap:butt;stroke-linejoin:miter;stroke-opacity:1"
         id="path9117"
         d="m -53.022367,285.80159 c 6.662275,-4.02917 12.956372,-8.61163 19.645924,-12.60419 2.986259,-1.67078 5.94016,-3.43451 9.068958,-4.83357 1.937654,-0.74267 -0.242388,0.9337 -1.989058,3.3218 0,0 2.154862,-3.36995 2.154862,-3.36995 l 0,0 c -1.38158,2.48477 -0.793056,2.81865 -2.228001,3.47559 -3.07755,1.47314 -6.042958,3.17024 -8.994849,4.87709 -6.673663,4.03193 -12.95675,8.66178 -19.699227,12.57311 0,0 2.041391,-3.43988 2.041391,-3.43988 z"
         inkscape:connector-curvature="0" />
      <path
         style="fill:#cccccc;stroke:none;stroke-width:1px;stroke-linecap:butt;stroke-linejoin:miter;stroke-opacity:1"
         id="path9119"
         d="m -47.227445,280.51443 c 4.626308,-3.5541 9.079991,-7.32649 13.51814,-11.11096 2.835671,-2.44412 3.71434,-1.96124 -0.688784,2.67664 -0.431161,0.45415 -1.065478,0.6583 -1.598467,0.98705 -0.701298,0.43255 -1.40293,0.86457 -2.104394,1.29685 -3.774908,2.13257 -7.533808,4.29336 -11.296173,6.44796 -0.602996,0.66857 -1.752781,-0.15612 -1.085022,-1.05869 1.762101,-2.38171 5.319453,-5.21409 7.689168,-7.26831 2.296868,-1.99247 4.835793,-3.67547 7.237322,-5.5309 1.243848,-0.961 0.43824,-0.46025 0.958057,-0.77631 -0.870447,1.35685 -1.610968,2.80644 -2.61134,4.07055 -0.431679,0.54548 -1.092478,0.86147 -1.635626,1.29608 -0.676712,0.54149 -1.341138,1.09839 -2.023922,1.63221 -1.918394,1.49984 -3.885149,2.94282 -5.831055,4.40681 -1.135747,0.85118 -1.344391,1.0087 -2.39842,1.79485 -0.245786,0.18333 -0.505871,0.3488 -0.737873,0.54928 -0.08925,0.0771 -0.284865,0.37579 -0.219224,0.27778 3.153405,-4.70824 1.515919,-3.23972 4.441423,-5.37582 1.905493,-1.39957 3.723726,-2.92927 5.496923,-4.49282 0.560108,-0.49388 1.053258,-1.06481 1.64287,-1.52307 0.530785,-0.41254 -0.928246,0.98146 -1.46565,1.38533 -0.270159,0.20304 0.435727,-0.51669 0.65359,-0.77504 0.197527,-0.68815 0.481481,0.23215 0.412946,0.41482 -0.10327,0.27526 -0.443009,0.38724 -0.676509,0.56587 -0.455049,0.34812 -0.924639,0.67681 -1.388135,1.0136 -2.929228,2.12845 -0.909438,0.63613 -3.94363,2.90114 -1.089524,0.92967 -2.331825,1.67057 -3.422778,2.59907 -0.296539,0.25238 -1.00303,1.17641 -0.818504,0.83351 2.188371,-4.06663 2.613281,-3.98103 5.390688,-6.6639 0.610753,-0.60889 1.226958,-1.21235 1.832259,-1.82666 0.313248,-0.31791 -1.256724,1.26721 -0.956032,0.9374 1.116747,-1.22489 2.267222,-2.35414 3.295186,-3.65673 -0.0229,0.31881 0.108789,0.6906 -0.06869,0.95642 -0.311878,0.46711 -0.865101,0.71662 -1.292024,1.08158 -0.583894,0.49915 -1.163503,1.00334 -1.74031,1.51066 -1.52457,1.34093 -3.022556,2.71095 -4.516974,4.0852 -0.238125,0.21359 -0.408066,0.54858 -0.714375,0.64076 -0.495157,0.14903 -0.677539,-0.97318 -0.513883,-1.4637 0.280595,-0.84101 2.187263,-2.64108 2.791294,-3.32106 0.887853,-0.94049 1.733714,-1.92101 2.510205,-2.95574 0.37887,-0.50487 0.476983,-0.72372 0.512694,-0.66903 0.168251,0.25766 0.232753,0.56974 0.349129,0.85461 -2.644887,2.5986 -5.395968,5.10599 -8.259763,7.46276 -2.550048,-0.22184 2.987695,-5.5355 3.389865,-5.99547 0.120924,0.0863 1.380011,-1.75385 1.381854,-1.7523 0.924706,0.7786 -0.762919,1.70075 -1.192096,2.07806 -0.773915,0.32599 -2.290448,2.47672 -2.990896,2.74348 -0.12971,0.0494 -0.320644,-0.0258 -0.389952,-0.14602 -0.181187,-0.31437 -0.198444,-0.69803 -0.297666,-1.04705 1.540824,-1.86576 3.097557,-3.74155 4.434327,-5.76268 0.102966,0.39192 0.414602,0.78456 0.308897,1.17575 -0.07188,0.26602 -3.822443,3.59596 -4.327986,3.87477 -0.211999,-0.3102 -0.593748,-0.55727 -0.635998,-0.93062 -0.09417,-0.83211 2.023094,-3.57861 2.486031,-4.51617 0.08362,0.23292 0.290263,0.45443 0.250853,0.69874 -0.03081,0.19101 -1.881361,1.69192 -2.191957,1.9844 -2.120197,0.24512 0.57084,-3.11119 0.860947,-3.58527 0.02008,0.037 0.973472,-1.8292 0.983692,-1.81202 0.169157,0.28426 0.402384,0.60182 0.350273,0.92848 -0.04659,0.29207 -0.401553,0.43435 -0.602329,0.65153 0.661107,-0.65459 1.322215,-1.30918 1.983323,-1.96377 -1.238354,1.3132 -1.882348,2.20304 -4.196962,2.37649 -0.394006,0.0295 0.376528,-0.69504 0.579669,-1.03392 0.572145,-0.95448 0.769579,-1.20016 1.398254,-2.09032 1.220535,-1.694 1.656256,-2.33778 4.197305,-2.82976 0.0084,-0.002 -1.060435,1.39507 -1.09352,1.43837 -1.144853,1.54273 -1.175982,1.37489 -3.931678,2.4781 -0.165793,0.0664 0.185364,-0.30901 0.309822,-0.43708 2.65294,-2.73002 1.997033,-2.18743 3.424141,-3.32234 0.309308,-0.23483 0.615878,-0.47887 0.962481,-0.65599 0.135258,-0.009 0.238931,0.0616 0.375301,0.11339 0,0 -2.385251,3.21101 -2.385251,3.21101 l 0,0 c 0.02225,0.0507 0.05159,0.11131 0.03781,0.15564 -0.284441,0.24042 -0.587006,0.45954 -0.862839,0.7106 -1.237063,1.13096 0.303759,-0.26769 1.99959,-2.05317 0.112101,-0.11803 -0.244412,0.21714 -0.3817,0.3046 -1.223467,0.77941 -2.433205,1.58394 -3.697979,2.29436 -0.317809,0.17851 1.292541,-1.51549 0.635238,-0.89011 0.36644,-0.47658 0.61483,-1.07271 1.09743,-1.43119 4.442532,-3.29987 4.980073,-3.76225 3.434023,-1.80662 -0.207365,0.2623 -0.410405,0.52798 -0.615607,0.79198 -0.220855,0.2976 -1.982378,3.01483 -2.021578,3.04693 -6.836493,5.59825 -4.126294,2.87019 -2.82237,1.45595 1.132877,-1.1411 2.254428,-2.29356 3.398629,-3.42331 0.217196,-0.21445 0.382041,-0.56716 0.684494,-0.60824 2.119942,-0.2879 0.518989,1.77722 0.225204,2.40173 -0.169528,0.30848 -1.541897,2.72311 -1.915425,2.61015 -0.262003,-0.0792 -0.485868,-0.26855 -0.677516,-0.46398 -0.03708,-0.0378 0.07646,-0.0733 0.114689,-0.10996 0.511047,-0.45433 1.768395,-1.89405 2.496526,-1.80836 0.351234,0.0413 0.629656,0.32222 0.944485,0.48334 -0.0697,0.73796 -1.93922,4.19432 -2.560546,4.40627 -0.232727,0.0794 -0.459345,-0.17567 -0.689017,-0.2635 0.671694,-0.56934 3.826602,-3.83225 4.254454,-3.91477 0.434204,-0.0837 0.852352,0.23597 1.278528,0.35396 -1.07197,2.18352 -2.938713,3.94489 -4.36351,5.89034 -0.349557,-0.1266 -1.210637,-0.17252 -1.005513,-0.48259 0.727817,-1.10017 2.214034,-1.69891 3.027717,-2.72416 0.162717,-0.13154 1.399571,-1.24048 1.812557,-1.2166 1.984916,0.11475 0.09629,2.10806 -0.340246,2.55806 -0.443426,0.51261 -3.704099,4.35887 -3.945681,4.4853 -1.426739,0.74664 -1.227541,0.25041 -1.103606,-0.15564 2.837968,-2.41292 5.527034,-4.99838 8.365022,-7.40471 0.341355,0.14808 0.728142,0.21866 1.024063,0.44423 0.264233,0.20141 -0.169505,0.65635 -0.357112,0.93056 -0.734635,1.07374 -1.575897,2.07933 -2.479208,3.01381 -0.460026,0.50843 -2.350913,2.94618 -2.839073,3.23249 -0.327324,0.19198 -1.315939,0.19253 -1.129978,-0.13825 0.156404,-0.27821 0.472561,-0.42911 0.708842,-0.64366 1.500789,-1.37154 3.000567,-2.74585 4.541815,-4.07215 0.112657,-0.0969 2.727106,-2.37073 3.192161,-2.50288 0.434845,-0.12357 0.891223,0.15217 1.336835,0.22826 0.102229,1.02606 -0.910535,1.8781 -1.559569,2.58623 -2.471099,2.69612 -5.167888,5.18334 -7.747294,7.77465 -0.544463,0.50423 -1.076585,1.02212 -1.633391,1.51268 -0.407522,0.35905 -1.234265,1.57766 -1.258375,1.03507 -0.141507,-3.1845 3.544832,-4.74052 5.49752,-6.3797 0.209923,-0.15539 7.731033,-6.55095 7.196584,-3.28476 -3.167374,4.2774 -7.639639,7.53534 -11.775296,10.80961 -0.529788,0.38317 -1.343281,1.75525 -1.589365,1.1495 -0.993991,-2.44677 3.113353,-4.34973 4.345407,-5.41265 2.636871,-1.98745 5.256784,-3.98877 7.83774,-6.04837 0.543796,-0.43394 1.462255,-1.96938 1.63622,-1.29576 0.266395,1.03152 -0.804348,1.97308 -1.206522,2.95962 -2.530346,2.3127 -5.680307,3.92757 -8.139806,6.33705 -0.71595,0.6299 -1.439646,1.2511 -2.147852,1.88969 -0.576623,0.51995 -0.989155,1.8832 -1.706283,1.58561 -0.696559,-0.28907 1.301392,-0.93877 1.545507,-1.65233 0.107462,-0.31411 -1.236837,-0.006 -0.973809,-0.20889 0.162834,-0.1254 0.36312,-0.19263 0.544679,-0.28894 3.758504,-2.15206 7.521709,-4.29597 11.272427,-6.46158 0.698229,-0.43412 1.401573,-0.86012 2.094688,-1.30236 0.519327,-0.33136 1.479983,-1.63109 1.542308,-1.01822 0.100731,0.99055 -1.009844,1.72523 -1.376264,2.651 -0.0388,0.098 0.305792,0.10296 0.250681,0.19283 -0.434505,0.70856 -1.759869,0.60826 -1.97125,1.52702 -4.443643,3.7785 -8.922735,7.51566 -13.515839,11.11218 0,0 1.870469,-3.53573 1.870469,-3.53573 z"
         inkscape:connector-curvature="0" />
    </g>
    <text
       transform="scale(0.99731414,1.0026931)"
       sodipodi:linespacing="125%"
       id="text9137"
       y="149.1254"
       x="28.147188"
       style="font-size:32.08617783px;line-height:125%;font-family:'KG Miss Speechy IPA';text-align:start;letter-spacing:0px;word-spacing:0px;text-anchor:start;fill:#cccccc;stroke:none;stroke-width:1.00269306px;stroke-linecap:butt;stroke-linejoin:miter;stroke-opacity:1"
       xml:space="preserve"><tspan
         id="tspan9139"
         style="font-size:32.08617783px;text-align:start;text-anchor:start;fill:#cccccc;stroke:none;stroke-width:1.00269306px"
         y="149.1254"
         x="28.147188"
         sodipodi:role="line">Look at the things in the modelling space and ask:</tspan></text>
  </g>
</svg>
