<?xml version="1.0" encoding="UTF-8" standalone="no"?>
<svg
   xmlns:dc="http://purl.org/dc/elements/1.1/"
   xmlns:cc="http://creativecommons.org/ns#"
   xmlns:rdf="http://www.w3.org/1999/02/22-rdf-syntax-ns#"
   xmlns:svg="http://www.w3.org/2000/svg"
   xmlns="http://www.w3.org/2000/svg"
   xmlns:sodipodi="http://sodipodi.sourceforge.net/DTD/sodipodi-0.dtd"
   xmlns:inkscape="http://www.inkscape.org/namespaces/inkscape"
   width="100%"
   height="100%"
   viewBox="0 0 1024 768"
   style="background: #3c4747;"
   id="svg8887"
   version="1.1"
   inkscape:version="0.91+devel+osxmenu r12898"
   sodipodi:docname="4.1.svg">
  <sodipodi:namedview
     pagecolor="#3c4747"
     bordercolor="#ffffff"
     borderopacity="1"
     inkscape:pageopacity="0"
     inkscape:pageshadow="2"
     inkscape:zoom="0.5"
     inkscape:document-units="px"
     inkscape:current-layer="layer1"
     showgrid="true"
     inkscape:window-maximized="0"
     inkscape:showpageshadow="false"
     borderlayer="true"
     id="namedview8889"
     inkscape:cx="421.66038"
     inkscape:cy="403.68608"
     inkscape:window-width="1440"
     inkscape:window-height="851"
     inkscape:window-x="0"
     inkscape:window-y="23">
    <inkscape:grid
       type="xygrid"
       color="#b5357b"
       opacity="0.1254902"
       empcolor="#5d6e79"
       empopacity="0.25098039"
       enabled="true"
       empspacing="15"
       id="grid8891" />
  </sodipodi:namedview>
  <defs
     id="defs8893">
    <style
       type="text/css"
       id="style8875">
      @import url(https://fonts.googleapis.com/css?family=Kaushan+Script);
      @import url(https://fonts.googleapis.com/css?family=Cherry+Cream+Soda);
      @import url(https://fonts.googleapis.com/css?family=Ubuntu+Mono);
      @import url(https://fonts.googleapis.com/css?family=Ubuntu+Condensed);
    </style>
  </defs>
  <metadata
     id="metadata8895">
    <rdf:RDF>
      <cc:Work>
        <dc:format>image/svg+xml</dc:format>
        <dc:type
           rdf:resource="http://purl.org/dc/dcmitype/StillImage" />
        <dc:title />
      </cc:Work>
    </rdf:RDF>
  </metadata>
  <g
     inkscape:groupmode="layer"
     id="layer0"
     inkscape:label="Background Fill"
     sodipodi:insensitive="true">
    <rect
       style="fill:#3c4747"
       width="1050"
       height="800"
       x="-10"
       y="-22"
       id="rect8898" />
  </g>
  <g
     id="layer1"
     inkscape:groupmode="layer"
     inkscape:label="Layer 1">
    <g
       id="g8997"
       transform="translate(175,226)">
      <path
         inkscape:connector-curvature="0"
         d="m 269.16691,150.08623 c -2.29333,-1.38855 -5.056,-2.24872 -7.72556,-1.46456 -0.96432,0.28326 -1.85577,0.77243 -2.78366,1.15865 1.4608,-0.73915 3.44633,-3.56059 4.38238,-2.21744 0.93651,1.3438 -2.45337,2.17607 -3.58785,3.35751 -3.30336,3.44012 -6.41017,7.57857 -8.08597,12.09575 -0.45152,1.21708 -0.60478,2.52484 -0.90717,3.78726 0.15305,1.10312 0.01,2.29029 0.45915,3.30936 2.57115,5.83298 11.12364,5.30863 16.01868,3.82015 1.92394,-0.58503 3.69405,-1.59034 5.54107,-2.38551 -0.64438,0.28491 -2.3717,1.40616 -1.93313,0.85475 1.14566,-1.44045 2.87785,-2.31198 4.15,-3.64204 3.20352,-3.34934 5.1781,-7.22104 5.60257,-11.8509 0.10476,-1.14266 -0.0304,-2.2947 -0.0457,-3.44205 -0.21491,-1.01977 -0.30053,-2.07563 -0.64474,-3.05931 -0.94609,-2.70369 -3.16408,-5.50493 -6.01829,-6.35575 -1.05395,-0.31418 -2.19229,-0.17872 -3.28843,-0.26808 0,0 7.75169,-4.47544 7.75169,-4.47544 l 0,0 c 1.11828,0.0766 2.27673,-0.077 3.35486,0.22973 2.88606,0.82099 5.12358,3.61258 6.00298,6.36458 0.32076,1.00378 0.36813,2.07517 0.5522,3.11275 -0.0826,3.0561 0.0965,4.46568 -0.95209,7.48519 -3.36193,9.6806 -13.3145,14.39039 -21.5272,19.08528 -1.88853,0.81913 -3.70063,1.84382 -5.66557,2.4574 -3.28283,1.0251 -7.19813,1.50789 -10.62296,0.78714 -2.45162,-0.51593 -4.98303,-1.76226 -6.01509,-4.2497 -0.43626,-1.05147 -0.19908,-2.26803 -0.29861,-3.40205 0.36152,-1.29656 0.5856,-2.63957 1.08458,-3.88969 1.79502,-4.4971 4.83797,-8.62657 8.13349,-12.12318 1.06694,-1.13203 2.0867,-2.34821 3.36788,-3.23051 3.52934,-2.43052 7.3304,-4.4407 10.99561,-6.66105 0.9993,-0.42745 1.96042,-0.9584 2.99791,-1.28235 2.80089,-0.87456 5.64143,-0.0304 8.17696,1.20395 0,0 -8.47001,4.89016 -8.47001,4.89016 z"
         id="path8891"
         style="fill:#cccccc;stroke:none;stroke-width:1px;stroke-linecap:butt;stroke-linejoin:miter;stroke-opacity:1" />
      <path
         inkscape:connector-curvature="0"
         d="m 264.00304,176.14881 c -4.64999,13.34316 -6.17431,27.57122 -7.6284,41.55277 -0.49154,7.26307 -1.3343,14.55263 -1.18319,21.8459 0.19412,3.77611 3.08992,-0.36806 -8.5109,5.06416 -0.14718,0.0689 0.007,-0.32495 0.012,-0.48739 0.0122,-0.40859 0.0276,-0.81708 0.0406,-1.22565 0.0119,-0.29143 0.0237,-0.58286 0.0356,-0.87429 0,0 8.4262,-4.86487 8.4262,-4.86487 l 0,0 c 0.007,0.28059 0.0138,0.56118 0.0207,0.84177 7.9e-4,0.14099 0.12436,1.59741 6e-4,1.68232 -12.42887,8.52795 -9.13446,8.43346 -8.38716,4.69195 1.34211,-7.62851 2.03934,-15.36486 3.21369,-23.01821 1.74368,-13.44369 3.27709,-26.937 5.47568,-40.30991 0,0 8.48455,-4.89855 8.48455,-4.89855 z"
         id="path8893"
         style="fill:#cccccc;stroke:none;stroke-width:1px;stroke-linecap:butt;stroke-linejoin:miter;stroke-opacity:1" />
      <path
         inkscape:connector-curvature="0"
         d="m 243.69096,188.28562 c 3.46156,4.63553 8.04947,8.87116 13.31184,11.39045 1.6845,0.80643 3.48472,1.34472 5.22709,2.01708 8.16162,1.77167 16.62354,1.85632 24.87445,0.67525 0.41307,-0.081 0.82828,-0.1517 1.2392,-0.24298 0.83191,-0.18482 1.16191,-0.36003 1.1352,-0.34522 -6.93593,3.84687 -7.15855,7.49685 -8.64373,4.5122 -0.0128,6.7e-4 -0.0256,0.001 -0.0383,0.002 -0.0452,0.005 -0.0904,0.01 -0.13563,0.015 0,0 8.61831,-4.97579 8.61831,-4.97579 l 0,0 c 0.056,-0.0112 0.11198,-0.0225 0.16797,-0.0337 0.0107,5.5e-4 0.0214,10e-4 0.032,0.002 0.43275,3.63058 -6.97033,5.30034 -10.53492,5.77793 -7.95195,0.63434 -15.9944,0.28066 -23.82603,-1.28055 -1.81094,-0.63277 -3.67369,-1.13321 -5.43281,-1.89832 -5.56118,-2.41877 -10.0534,-6.66506 -14.41963,-10.75086 0,0 8.42498,-4.86416 8.42498,-4.86416 z"
         id="path8897"
         style="fill:#cccccc;stroke:none;stroke-width:1px;stroke-linecap:butt;stroke-linejoin:miter;stroke-opacity:1" />
      <path
         inkscape:connector-curvature="0"
         d="m 256.09516,221.40392 c -1.32953,7.64812 -4.25146,14.84516 -7.30594,21.93788 -2.74442,6.07934 -5.86614,11.99195 -9.36592,17.67037 -2.47947,3.97463 -2.93528,2.66712 -9.7185,6.40529 0.005,-0.0376 0.009,-0.0753 0.0142,-0.11292 4.1e-4,-0.011 8.2e-4,-0.0221 0.001,-0.0331 0,0 8.6488,-4.99339 8.6488,-4.99339 l 0,0 c -0.008,0.0156 -0.0166,0.0311 -0.0249,0.0467 -0.0177,0.0451 -0.0354,0.0903 -0.0531,0.13539 -12.97585,7.82709 -9.87053,7.19038 -7.11585,3.31401 4.04429,-5.74091 7.58102,-11.84746 10.41632,-18.27681 2.83208,-6.79418 5.62605,-13.79478 6.07408,-21.22667 0,0 8.42955,-4.8668 8.42955,-4.8668 z"
         id="path8899"
         style="fill:#cccccc;stroke:none;stroke-width:1px;stroke-linecap:butt;stroke-linejoin:miter;stroke-opacity:1" />
      <path
         inkscape:connector-curvature="0"
         d="m 255.07899,224.53287 c -1.08007,7.10938 -0.1278,14.57043 1.93622,21.43622 0.47261,1.57211 1.11816,3.08696 1.67724,4.63044 2.28008,5.12793 5.32495,9.91131 9.22168,13.95814 0.43297,0.26277 0.90617,1.10761 1.48855,1.11792 -12.88388,9.67158 -5.437,4.55246 -9.75904,4.73928 -0.29929,0.0532 -0.5601,-0.13184 -0.81869,-0.25664 0,0 8.56179,-4.94315 8.56179,-4.94315 l 0,0 c 0.27536,0.12505 0.55314,0.29088 0.86711,0.22868 3.35981,-0.36633 9.15768,8.20089 -7.50354,5.22728 -0.47313,-0.29701 -0.80509,-0.87347 -1.16926,-1.30227 -3.28298,-4.50909 -6.06306,-9.39316 -8.20382,-14.54579 -0.53875,-1.55522 -1.14899,-3.08748 -1.61626,-4.66565 -1.98775,-6.71349 -2.92721,-13.79174 -3.07919,-20.77633 0,0 8.39721,-4.84813 8.39721,-4.84813 z"
         id="path8901"
         style="fill:#cccccc;stroke:none;stroke-width:1px;stroke-linecap:butt;stroke-linejoin:miter;stroke-opacity:1" />
    </g>
    <text
       xml:space="preserve"
       style="font-style:normal;font-variant:normal;font-weight:normal;font-stretch:normal;font-size:32px;line-height:125%;font-family:'Ubuntu Condensed';-inkscape-font-specification:'Ubuntu Condensed, ';letter-spacing:0px;word-spacing:0px;fill:#cccccc;stroke:none;stroke-width:1px;stroke-linecap:butt;stroke-linejoin:miter;stroke-opacity:1"
       x="312"
       y="264"
       id="text8909"
       sodipodi:linespacing="125%"><tspan
         sodipodi:role="line"
         id="tspan8911"
         x="312"
         y="264">milk</tspan><tspan
         sodipodi:role="line"
         x="312"
         y="304"
         id="tspan8913">eggs</tspan><tspan
         sodipodi:role="line"
         x="312"
         y="344"
         id="tspan8915">fudge</tspan></text>
    <text
       sodipodi:linespacing="125%"
       id="text8931"
       y="322"
       x="492"
       style="font-style:normal;font-variant:normal;font-weight:normal;font-stretch:normal;font-size:32px;line-height:125%;font-family:'Ubuntu Condensed';-inkscape-font-specification:'Ubuntu Condensed, ';letter-spacing:0px;word-spacing:0px;fill:#f37962;stroke:none;stroke-width:1px;stroke-linecap:butt;stroke-linejoin:miter;stroke-opacity:1"
       xml:space="preserve"><tspan
         id="tspan8937"
         y="322"
         x="492"
         sodipodi:role="line">riverside Tesco</tspan><tspan
         y="362"
         x="492"
         sodipodi:role="line"
         id="tspan8944">at 5pm on dot</tspan></text>
    <rect
       style="fill:none;fill-rule:evenodd;stroke:#cccccc;stroke-width:1;stroke-linecap:butt;stroke-linejoin:miter;stroke-opacity:1"
       id="rect8971"
       width="105"
       height="135"
       x="290"
       y="228"
       ry="15" />
    <path
       style="fill:#90969b;stroke:none;stroke-width:1px;stroke-linecap:butt;stroke-linejoin:miter;stroke-opacity:1"
       id="path9004"
       d="m 395.92363,352.21551 c 1.3084,1.83399 2.67754,3.62063 4.08167,5.38092 0.74061,0.88731 1.50235,1.75578 2.23965,2.64978 0.90835,1.14189 2.05309,2.03818 3.07291,3.06964 1.08086,0.96654 2.08415,1.97471 3.30109,2.78089 1.34437,1.07483 2.78372,2.01057 4.25336,2.90025 1.39997,0.75248 2.777,1.51656 4.25745,2.10105 1.18047,0.35263 2.23007,1.05757 3.34268,1.58895 0.64115,0.29738 1.24133,0.64233 1.94757,0.70338 0.47748,0.0193 0.9567,0.0107 1.43458,-5.8e-4 0.10038,0.005 0.21032,-0.009 0.30456,-0.0243 -2.28204,2.95924 -2.09399,3.75248 -4.97758,3.08847 -1.71292,-0.49712 -3.50578,-0.5231 -5.23971,-0.88944 -1.61521,-0.33072 -3.15924,-0.80368 -4.64248,-1.52303 -1.73742,-1.01316 -3.33605,-2.21843 -4.79623,-3.59843 -1.36096,-1.16632 -2.83223,-2.1935 -4.22323,-3.31728 -1.00616,-0.78368 -1.93541,-1.65451 -2.91476,-2.47019 -1.17691,-0.90627 -2.28466,-1.89998 -3.37704,-2.90553 -0.87026,-0.64232 -1.59842,-1.40435 -2.54865,-1.93499 -0.36252,-0.25798 -0.65766,-0.22576 -1.07103,-0.22241 -0.16637,-0.002 -0.33201,0.01 -0.49463,0.0391 -0.28362,0.19041 -0.49779,-0.56997 -0.47518,-0.90754 0.006,-0.16472 0.003,-0.32957 0.002,-0.49434 -0.007,-0.0468 0.0172,-0.003 0.0245,-0.004 0,0 3.14973,-2.46561 3.14973,-2.46561 l 0,0 c 0.0104,0.0251 0.0365,0.0463 0.0321,0.0777 0.0164,0.18022 0.0287,0.36075 0.0325,0.54183 0.005,0.12612 0.13957,0.42697 0.0233,0.3779 -1.16866,-0.49315 -0.73793,-0.50415 -0.49381,-0.40204 0.19228,0.007 0.38489,0.009 0.57703,0.0202 0.49978,0.0424 0.94215,0.1972 1.36844,0.4652 0.98467,0.58029 1.77069,1.37146 2.67819,2.05685 1.08396,0.99705 2.18482,1.97933 3.35093,2.88007 0.969,0.81904 1.90409,1.67387 2.90236,2.45827 1.41449,1.12936 2.89439,2.17917 4.26914,3.36194 1.39924,1.32052 2.9342,2.47831 4.61123,3.42674 1.43831,0.65991 2.93575,1.09058 4.48883,1.39579 1.74208,0.30696 3.5171,0.42391 5.2332,0.88433 2.58877,0.33066 3.31923,-1.05793 0.20852,3.33133 -0.11429,-0.005 -0.23022,-0.0106 -0.34537,-0.005 -0.51382,0.001 -1.03148,0.007 -1.53983,-0.0781 -0.756,-0.15676 -1.43169,-0.54147 -2.13158,-0.85476 -1.09366,-0.53231 -2.12974,-1.20553 -3.30213,-1.55399 -1.50915,-0.61777 -2.92342,-1.40805 -4.3544,-2.18623 -1.48191,-0.89452 -2.91789,-1.85821 -4.28202,-2.92653 -1.24743,-0.85154 -2.30076,-1.88478 -3.4157,-2.89128 -1.03563,-1.04822 -2.19982,-1.95953 -3.12231,-3.12004 -0.74351,-0.89544 -1.50007,-1.77524 -2.25034,-2.66093 -1.39895,-1.76324 -2.78351,-3.53767 -4.08016,-5.37934 0,0 2.89032,-2.76515 2.89032,-2.76515 z"
       inkscape:connector-curvature="0" />
    <rect
       style="fill:none;fill-rule:evenodd;stroke:#cccccc;stroke-width:1;stroke-linecap:butt;stroke-linejoin:miter;stroke-opacity:1"
       id="rect9006"
       width="180"
       height="90"
       x="489"
       y="288"
       ry="15" />
    <path
       inkscape:connector-curvature="0"
       d="m 488.63251,370.21551 c -1.3084,1.83399 -2.67754,3.62063 -4.08167,5.38092 -0.74061,0.88731 -1.50235,1.75578 -2.23965,2.64978 -0.90835,1.14189 -2.05309,2.03818 -3.07291,3.06964 -1.08086,0.96654 -2.08415,1.97471 -3.30109,2.78089 -1.34437,1.07483 -2.78372,2.01057 -4.25336,2.90025 -1.39997,0.75248 -2.777,1.51656 -4.25745,2.10105 -1.18047,0.35263 -2.23007,1.05757 -3.34268,1.58895 -0.64115,0.29738 -1.24133,0.64233 -1.94757,0.70338 -0.47748,0.0193 -0.9567,0.0107 -1.43458,-5.8e-4 -0.10038,0.005 -0.21032,-0.009 -0.30456,-0.0243 2.28204,2.95924 2.09399,3.75248 4.97758,3.08847 1.71292,-0.49712 3.50578,-0.5231 5.23971,-0.88944 1.61521,-0.33072 3.15924,-0.80368 4.64248,-1.52303 1.73742,-1.01316 3.33605,-2.21843 4.79623,-3.59843 1.36096,-1.16632 2.83223,-2.1935 4.22323,-3.31728 1.00616,-0.78368 1.93541,-1.65451 2.91476,-2.47019 1.17691,-0.90627 2.28466,-1.89998 3.37704,-2.90553 0.87026,-0.64232 1.59842,-1.40435 2.54865,-1.93499 0.36252,-0.25798 0.65766,-0.22576 1.07103,-0.22241 0.16637,-0.002 0.33201,0.01 0.49463,0.0391 0.28362,0.19041 0.49779,-0.56997 0.47518,-0.90754 -0.006,-0.16472 -0.003,-0.32957 -0.002,-0.49434 0.007,-0.0468 -0.0172,-0.003 -0.0245,-0.004 0,0 -3.14973,-2.46561 -3.14973,-2.46561 l 0,0 c -0.0104,0.0251 -0.0365,0.0463 -0.0321,0.0777 -0.0164,0.18022 -0.0287,0.36075 -0.0325,0.54183 -0.005,0.12612 -0.13957,0.42697 -0.0233,0.3779 1.16866,-0.49315 0.73793,-0.50415 0.49381,-0.40204 -0.19228,0.007 -0.38489,0.009 -0.57703,0.0202 -0.49978,0.0424 -0.94215,0.1972 -1.36844,0.4652 -0.98467,0.58029 -1.77069,1.37146 -2.67819,2.05685 -1.08396,0.99705 -2.18482,1.97933 -3.35093,2.88007 -0.969,0.81904 -1.90409,1.67387 -2.90236,2.45827 -1.41449,1.12936 -2.89439,2.17917 -4.26914,3.36194 -1.39924,1.32052 -2.9342,2.47831 -4.61123,3.42674 -1.43831,0.65991 -2.93575,1.09058 -4.48883,1.39579 -1.74208,0.30696 -3.5171,0.42391 -5.2332,0.88433 -2.58877,0.33066 -3.31923,-1.05793 -0.20852,3.33133 0.11429,-0.005 0.23022,-0.0106 0.34537,-0.005 0.51382,0.001 1.03148,0.007 1.53983,-0.0781 0.756,-0.15676 1.43169,-0.54147 2.13158,-0.85476 1.09366,-0.53231 2.12974,-1.20553 3.30213,-1.55399 1.50915,-0.61777 2.92342,-1.40805 4.3544,-2.18623 1.48191,-0.89452 2.91789,-1.85821 4.28202,-2.92653 1.24743,-0.85154 2.30076,-1.88478 3.4157,-2.89128 1.03563,-1.04822 2.19982,-1.95953 3.12231,-3.12004 0.74351,-0.89544 1.50007,-1.77524 2.25034,-2.66093 1.39895,-1.76324 2.78351,-3.53767 4.08016,-5.37934 0,0 -2.89032,-2.76515 -2.89032,-2.76515 z"
       id="path9008"
       style="fill:#90969b;stroke:none;stroke-width:1px;stroke-linecap:butt;stroke-linejoin:miter;stroke-opacity:1" />
    <text
       id="text5728"
       y="66.4375"
       x="34.15625"
       style="font-style:normal;font-variant:normal;font-weight:normal;font-stretch:normal;font-size:32px;line-height:125%;font-family:'Cherry Cream Soda';-inkscape-font-specification:'Cherry Cream Soda';letter-spacing:0px;word-spacing:0px;display:inline;fill:#f6cb9b;stroke:none;stroke-width:1px;stroke-linecap:butt;stroke-linejoin:miter;stroke-opacity:1"
       xml:space="preserve"
       sodipodi:linespacing="125%"><tspan
         y="66.4375"
         x="34.15625"
         id="tspan5726"
         sodipodi:role="line">going shopping</tspan></text>
  </g>
</svg>
